<?xml version="1.0" standalone="no"?>
<!DOCTYPE svg PUBLIC "-//W3C//DTD SVG 1.1//EN" "http://www.w3.org/Graphics/SVG/1.1/DTD/svg11.dtd" >
<svg xmlns="http://www.w3.org/2000/svg" xmlns:xlink="http://www.w3.org/1999/xlink" version="1.1">
<metadata>
Created by FontForge 20170731 at Wed Nov 17 21:25:40 2021
 By Aleksey,,,
Copyright 2004 The Moon Dance Project Authors (https://github.com/googlefonts/moondance)
</metadata>
<defs>
<font id="MoonDance-Regular" horiz-adv-x="0" >
  <font-face 
    font-family="Moon Dance"
    font-weight="400"
    font-stretch="normal"
    units-per-em="1000"
    panose-1="0 0 0 0 0 0 0 0 0 0"
    ascent="800"
    descent="-200"
    x-height="339"
    cap-height="622"
    bbox="-564 -595 1754 1128"
    underline-thickness="19"
    underline-position="-151"
    unicode-range="U+000D-FB02"
  />
<missing-glyph horiz-adv-x="484" 
d="M47 -5l-12 12v568l12 12h391l11 -12v-568l-11 -12h-391zM61 21h364v540h-364v-540zM82 40v498h320v-498h-320zM153 117l83 150l85 -150l13 22l-86 151l86 153l-13 23l-85 -152l-83 151l-11 -22l83 -151l-83 -153z" />
    <glyph glyph-name="fi" unicode="fi" horiz-adv-x="355" 
d="M-26 -157q-8 0 -8 9t11 23t24 27.5t19 19.5q1 8 2 24.5t4.5 31t10.5 16.5q17 81 36.5 162.5t47.5 159.5q-7 0 -15 -1t-16 -1q-3 0 -7 1.5t-4 5.5q0 5 4.5 9t7.5 5q11 8 18.5 8.5t20.5 0.5q11 38 27.5 80.5t39 83.5t52 73.5t68.5 50.5q25 11 50 11q44 0 61.5 -21.5
t17.5 -51.5q0 -18 -4.5 -37t-12.5 -36q-8 -19 -19 -38t-26 -33q-11 -10 -25 -10q-9 0 -15.5 4.5t-6.5 11.5t7 14q17 17 33 32.5t26.5 35t10.5 49.5q0 25 -14 42t-52 17q-29 0 -54 -21.5t-45.5 -56t-37 -72.5t-28 -72t-18.5 -55q20 -1 39.5 -1h39.5q11 0 25.5 -0.5t14.5 -4.5
q0 -7 -8.5 -9.5t-13.5 -3.5q-26 -3 -52.5 -4.5t-52.5 -3.5q-13 -37 -23.5 -76.5t-20.5 -78.5q-13 -50 -24 -101.5t-15 -103.5q8 4 26.5 12.5t36.5 16.5t23 8q7 0 7 -5q0 -6 -5 -9t-10 -5q-22 -10 -43.5 -22t-41.5 -27q-25 -18 -46 -37.5t-41 -42.5q-4 -4 -6 -4zM253 -7
q-15 0 -15 16q0 17 6 44.5t14 55.5t12 44q1 4 6 21.5l11 38.5t10.5 37.5t4.5 19.5q0 5 -5.5 9t-5.5 9q0 3 1 6t2 5q3 5 15 13t25.5 14.5t18.5 6.5q3 0 4 -1q1 -2 1 -7q0 -9 -4.5 -27t-11 -39.5t-12.5 -39.5l-9 -27q-5 -15 -14 -43t-16 -56t-7 -44q0 -2 1 -8.5t5 -6.5
q5 0 18.5 8.5t28.5 16.5t23 8q4 0 5 -2q0 -4 -13 -13.5t-27.5 -19t-19.5 -14.5q-10 -9 -24 -17t-28 -8z" />
    <glyph glyph-name="fl" unicode="fl" horiz-adv-x="397" 
d="M-26 -157q-8 0 -8 9t11 23t24 27.5t19 19.5q1 8 2 24.5t4.5 31t10.5 16.5q17 81 36.5 162.5t47.5 159.5q-7 0 -15 -1t-16 -1q-3 0 -7 1.5t-4 5.5q0 5 4.5 9t7.5 5q11 8 18.5 8.5t20.5 0.5q11 38 27.5 80.5t39 83.5t52 73.5t68.5 50.5q25 11 50 11q14 0 30.5 -5t30 -14
t15.5 -22q22 17 47 29q12 5 25 8.5t26 3.5q12 0 28.5 -5t28.5 -14.5t12 -24.5q0 -6 -3 -9q-2 -3 -15.5 -12.5t-15.5 -10.5q-2 2 -2 3q0 3 3 6t3 7q0 10 -11 18.5t-25 14t-23 5.5q-33 0 -60.5 -28t-50 -71.5t-40 -92t-29.5 -91.5t-19 -69q-8 -29 -17 -65t-15.5 -72.5
t-6.5 -67.5q0 -9 3.5 -18.5t14.5 -9.5q15 0 31.5 11t32 25t27 25t15.5 11t4 -6q0 -2 -0.5 -9t-5.5 -7q-10 -10 -28.5 -24.5t-40 -28t-42 -23t-34.5 -9.5q-9 0 -15.5 5t-6.5 15q0 14 4 35t6 36q8 48 17.5 96.5t22.5 95.5q12 47 28 99.5t39.5 103t58.5 88.5q-8 20 -26.5 33.5
t-39.5 13.5q-29 0 -54 -21.5t-45.5 -56t-37 -72.5t-28 -72t-18.5 -55q20 -1 39.5 -1h39.5q11 0 25.5 -0.5t14.5 -4.5q0 -7 -8.5 -9.5t-13.5 -3.5q-26 -3 -52.5 -4.5t-52.5 -3.5q-13 -37 -23.5 -76.5t-20.5 -78.5q-13 -50 -24 -101.5t-15 -103.5q8 4 26.5 12.5t36.5 16.5
t23 8q7 0 7 -5q0 -6 -5 -9t-10 -5q-22 -10 -43.5 -22t-41.5 -27q-25 -18 -46 -37.5t-41 -42.5q-4 -4 -6 -4z" />
    <glyph glyph-name="f_f" unicode="ff" horiz-adv-x="443" 
d="M-32 -157q-8 0 -8 9t11 23t24 27.5t19 19.5q1 8 2 24.5t4.5 31t10.5 16.5q17 81 36.5 162.5t47.5 159.5q-7 0 -15 -1t-16 -1q-3 0 -7 1.5t-4 5.5q0 5 4.5 9t7.5 5q11 8 18.5 8.5t20.5 0.5q11 38 27.5 80.5t39 83.5t52 73.5t68.5 50.5q25 11 50 11q29 0 50.5 -15.5
t31.5 -42.5q2 -4 2 -7v-7v-5q17 21 37.5 38t44.5 28q25 11 50 11q29 0 50.5 -15.5t31.5 -42.5q2 -4 2 -7v-7q0 -29 -22 -47q-2 -1 -4.5 -3t-5.5 -2l-2 1q-1 2 -1 5q0 6 2 12t2 12q0 28 -22 50.5t-50 22.5q-29 0 -54 -21.5t-45.5 -56t-37 -72.5t-28 -72t-18.5 -55
q20 -1 39.5 -1h39.5q11 0 25.5 -0.5t14.5 -4.5q0 -7 -8.5 -9.5t-13.5 -3.5q-26 -3 -52.5 -4.5t-52.5 -3.5q-13 -37 -23.5 -76.5t-20.5 -78.5q-13 -50 -24 -101.5t-15 -103.5q8 4 26.5 12.5t36.5 16.5t23 8q7 0 7 -5q0 -6 -5 -9t-10 -5q-22 -10 -43.5 -22t-41.5 -27
q-25 -18 -46 -37.5t-41 -42.5q-4 -4 -6 -4q-8 0 -8 9t11 23t24 27.5t19 19.5q1 8 2 24.5t4.5 31t10.5 16.5q17 81 36.5 162.5t47.5 159.5q-90 0 -128.5 -0.5t-52.5 -1.5q-13 -36 -23 -74.5t-20 -76.5q-13 -50 -24 -101.5t-15 -103.5q8 4 26.5 12.5t36.5 16.5t23 8q7 0 7 -5
q0 -6 -5 -9t-10 -5q-22 -10 -43.5 -22t-41.5 -27q-25 -18 -46 -37.5t-41 -42.5q-4 -4 -6 -4zM201 344h139q12 41 30 87t43 88l-2 1q-1 2 -1 5q0 6 2 12t2 12q0 28 -22 50.5t-50 22.5q-29 0 -54 -21.5t-45.5 -56t-37 -72.5t-28 -72t-18.5 -55q11 -1 21.5 -1h20.5z" />
    <glyph glyph-name="f_f_i" unicode="ffi" horiz-adv-x="565" 
d="M-32 -157q-8 0 -8 9t11 23t24 27.5t19 19.5q1 8 2 24.5t4.5 31t10.5 16.5q17 81 36.5 162.5t47.5 159.5q-7 0 -15 -1t-16 -1q-3 0 -7 1.5t-4 5.5q0 5 4.5 9t7.5 5q11 8 18.5 8.5t20.5 0.5q11 38 27.5 80.5t39 83.5t52 73.5t68.5 50.5q25 11 50 11q29 0 50.5 -15.5
t31.5 -42.5q2 -4 2 -7v-7v-5q17 21 37.5 38t44.5 28q25 11 50 11q29 0 50.5 -15.5t31.5 -42.5q2 -4 2 -7v-7q0 -29 -22 -47q-2 -1 -4.5 -3t-5.5 -2l-2 1q-1 2 -1 5q0 6 2 12t2 12q0 28 -22 50.5t-50 22.5q-29 0 -54 -21.5t-45.5 -56t-37 -72.5t-28 -72t-18.5 -55
q20 -1 39.5 -1h39.5q11 0 25.5 -0.5t14.5 -4.5q0 -7 -8.5 -9.5t-13.5 -3.5q-26 -3 -52.5 -4.5t-52.5 -3.5q-13 -37 -23.5 -76.5t-20.5 -78.5q-13 -50 -24 -101.5t-15 -103.5q8 4 26.5 12.5t36.5 16.5t23 8q7 0 7 -5q0 -6 -5 -9t-10 -5q-22 -10 -43.5 -22t-41.5 -27
q-25 -18 -46 -37.5t-41 -42.5q-4 -4 -6 -4q-8 0 -8 9t11 23t24 27.5t19 19.5q1 8 2 24.5t4.5 31t10.5 16.5q17 81 36.5 162.5t47.5 159.5q-90 0 -128.5 -0.5t-52.5 -1.5q-13 -36 -23 -74.5t-20 -76.5q-13 -50 -24 -101.5t-15 -103.5q8 4 26.5 12.5t36.5 16.5t23 8q7 0 7 -5
q0 -6 -5 -9t-10 -5q-22 -10 -43.5 -22t-41.5 -27q-25 -18 -46 -37.5t-41 -42.5q-4 -4 -6 -4zM201 344h139q12 41 30 87t43 88l-2 1q-1 2 -1 5q0 6 2 12t2 12q0 28 -22 50.5t-50 22.5q-29 0 -54 -21.5t-45.5 -56t-37 -72.5t-28 -72t-18.5 -55q11 -1 21.5 -1h20.5zM561 396
q-4 0 -7.5 8t-5 17.5t-1.5 13.5q0 2 0.5 5.5t3.5 4.5q17 2 32.5 6t31.5 9q2 1 7 1q8 0 8 -9q0 -20 -19 -33q-11 -7 -23.5 -15t-26.5 -8zM463 -7q-15 0 -15 16q0 17 6 44.5t14 55.5t12 44q1 4 6 21.5l11 38.5t10.5 37.5t4.5 19.5q0 5 -5.5 9t-5.5 9q0 3 1 6t2 5q3 5 15 13
t25.5 14.5t18.5 6.5q3 0 4 -1q1 -2 1 -7q0 -9 -4.5 -27t-11 -39.5t-12.5 -39.5l-9 -27q-5 -15 -14 -43t-16 -56t-7 -44q0 -2 1 -8.5t5 -6.5q5 0 18.5 8.5t28.5 16.5t23 8q4 0 5 -2q0 -4 -13 -13.5t-27.5 -19t-19.5 -14.5q-10 -9 -24 -17t-28 -8z" />
    <glyph glyph-name="f_f_l" unicode="ffl" horiz-adv-x="640" 
d="M-32 -157q-8 0 -8 9t11 23t24 27.5t19 19.5q1 8 2 24.5t4.5 31t10.5 16.5q17 81 36.5 162.5t47.5 159.5q-7 0 -15 -1t-16 -1q-3 0 -7 1.5t-4 5.5q0 5 4.5 9t7.5 5q11 8 18.5 8.5t20.5 0.5q11 38 27.5 80.5t39 83.5t52 73.5t68.5 50.5q25 11 50 11q29 0 50.5 -15.5
t31.5 -42.5q2 -4 2 -7v-7v-5q17 21 37.5 38t44.5 28q25 11 50 11q29 0 50.5 -15.5t31.5 -42.5l2 -6q15 16 33 29.5t39 22.5q12 5 25 8.5t26 3.5q12 0 28.5 -5t28.5 -14.5t12 -24.5q0 -6 -3 -9q-2 -3 -15.5 -12.5t-15.5 -10.5q-2 2 -2 3q0 3 3 6t3 7q0 10 -11 18.5t-25 14
t-23 5.5q-33 0 -60.5 -28t-50 -71.5t-40 -92t-29.5 -91.5t-19 -69q-8 -29 -17 -65t-15.5 -72.5t-6.5 -67.5q0 -9 3.5 -18.5t14.5 -9.5q15 0 31.5 11t32 25t27 25t15.5 11t4 -6q0 -2 -0.5 -9t-5.5 -7q-10 -10 -28.5 -24.5t-40 -28t-42 -23t-34.5 -9.5q-9 0 -15.5 5t-6.5 15
q0 14 4 35t6 36q8 48 17.5 96.5t22.5 95.5q16 60 37.5 128.5t59.5 125.5q2 7 2 11q0 28 -22 50.5t-50 22.5q-29 0 -54 -21.5t-45.5 -56t-37 -72.5t-28 -72t-18.5 -55q20 -1 39.5 -1h39.5q11 0 25.5 -0.5t14.5 -4.5q0 -7 -8.5 -9.5t-13.5 -3.5q-26 -3 -52.5 -4.5t-52.5 -3.5
q-13 -37 -23.5 -76.5t-20.5 -78.5q-13 -50 -24 -101.5t-15 -103.5q8 4 26.5 12.5t36.5 16.5t23 8q7 0 7 -5q0 -6 -5 -9t-10 -5q-22 -10 -43.5 -22t-41.5 -27q-25 -18 -46 -37.5t-41 -42.5q-4 -4 -6 -4q-8 0 -8 9t11 23t24 27.5t19 19.5q1 8 2 24.5t4.5 31t10.5 16.5
q17 81 36.5 162.5t47.5 159.5q-90 0 -128.5 -0.5t-52.5 -1.5q-13 -36 -23 -74.5t-20 -76.5q-13 -50 -24 -101.5t-15 -103.5q8 4 26.5 12.5t36.5 16.5t23 8q7 0 7 -5q0 -6 -5 -9t-10 -5q-22 -10 -43.5 -22t-41.5 -27q-25 -18 -46 -37.5t-41 -42.5q-4 -4 -6 -4zM201 344h139
q12 41 30 87t43 88l-2 1q-1 2 -1 5q0 6 2 12t2 12q0 28 -22 50.5t-50 22.5q-29 0 -54 -21.5t-45.5 -56t-37 -72.5t-28 -72t-18.5 -55q11 -1 21.5 -1h20.5z" />
    <glyph glyph-name=".notdef" horiz-adv-x="484" 
d="M47 -5l-12 12v568l12 12h391l11 -12v-568l-11 -12h-391zM61 21h364v540h-364v-540zM82 40v498h320v-498h-320zM153 117l83 150l85 -150l13 22l-86 151l86 153l-13 23l-85 -152l-83 151l-11 -22l83 -151l-83 -153z" />
    <glyph glyph-name=".null" 
 />
    <glyph glyph-name="nonmarkingreturn" horiz-adv-x="333" 
 />
    <glyph glyph-name="CR" unicode="&#xd;" horiz-adv-x="187" 
 />
    <glyph glyph-name="space" unicode=" " horiz-adv-x="250" 
 />
    <glyph glyph-name="exclam" unicode="!" horiz-adv-x="300" 
d="M125 153q-6 0 -6 8q0 17 11 53t30 83.5t41 98t44.5 97t41.5 80.5t31 47q8 8 16 13.5t19 5.5q17 0 17 -15q0 -4 -2.5 -8.5t-4.5 -7.5q-33 -50 -64 -101t-60 -104q-15 -29 -35 -66.5t-37 -76t-26 -70.5q-1 -7 -4.5 -22t-11.5 -15zM62 -15q-9 0 -14 12.5t-5 19.5
q0 12 15.5 24.5t35 21.5t30.5 9q2 0 3 -1l1 -2q-6 -11 -16 -31t-22.5 -36.5t-27.5 -16.5z" />
    <glyph glyph-name="quotedbl" unicode="&#x22;" horiz-adv-x="198" 
d="M223 300q-1 0 -1 3v5q0 20 2.5 40.5t2.5 40.5t-3.5 38.5t-15.5 34.5q-1 1 -1 3q0 11 13.5 24.5t23.5 13.5h8q19 0 19 -18q0 -8 -3 -18.5t-5 -18.5q-6 -29 -12.5 -58t-14.5 -58q-1 -3 -5 -17.5t-8 -14.5zM117 300q-1 0 -1 3v5q0 20 2.5 40.5t2.5 40.5t-3.5 38.5
t-15.5 34.5q-1 1 -1 3q0 11 13.5 24.5t23.5 13.5h8q19 0 19 -18q0 -8 -3 -18.5t-5 -18.5q-6 -29 -12.5 -58t-14.5 -58q-1 -3 -5 -17.5t-8 -14.5z" />
    <glyph glyph-name="numbersign" unicode="#" horiz-adv-x="449" 
d="M178 52q-3 0 -8.5 1t-4.5 6q19 31 37 62.5t36 62.5l-96 -4q-10 -20 -25.5 -48.5t-27.5 -45.5q-5 -7 -13.5 -9.5t-16.5 -2.5q-4 0 -8.5 1t-4.5 6q0 2 7 15.5t17 31.5t18 32.5t9 17.5l-34 -2l-9 -1h-2q-7 0 -21.5 8.5t-14.5 15.5l2 1q23 2 47 3t47 2q8 5 14 11q5 5 14 21.5
t13 23.5q17 27 32.5 53.5t30.5 54.5q-17 -1 -43 -1.5t-42 -3.5q-7 1 -20 9.5t-15 14.5q3 2 22 3t43.5 2t44.5 1.5t25 0.5q17 32 32 64.5t22 66.5q1 3 3.5 11t6.5 8q3 0 3.5 -4.5t0.5 -6.5q0 -16 -9 -43t-20.5 -53.5t-18.5 -41.5h51t50 -1q18 37 34.5 73t25.5 76q1 2 3 10.5
t6 8.5q3 0 3.5 -3.5t0.5 -6.5q0 -20 -9 -50t-20.5 -59.5t-20.5 -49.5q12 0 31 -1.5t37.5 -3t28.5 -4.5q1 0 3.5 -1t2.5 -3q0 -4 -5.5 -4.5t-7.5 -0.5q-25 0 -49.5 -0.5t-49.5 -1.5q-19 -43 -39.5 -85t-42.5 -84q26 -1 53.5 -3t53.5 -7q1 0 3.5 -0.5t2.5 -2.5q0 -4 -5 -4.5
t-7 -0.5q-28 0 -55.5 -0.5t-55.5 -1.5q-13 -26 -31 -61.5t-35 -58.5q-5 -7 -13 -10t-17 -3zM156 206q12 1 24 1h24h23t24 -1q23 41 46 83t44 85l-102 -4q-19 -41 -40 -82t-43 -82z" />
    <glyph glyph-name="dollar" unicode="$" horiz-adv-x="422" 
d="M125 -30q-12 0 -32 1.5t-40.5 6.5t-34 14.5t-13.5 24.5q0 6 3 6t14.5 -4l23 -8t15.5 -6q20 -7 41 -11.5t43 -4.5h5q1 44 16.5 110t39.5 139q-37 31 -67 64.5t-30 71.5q0 27 19 54q32 46 85 72t113 30q14 27 26 46q5 7 12 14.5t15 7.5q17 0 17 -5q0 -1 -4.5 -11t-8.5 -17
q-9 -17 -18 -35q16 -1 33.5 -4.5t25.5 -11.5q11 -9 13.5 -26.5t2.5 -29.5q0 -9 -1.5 -20.5t-5.5 -20.5q-3 -7 -11.5 -18t-20.5 -11h-1t-1 1q1 17 3 33.5t2 32.5q0 24 -9.5 40.5t-38.5 18.5q-23 -45 -48 -98.5t-47 -110.5q-5 -12 -10 -24.5t-10 -25.5q7 -6 14 -11.5t13 -10.5
q11 -9 23 -17.5t22 -18.5q21 -20 37.5 -45t16.5 -53q0 -29 -18 -51t-46.5 -37t-62.5 -24.5t-67 -13.5q1 -10 2 -19t2 -15q0 -9 -10 -9q-9 0 -12.5 13.5t-4.5 27.5q-13 -1 -25 -1zM158 378q0 -27 18.5 -53.5t42.5 -49.5q23 65 48.5 127t49.5 110q-6 -1 -13 -2
q-58 -12 -95 -39t-49 -78q-1 -4 -1.5 -7.5t-0.5 -7.5zM173 -5v-4q37 4 69.5 12t57.5 36q21 23 21 51q0 36 -28.5 68t-65.5 62q-21 -54 -37.5 -112.5t-16.5 -112.5z" />
    <glyph glyph-name="percent" unicode="%" horiz-adv-x="629" 
d="M0 -127q-8 0 -13 7t-5 14q0 13 10.5 34.5t23.5 42t20 30.5q38 56 82 107t90 100q70 74 143 143.5t149 136.5q36 32 78 66.5t79 60.5q0 10 -15.5 15t-39.5 7t-50 2q-33 0 -71 -1.5t-69 -4t-44 -4.5q10 -7 19.5 -17t9.5 -22q0 -22 -8.5 -46t-18.5 -44t-29.5 -49.5
t-45.5 -59t-55 -49t-58 -19.5q-18 0 -30.5 10.5t-12.5 27.5q0 35 14 69.5t34 66.5t37 56q4 6 13.5 18.5t20 23t17.5 10.5t16.5 -4.5t9.5 -18.5q0 -3 -13.5 -21.5t-33.5 -45.5t-40 -57t-33.5 -57t-13.5 -44q0 -21 17 -21q16 0 34 14t35 34.5t30.5 40.5t20.5 33
q15 28 28.5 61.5t13.5 65.5q0 20 -7.5 35.5t-27.5 22.5h34q3 0 26.5 3t57 6.5t67 6.5t56.5 3q27 0 56.5 -1.5t50 -10t20.5 -28.5h4q8 0 13 -1.5t5 -12.5q0 -4 -5 -9q-10 -10 -23 -19t-24 -17q-24 -19 -47.5 -38t-46.5 -39q-41 -34 -93 -81.5t-107.5 -103t-109.5 -114
t-101.5 -114.5t-82.5 -105.5t-52 -86.5q-4 -8 -9 -8zM369 -55q-31 0 -42 19t-11 49q0 32 7.5 63t17.5 60q-6 5 -10.5 11.5t-4.5 15.5q0 21 19.5 44t44.5 41.5t42 24.5q3 5 8.5 6.5t10.5 1.5q45 0 58.5 -29t13.5 -72q0 -44 -13 -86t-35.5 -75.5t-49.5 -53.5t-56 -20zM376 -31
q33 0 54 30q14 19 28 51t23.5 69t9.5 69q0 16 -5 32.5t-24 16.5t-37 -20t-32.5 -46.5t-21.5 -47.5q-8 -23 -14.5 -53t-6.5 -56q0 -13 5 -29t21 -16z" />
    <glyph glyph-name="ampersand" unicode="&#x26;" horiz-adv-x="904" 
d="M166 -301q-34 0 -64.5 11t-50.5 31q-7 8 -13 16.5t-11 18.5q-3 6 -4 12t-1 11q0 16 5 16q2 0 7 -8q4 -8 10 -17t14 -15q21 -15 44.5 -24t48.5 -9q22 0 43.5 8t41.5 26q43 37 74 88t56 113q-49 -9 -96 -9q-59 0 -106.5 16t-75 50.5t-27.5 88.5q0 35 15 73.5t44 75.5
q-44 12 -72.5 39.5t-28.5 76.5q0 44 31 87.5t88 72.5t134 29q21 0 44.5 -4.5t43.5 -11t29 -12.5q14 -8 14 -16q0 -4 -4 -5.5t-10 1.5q-16 8 -46 15t-56 7q-66 0 -112.5 -25.5t-70.5 -63.5t-24 -75q0 -29 15.5 -53t47.5 -35q30 32 70.5 60.5t90.5 51.5q15 7 48 22.5t75 36.5
l84 42q14 57 36.5 105.5t57 78t83.5 29.5q28 0 40.5 -13.5t12.5 -33.5q0 -35 -26.5 -64t-70 -54.5t-94.5 -51.5q-12 -30 -23 -65t-21 -75q68 26 130 46t112 20q47 0 72.5 -21t25.5 -59t-27 -92q-32 -65 -96 -119.5t-144.5 -94t-163.5 -60.5q-25 -82 -57.5 -149t-78.5 -103
q-24 -19 -53.5 -28t-59.5 -9zM564 541q40 22 73.5 45.5t54 49t20.5 53.5q0 16 -16 16q-5 0 -15 -3t-18 -11q-18 -16 -44.5 -53t-54.5 -97zM186 291h8q69 0 140.5 20.5t140.5 45.5q8 32 15 64t14 63l-78 -39t-67 -32.5t-43 -19.5q-42 -19 -74.5 -45.5t-55.5 -56.5zM422 12
q74 18 147.5 55.5t133 89.5t90.5 113q17 34 17 61q0 28 -18.5 43t-51.5 15q-47 0 -110.5 -20.5t-134.5 -45.5q-16 -74 -33.5 -154.5t-39.5 -156.5zM309 -3q33 0 67 6q24 67 45 145t43 165q-62 -21 -125 -37t-122 -16q-25 0 -51 3q-35 -61 -35 -119q0 -51 23.5 -83.5t64 -48
t90.5 -15.5z" />
    <glyph glyph-name="quotesingle" unicode="'" horiz-adv-x="194" 
d="M115 421q-2 0 -2 2q9 17 22 41t25.5 50.5t20 52t4.5 43.5q5 6 14 6q10 0 25.5 -8.5t15.5 -19.5q0 -2 -2 -4q-6 -16 -20 -39t-32.5 -48t-36.5 -45.5t-32 -30.5h-2z" />
    <glyph glyph-name="parenleft" unicode="(" horiz-adv-x="281" 
d="M111 -62q-41 0 -62 23.5t-28 58t-7 67.5q0 82 29 161t80.5 148t119.5 121t147 81.5t161 29.5q5 0 5 -5t-5 -5q-62 0 -120 -23.5t-108 -58.5q-87 -59 -150.5 -142t-91.5 -186q-7 -25 -9.5 -52t-2.5 -54q0 -21 2.5 -45.5t11 -47t25 -36.5t44.5 -14q5 0 10 1t9 1q6 0 6 -5
t-14 -9.5t-30 -6.5t-22 -2z" />
    <glyph glyph-name="parenright" unicode=")" horiz-adv-x="398" 
d="M-65 -93q-1 0 -12 1t-11 5q0 3 8 3.5t9 0.5q39 0 78 17t72 36q54 33 102 85t84.5 115t57.5 130.5t21 130.5q0 59 -23 106.5t-83 67.5q-13 5 -27 7l-28 4q-5 0 -5 4q0 6 13.5 7.5t21.5 1.5q92 0 138.5 -55.5t46.5 -141.5q0 -75 -29.5 -145t-71.5 -131q-29 -42 -68.5 -85.5
t-86.5 -81t-99.5 -60t-107.5 -22.5z" />
    <glyph glyph-name="asterisk" unicode="*" horiz-adv-x="599" 
d="M312 13l-2 1q-4 32 -5.5 64.5t-1.5 64.5q0 24 0.5 48t0.5 47q-33 -34 -66.5 -69.5t-65.5 -71.5l-12 -14q-1 -1 -4.5 -1.5t-5.5 -0.5t-11.5 1t-9.5 5t15 21t37.5 41t46 47.5t41 40.5t21.5 21q-29 0 -58 0.5t-58 1.5q-6 0 -21.5 0.5t-34 1.5t-33.5 2.5t-20 3.5q-1 1 -2.5 2
t-1.5 2q0 5 7 5q53 0 106 1l106 2q-4 4 -20 20.5t-37 39t-41.5 44.5t-34 38.5t-13.5 20.5t4 4q3 0 15.5 -11.5t25 -24.5t15.5 -16l110 -108l2 117q1 11 1.5 33.5t2.5 45t5 31.5q2 4 4 4q5 0 5 -7q0 -55 1 -109t2 -109q4 4 20.5 19.5t38.5 36.5t44 41.5t38 34t20 13.5t4 -4
q0 -2 -11 -13.5t-22.5 -23l-14.5 -14.5l-98 -102q35 1 69.5 2t68.5 2q15 1 30.5 2.5t30.5 1.5q6 0 13 -9.5t8 -14.5l-1 -1q-35 -4 -71 -5.5t-72 -1.5h-86q69 -67 139 -130l14 -12q2 -1 2 -4.5v-5.5t-0.5 -12t-5.5 -10q-4 0 -19.5 14t-37 34.5t-43.5 42t-37.5 37.5t-19.5 20
l2 -68l2 -68q1 -15 2 -30.5t1 -30.5q0 -5 -9 -12t-14 -9z" />
    <glyph glyph-name="plus" unicode="+" horiz-adv-x="385" 
d="M156 11q-4 0 -4 6q0 15 2.5 30.5t3.5 30.5q4 33 7 66l6 66l-84 -4l-31 -2l-4 -1h-4q-7 0 -19 8.5t-14 15.5q4 3 26 4.5t50 2.5t51.5 1h30.5q3 40 4 79t1 79q0 5 13.5 12.5t18.5 7.5l2 -1v-13q0 -41 -3.5 -82t-8.5 -82q23 0 52.5 -0.5t59 -2.5t50.5 -8q2 -1 3.5 -1.5
t1.5 -2.5q0 -4 -4.5 -4.5t-6.5 -0.5q-40 0 -79.5 -1t-79.5 -3q-1 -12 -5 -40t-9.5 -61t-11.5 -60t-11 -36q-3 -3 -4 -3z" />
    <glyph glyph-name="comma" unicode="," horiz-adv-x="152" 
d="M22 -121l-1 1h1v2l3 4l6 10l19 33q11 20 20 42.5t9 44.5q0 8 -3 15t-3 14q0 8 5.5 19.5t14.5 11.5q8 0 14.5 -7t10.5 -12v1q1 -4 1.5 -8t0.5 -8q0 -20 -10.5 -43t-25 -44.5t-26.5 -37.5q-2 -3 -9.5 -12t-15 -17.5t-11.5 -8.5z" />
    <glyph glyph-name="hyphen" unicode="-" horiz-adv-x="298" 
d="M100 167q-5 2 -12 10t-8 13l2 2q48 6 97 6q13 0 33.5 -0.5t40.5 -3t32 -7.5q3 -1 3 -4q0 -5 -6 -5q-31 0 -62 -2t-63 -4q-13 -1 -28 -1.5t-29 -3.5z" />
    <glyph glyph-name="period" unicode="." horiz-adv-x="175" 
d="M86 -15q-8 0 -14.5 12t-6.5 19q0 18 18 25q4 5 16 12t24.5 13t18.5 6q1 0 3 -2q-3 -4 -7.5 -8.5t-7.5 -9.5q-6 -9 -11 -25t-12 -29t-21 -13z" />
    <glyph glyph-name="slash" unicode="/" horiz-adv-x="446" 
d="M4 -116l-2 1q-4 4 -7.5 12.5t-3.5 23.5q0 21 23.5 62.5t62.5 95.5t84 111.5t89.5 110.5t78.5 92q59 66 115 125t99 101q20 19 40 37.5t42 35.5q7 5 14 12.5t13 11.5q17 10 30 10q10 0 18 -4q2 0 6 -2.5t5 -8.5q0 -3 -5 -6q-79 -65 -168.5 -152t-174.5 -179
q-57 -62 -112.5 -127.5t-104 -129.5t-85.5 -123.5t-57 -109.5z" />
    <glyph glyph-name="zero" unicode="0" horiz-adv-x="554" 
d="M144 -7q-8 0 -16 0.5t-16 1.5q-49 7 -72.5 41.5t-23.5 83.5q0 54 25 117.5t72 123t113 103.5t147 58q-10 4 -19.5 4.5t-8.5 0.5q-5 2 -5 5t7.5 6t14.5 4q11 1 25 0.5t24 -2.5q11 3 22 5t19 2q15 0 15 -5q0 -3 -11 -9q62 -16 90 -54t28 -88q0 -49 -23.5 -103.5t-65 -107
t-96 -94.5t-117.5 -67.5t-128 -25.5zM137 13q58 0 115 25t107 66t88.5 91.5t60.5 102.5t22 98q0 44 -25 77t-81 45q-65 -13 -121.5 -46.5t-102 -79.5t-78 -97.5t-50 -101.5t-17.5 -90q0 -37 16.5 -61t50.5 -28q4 0 7.5 -0.5t7.5 -0.5z" />
    <glyph glyph-name="one" unicode="1" horiz-adv-x="272" 
d="M-15 -32q-7 0 -11 9.5t-4 16.5q0 9 6 10q20 5 42 10t43 6q8 38 23 92t34 113t38 115t34 99q-25 -16 -52 -30t-59 -26q-2 -1 -5 -1q-9 0 -9 9t6 11q42 17 74.5 42t43.5 35l33 34q3 8 11.5 11.5t16.5 3.5q10 0 16.5 -4.5t2.5 -14.5q-47 -114 -92.5 -231t-83.5 -251
q29 -2 62 -6t65 -9q9 -2 9 -10t-11 -7q-14 2 -27.5 3t-26.5 1q-46 0 -90 -10t-88 -21h-1z" />
    <glyph glyph-name="two" unicode="2" horiz-adv-x="591" 
d="M420 -17q-37 0 -72.5 10.5t-69.5 25t-67 26t-66 12.5q-14 -5 -30.5 -17.5t-34 -24.5t-35.5 -17q-6 -1 -10 -1.5t-8 -0.5q-17 0 -17 12q0 11 13.5 27t30.5 25q11 6 30.5 10.5t39.5 7.5t31 2q74 44 136 86t106 85q39 38 61.5 82.5t22.5 81.5q0 32 -19.5 53.5t-63.5 21.5
q-28 0 -62.5 -9.5t-67.5 -25.5t-58.5 -35t-36.5 -38q-3 -3 -5 -3q-4 0 -4 8q0 7 3 10q22 33 67 64.5t102.5 52.5t114.5 21q52 0 74.5 -22.5t22.5 -57.5q0 -32 -16.5 -71t-45.5 -77.5t-67 -71.5q-52 -47 -116.5 -89t-127.5 -75q47 -4 84.5 -18.5t76.5 -27t89 -12.5
q41 0 64 15.5t23 35.5q0 13 -10.5 25t-35.5 21q-5 1 -5 6q0 3 3.5 5.5t9.5 0.5q33 -10 48 -26.5t15 -35.5q0 -24 -17 -41.5t-43.5 -26.5t-56.5 -9z" />
    <glyph glyph-name="three" unicode="3" horiz-adv-x="551" 
d="M186 -9q-56 0 -100.5 12.5t-70 39.5t-25.5 69q0 41 27 68.5t67.5 42t80.5 14.5q10 0 10 -7v-1q0 -7 -11 -7q-27 0 -55.5 -13.5t-48 -37.5t-19.5 -58q0 -50 42 -75.5t105 -25.5q53 0 107 13.5t98.5 40.5t70 67t20.5 92q-2 31 -21 48.5t-47 25t-58 7.5q-49 0 -85 -13
q-9 -3 -16 -3q-9 0 -13 5t-4 12q0 8 6.5 15.5t16.5 7.5q31 0 75 7t80 24q31 14 47 38t16 49q0 17 -13.5 31t-44.5 14q-7 0 -15.5 -1t-17.5 -3q-40 -7 -83 -26.5t-69 -38.5q-4 -2 -6 -2q-7 0 -7 13q0 7 3.5 15t9.5 12q12 6 28.5 19t29.5 27q4 4 8 4q5 0 5 -7v-2q0 -3 -3 -8
q-1 -2 -2.5 -3.5l-3.5 -3.5q16 7 41.5 15.5t55.5 15.5t57 7q33 0 56.5 -13.5t23.5 -51.5q0 -30 -23 -57.5t-55.5 -47.5t-61.5 -26q32 -3 64 -14t53.5 -34.5t21.5 -65.5q0 -53 -33 -94.5t-85 -70.5t-112.5 -44.5t-116.5 -15.5z" />
    <glyph glyph-name="four" unicode="4" horiz-adv-x="507" 
d="M155 -18q-7 0 -10 8t-3 16q1 7 19 13t42 10t41 5l31 2q0 35 8.5 73.5t19.5 70.5t16 46q-16 2 -35.5 3.5t-42.5 1.5q-49 0 -100 -6t-82 -19q-9 -4 -18.5 4t-11.5 18q-2 6 -2 10q0 12 12 16q5 2 16 4.5t15 3.5q29 17 70.5 42.5t88 56t89.5 62.5t74.5 61.5t41.5 51.5
q1 3 8.5 4t11.5 1q11 0 23.5 -5.5t9.5 -11.5q-21 -46 -46 -99t-47 -101.5t-35 -82.5l31.5 -10.5t50.5 -8.5q28 0 39 13.5t11 30.5t-8 33q-3 8 5 8q11 0 23 -16t13 -38q0 -26 -18 -39t-62 -13q-26 0 -54.5 7t-36.5 10q-6 -18 -18 -50.5t-23 -68.5t-15 -64q13 -1 32 -4
t36.5 -6t25.5 -4q9 -1 9 -11t-12 -8q-36 6 -66 6q-39 0 -77.5 -7.5t-87.5 -18.5h-2zM324 252q10 26 22 61.5t26.5 72.5t29.5 65q-34 -29 -83.5 -63.5t-100.5 -67t-90 -56.5q14 2 28.5 2h28.5q44 0 82 -4t57 -10z" />
    <glyph glyph-name="five" unicode="5" horiz-adv-x="557" 
d="M504 455q-39 0 -74.5 6l-71 12t-75.5 6q-16 0 -39 -4t-37 -16q-6 -3 -8 -3q-12 0 -16 16q0 2 -0.5 3.5t-0.5 3.5q0 15 9 19q15 11 35 15t42 4q37 0 83 -9t90 -18.5t74 -9.5q43 0 43 27q0 6 -1 10v2q0 9 7 9t9 -4t3 -8t1 -7v-6q0 -28 -23.5 -38t-49.5 -10zM170 -29
q-41 0 -83 11t-69.5 34.5t-27.5 59.5q0 27 17 51.5t47 37.5q9 4 16 4q6 0 6 -3q0 -5 -10 -11q-36 -23 -36 -66q0 -33 21 -53.5t52.5 -30.5t63.5 -10q46 0 98.5 16.5t98.5 47t75.5 73t29.5 95.5q0 61 -40 83t-105 22q-39 0 -75 -7.5t-55 -18.5q-25 -14 -45 -28t-29 -14
q-10 0 -10 9q0 8 7 20l82 147q2 5 14 7.5t22 2.5q9 0 14.5 -2t2.5 -7l-83 -128q12 12 38.5 22.5t62.5 16.5t74 6q49 0 88.5 -11.5t62.5 -38.5t23 -74q0 -51 -29 -98t-78 -84.5t-111.5 -59t-129.5 -21.5z" />
    <glyph glyph-name="six" unicode="6" horiz-adv-x="482" 
d="M216 -9q-99 0 -149.5 43.5t-50.5 108.5q0 38 18 81.5t54 86.5q50 61 123 107.5t143 74.5q-20 4 -20 9q2 8 26 10.5t44 2.5q36 0 48.5 -6t13.5 -13q0 -7 -13 -13t-28 -10q-45 -10 -101 -36.5t-111 -65.5t-97 -87q-34 -40 -51.5 -80.5t-17.5 -75.5q0 -50 36 -83t109 -33
q35 0 73 10t71 29t53.5 46t20.5 61q0 33 -26.5 48.5t-62.5 15.5q-22 0 -44.5 -5.5t-42.5 -16.5q-41 -22 -73 -58t-40 -67q0 -7 -7 -7q-8 0 -6 11q10 43 42 80t75 59q47 24 102 24q50 0 87 -22.5t37 -67.5q0 -36 -22.5 -65.5t-58.5 -51t-76.5 -33t-77.5 -11.5z" />
    <glyph glyph-name="seven" unicode="7" horiz-adv-x="442" 
d="M102 -35q-3 0 -7 3t-5 7l-2 10l-2 10q-2 36 13 76t37.5 77.5t41.5 63.5q40 53 96.5 116t142.5 141q-31 5 -73 12t-95 7q-39 0 -71.5 -6t-55.5 -26t-33 -61q-4 -16 -19 -16q-17 0 -19 20v8q0 2 0.5 3t0.5 2q3 9 11 28.5t8 29.5v23q2 7 6 5l2 -2t4 -7q1 -4 1 -8t1 -9
q27 28 66.5 40.5t78.5 12.5q25 0 52.5 -5t54.5 -12q27 -6 53 -12t48 -9q9 8 19 16l20 16q0 1 3 1q4 0 9.5 -3t9.5 -8q7 -7 10 -14t-2 -10q-114 -94 -184.5 -164t-116.5 -123q-20 -22 -43.5 -59.5t-39 -77.5t-13.5 -72q0 -4 0.5 -7.5t1.5 -6.5v-2q0 -8 -10 -8z" />
    <glyph glyph-name="eight" unicode="8" horiz-adv-x="525" 
d="M160 -17q-44 0 -80.5 11.5t-58 36t-21.5 62.5q0 35 23 69.5t59.5 67t79 61t80.5 50.5q-25 14 -42 29t-19 33q-4 27 13.5 51t48 42.5t66 28.5t68.5 10q23 0 47.5 -5.5t41 -18t16.5 -34.5q0 -5 -1 -9q10 4 22 9t26 11l4 1h2q8 0 10 -11v-3q0 -13 -19 -20q-44 -14 -96 -37
t-120 -61q45 -17 83 -37.5t61.5 -46.5t23.5 -62q0 -53 -29.5 -95.5t-77.5 -72t-103.5 -45t-107.5 -15.5zM233 416q5 -19 20 -29t31 -20q46 27 73.5 42t48.5 25.5t47 21.5q2 7 3 13v6q0 15 -15.5 22.5t-36.5 10t-36 2.5q-36 0 -67 -11t-50.5 -29t-19.5 -41q0 -5 2 -13zM162 4
q42 0 87.5 13.5t85 39.5t64.5 61.5t25 78.5q0 31 -21 52t-56.5 39t-79.5 40q-14 -9 -40.5 -27t-57.5 -42.5t-59 -53t-46 -58t-18 -58.5q0 -44 33.5 -64.5t82.5 -20.5z" />
    <glyph glyph-name="nine" unicode="9" horiz-adv-x="444" 
d="M207 -49q-3 0 -7 3t-6 7q-5 11 -8 20q-2 8 -3 17t-1 18q0 32 9.5 65.5t23 64t25.5 52.5q23 39 51 84.5t70 98.5q-54 -44 -98.5 -73t-81.5 -40q-17 -6 -32.5 -8.5t-28.5 -2.5q-34 0 -52 17t-18 44q0 29 20.5 63.5t61.5 65.5q34 26 78 43t91 26.5t90.5 13t75.5 2.5
q21 0 21 -8q0 -7 -13 -14.5t-18 -7.5q-50 1 -109 -9t-111.5 -29t-84.5 -47q-30 -26 -44.5 -51.5t-14.5 -45.5q0 -17 10.5 -27.5t31.5 -10.5q23 0 57 15q38 17 82.5 48t88 68.5t77.5 73.5q4 4 14 4q11 0 25.5 -5t14.5 -16q0 -5 -5 -10q-11 -13 -31 -34t-43 -49
q-53 -60 -85.5 -107t-58.5 -86q-13 -19 -28 -49.5t-25 -64.5t-10 -65q0 -16 3 -30q1 -4 3 -7t2 -7v-2q0 -8 -9 -8z" />
    <glyph glyph-name="colon" unicode=":" horiz-adv-x="182" 
d="M103 141q-7 0 -12.5 11t-5.5 18q0 19 20 27q4 4 12 11.5t16.5 14t13.5 6.5q4 0 4 -6q0 -7 -6.5 -24.5t-8.5 -24.5q-4 -10 -11.5 -21.5t-21.5 -11.5zM52 -15q-9 0 -14 12t-5 19q0 9 6.5 15.5t13.5 9.5q5 5 17.5 12t25.5 13t19 6q1 0 3 -2q-4 -4 -8.5 -9t-8.5 -10
q-7 -9 -13 -25t-14 -28.5t-22 -12.5z" />
    <glyph glyph-name="semicolon" unicode=";" horiz-adv-x="176" 
d="M97 141q-7 0 -12.5 11t-5.5 18q0 19 20 27q4 4 12 11.5t16.5 14t13.5 6.5q4 0 4 -6q0 -7 -6.5 -24.5t-8.5 -24.5q-4 -10 -11.5 -21.5t-21.5 -11.5zM0 -146v1q12 18 28 41.5t28.5 48.5t12.5 46q0 7 -1.5 13t-1.5 12q0 8 7 21.5t15 13.5t14 -6.5t10 -12.5v1q1 -2 1 -5v-5
v-6q0 -19 -13 -40.5t-24 -37.5q-3 -5 -13 -18.5t-22 -29t-23.5 -26.5t-17.5 -11z" />
    <glyph glyph-name="less" unicode="&#x3c;" horiz-adv-x="318" 
d="M229 66l-8 4q-10 17 -23.5 31.5t-27.5 27.5q-15 14 -31 26t-30 25q-2 1 -2 6q0 4 11.5 21t29.5 40.5t37 47t34.5 42t21.5 24.5q5 5 9.5 8t10.5 3t6 -6q0 -4 -10 -19.5t-25.5 -36t-32 -41.5t-28.5 -36l-16 -20q3 -5 16.5 -24.5t29.5 -43t28 -42.5t12 -24q0 -4 -3.5 -9
t-8.5 -4z" />
    <glyph glyph-name="equal" unicode="=" horiz-adv-x="348" 
d="M80 227q-5 0 -11.5 9.5t-7.5 13.5l2 2q11 4 32.5 5t43 1h33.5q6 0 26 -0.5t43.5 -1.5t42.5 -4t23 -8q0 -6 -7 -6q-28 0 -55.5 -1.5t-54.5 -3.5q-28 -2 -55.5 -4t-54.5 -2zM71 124q-5 0 -11.5 9t-7.5 14l2 2q11 4 32.5 5t43.5 1.5t33 0.5q17 0 42 -0.5t49.5 -2.5t39.5 -9
q1 -1 2.5 -1t1.5 -2q0 -5 -7 -5q-28 0 -55 -2t-55 -4t-55 -4t-55 -2z" />
    <glyph glyph-name="greater" unicode="&#x3e;" horiz-adv-x="318" 
d="M103 49q-7 0 -7 6q0 4 10.5 19.5t26 36t32 41.5t29 36.5t15.5 19.5q-3 5 -16.5 24.5t-29.5 43t-28 43t-12 23.5q0 5 3 9.5t9 3.5l7 -4q23 -33 53 -58.5t59 -51.5q2 -2 2 -4q0 -5 -11.5 -22t-29 -40.5t-36.5 -47.5t-34 -42t-22 -25q-4 -4 -9 -7.5t-11 -3.5z" />
    <glyph glyph-name="question" unicode="?" horiz-adv-x="432" 
d="M158 139q-13 0 -16 12t-3 22q0 14 5 26t12 23q5 7 19.5 18t30 22t21.5 15q46 32 94 65t76 82q11 18 17.5 37.5t6.5 40.5q0 32 -15.5 49t-40 23.5t-51.5 6.5q-9 0 -18.5 -0.5t-18.5 -1.5q-31 -3 -66 -18.5t-59.5 -41.5t-24.5 -63q0 -4 0.5 -7.5t1.5 -7.5q4 -19 10 -29.5
t25 -16.5q-1 -7 -7.5 -10t-12.5 -3q-25 0 -42 23t-17 46q0 29 19.5 53t47 42.5t50.5 28.5q34 16 70 25t73 9q34 0 64 -10t49.5 -33t19.5 -62q0 -37 -24.5 -70t-50.5 -56q-40 -37 -86.5 -68t-91.5 -62q-29 -20 -42 -51q-5 -13 -8.5 -26.5t-8.5 -25.5q-2 -6 -8 -6zM100 -8
q-4 0 -9 8t-9 17t-4 13q0 3 2 4q14 4 26.5 7.5t25.5 8.5q8 3 23.5 8.5t24.5 5.5q8 0 8 -5q0 -2 -11 -12t-22.5 -20t-13.5 -12q-7 -6 -19 -14.5t-22 -8.5z" />
    <glyph glyph-name="at" unicode="@" horiz-adv-x="747" 
d="M259 -92q-76 0 -136.5 30.5t-95.5 87t-35 135.5q0 85 38.5 155.5t101 125.5t132.5 91q-20 -1 -41 -1.5t-41 -0.5h-30q-5 2 -5 6q0 8 13.5 11t17.5 4q30 6 61.5 7.5t62.5 1.5h45q3 0 5 1t5 2l47 11q34 7 68 10.5t68 3.5q35 0 69.5 -5.5t63.5 -19.5t46.5 -40.5t17.5 -68.5
q0 -27 -7.5 -52t-18.5 -49q20 -43 20 -89q0 -54 -21.5 -99.5t-57 -82.5t-77.5 -67q-70 -51 -149.5 -79.5t-166.5 -28.5zM686 393q5 16 8.5 32t3.5 32q0 44 -21 67.5t-54.5 32.5t-71.5 9q-35 0 -69.5 -5t-69.5 -13q51 -12 101.5 -32t95.5 -50t77 -73zM234 -63q80 0 154.5 27
t141.5 70q40 27 76.5 61t59.5 76.5t23 93.5q0 18 -5 40q-25 -52 -64.5 -101.5t-79.5 -90.5q-12 -13 -31.5 -32t-42.5 -37.5t-46 -31t-42 -12.5q-15 0 -23 11t-8 25q0 18 9 48t20 60t18 47q-10 -12 -28.5 -34.5t-42.5 -48t-49 -49t-48.5 -38.5t-40.5 -15q-13 0 -17 8t-4 19
q0 31 12.5 68.5t30 73.5t31.5 62q6 12 19.5 35t31 46.5t36.5 39.5t36 14q11 7 18.5 13t22.5 6q18 0 38.5 -8t31.5 -8q4 0 5 1q5 5 10.5 9.5t12.5 4.5q9 0 16 -3.5t7 -14.5q0 -4 -6 -18.5t-12.5 -29t-8.5 -19.5q-5 -2 -9.5 -5.5t-9.5 -7.5q-9 -19 -21.5 -50t-25.5 -65.5
t-21.5 -66t-8.5 -51.5q0 -6 2 -13t10 -7q13 0 32 15t39 37t36.5 41.5t23.5 28.5q35 43 68.5 89.5t56.5 96.5q-30 58 -85 94.5t-120.5 56.5t-125.5 28q-58 -18 -113 -56.5t-98.5 -90t-69.5 -112t-26 -123.5q0 -96 53.5 -151.5t150.5 -55.5zM222 53q14 0 37 19t48 45.5
t45.5 50t27.5 33.5q7 9 20 28.5t26.5 43.5t23 45.5t9.5 32.5q0 5 -2.5 4.5t-4.5 -0.5h-2l-4 1l-7 1l-29 3q-9 0 -17.5 -1.5t-16.5 -3.5q-9 -3 -21.5 -17t-25.5 -32.5t-23 -34.5l-15 -24q-13 -22 -29 -51t-29 -58.5t-18 -55.5q-1 -4 -1.5 -8t-0.5 -8t2 -8.5t7 -4.5z" />
    <glyph glyph-name="A" unicode="A" horiz-adv-x="594" 
d="M-16 -31q-4 0 -10 1t-6 7q0 3 6.5 13.5t13.5 21.5t9 15q3 5 4.5 10.5t3.5 9.5q2 7 12 7q4 0 6 -1q18 31 39.5 65t39.5 61t24 35q-10 0 -21 -1t-23 -1q-7 0 -18.5 2t-11.5 9q0 1 0.5 1.5t0.5 1.5q8 23 17.5 27.5t31.5 4.5h26.5t26.5 -2q46 67 82 114.5t67.5 84t63.5 68.5
t70 67q-1 5 -2.5 11.5t-1.5 11.5q0 8 13 17.5t19 9.5q4 0 7.5 -1.5t4.5 -8.5q3 -24 6 -65.5t5.5 -92.5t4 -103.5t1.5 -98.5v-34h4q2 0 12.5 -0.5t10.5 -3.5q0 -8 -12.5 -11.5t-15.5 -3.5q0 -34 -1 -64t-3 -63q-1 -16 -2 -32.5t-3 -33.5q-1 -6 -9 -15.5t-17.5 -17t-16.5 -7.5
q-4 0 -4 4q0 2 2.5 25.5t5.5 45.5q1 4 2.5 27.5t3.5 58t2 70.5q-24 0 -103.5 -0.5t-196.5 -0.5q-7 -10 -20 -29.5t-26.5 -40.5t-22.5 -38q-14 -24 -31.5 -52.5t-31.5 -53.5q-2 -4 -9.5 -17t-14.5 -13h-1t-2 1q-3 -2 -11 -2zM456 236q0 20 -0.5 62t-2 91.5t-4 95t-5.5 73.5
q-12 -6 -34.5 -29.5t-52 -57.5t-60.5 -73.5t-59.5 -78t-49.5 -69.5q8 -2 17.5 -5t15.5 -7q14 1 32 0.5t37 -0.5q42 0 83.5 -0.5t82.5 -1.5z" />
    <glyph glyph-name="B" unicode="B" horiz-adv-x="608" 
d="M119 -74q-29 0 -46.5 37t-17.5 106q0 38 9.5 93.5t24.5 118.5t33.5 122.5t37 107t33.5 72.5q-13 3 -28 4.5t-18 6.5q-5 8 4.5 15t33.5 7h10t11 -1q5 8 10.5 15t15.5 7t14 -9.5t4 -20.5q30 -7 72 -22.5t83.5 -38.5t69 -53.5t27.5 -69.5q0 -37 -24 -65t-59 -47.5t-69 -31.5
t-54 -18q65 0 122 -16t92.5 -47t35.5 -76q0 -37 -24 -64.5t-65 -45.5t-92 -26.5t-105 -8.5h-17.5t-17.5 1q-20 1 -42.5 3t-36.5 5q-5 1 -13 5.5t-8 13.5q0 11 13 8q17 -4 37.5 -8t51.5 -7q10 -1 21 -1.5t22 -0.5q38 0 78.5 7t74.5 21.5t55 36.5t21 53q0 26 -17 46
t-42.5 34.5t-52.5 24t-47 13.5q-27 6 -55 8.5t-56 2.5q-32 0 -64 -3.5t-43 -5.5q-5 -22 -13 -59.5t-14 -78.5t-6 -73q0 -37 12.5 -59.5t23.5 -24.5q4 0 4 -4q0 -9 -10 -9zM129 259q25 0 66.5 5t87.5 16.5t86.5 29.5t66.5 44t26 60q0 33 -25.5 59.5t-63.5 46t-76 32.5t-64 19
q-34 -76 -58.5 -154t-45.5 -158z" />
    <glyph glyph-name="C" unicode="C" horiz-adv-x="653" 
d="M305 -21q-90 0 -149 35t-87.5 90t-28.5 113q0 72 25 142.5t73.5 128t118.5 92t161 34.5q65 0 107 -19t62.5 -49.5t20.5 -65.5q0 -38 -13.5 -54t-30.5 -16q-13 0 -19.5 11.5t-6.5 20.5q0 19 7 28t13.5 17.5t6.5 25.5q0 33 -43 55.5t-111 22.5q-63 0 -121 -25t-102.5 -72.5
t-70.5 -115.5t-26 -153q0 -58 23 -109t71 -82.5t123 -31.5q89 0 159.5 45t117.5 115q8 11 15 11q6 0 6 -7q0 -9 -4 -16q-51 -90 -125.5 -130.5t-171.5 -40.5z" />
    <glyph glyph-name="D" unicode="D" horiz-adv-x="728" 
d="M109 -74q-17 0 -29 15.5t-18.5 35.5t-8.5 33q-3 29 -3 59q0 53 10.5 118.5t28.5 134t40.5 130.5t46.5 108q-6 -2 -11 -2q-4 0 -9 2t-5 7q0 8 8.5 13.5t19.5 8.5t16 4q3 5 7.5 15.5t11 19.5t13.5 9q10 0 15 -7.5t5 -15.5q0 -4 -0.5 -8.5t-1.5 -8.5h19q49 0 104 -8.5
t108.5 -28t100 -52t77.5 -80.5q18 -28 28 -59t10 -64q0 -63 -30 -115t-80 -91.5t-110.5 -66.5t-122.5 -41t-116 -14q-20 0 -46 3t-44 13q-2 1 -11.5 6.5t-9.5 10.5q0 2 3 2.5t4 0.5q12 0 26 -7q32 -9 62 -9q44 0 97.5 13.5t107.5 37t99 54.5t71 67q26 34 45.5 76.5
t19.5 85.5q0 48 -23 84t-59.5 61.5t-79.5 42t-83 25.5q-37 8 -74 11t-75 3q-10 0 -20 -0.5t-21 -1.5q-18 -40 -37 -94t-37 -114.5t-32.5 -120t-23 -111.5t-8.5 -88v-14.5t1 -15.5q2 -13 4.5 -24.5t10.5 -22.5q6 -7 12 -8.5t11 -6.5q1 0 1 -2q0 -3 -6 -5.5t-9 -2.5z" />
    <glyph glyph-name="E" unicode="E" horiz-adv-x="504" 
d="M196 -15q-45 0 -84.5 5.5t-52.5 15.5q-6 6 -7.5 17.5t-1.5 18.5q0 24 4.5 54.5t10.5 59.5t10.5 49.5t4.5 25.5q0 8 -8 11.5t-8 11.5t9.5 8.5t15.5 1.5q4 13 11 45t15.5 72t15.5 79.5t12 69.5t5 40q0 9 -9.5 9h-19.5t-10 9q0 10 11.5 14t26.5 5.5t26 1.5q56 0 111 -5
t111 -5h5q14 0 19.5 4t8.5 8t8 4q6 0 17 -7.5t11 -14.5q0 -4 -2 -5t-4 -3q-24 -16 -30.5 -43.5t-13.5 -52.5q-1 -3 -2.5 -9t-6.5 -6q-4 0 -5.5 6t-1.5 10q0 10 2.5 27t5.5 34.5t6 26.5q-1 -1 -10 -1q-14 0 -41.5 2t-56 4t-46.5 2q-8 0 -27 -0.5t-26 -5.5q-2 -1 -7.5 -23.5
t-13.5 -57t-16.5 -73t-16 -74t-12 -60t-4.5 -28.5t15 -5t30 -1h101q18 0 41 -0.5t40.5 -3.5t17.5 -9q0 -4 -14 -7t-28.5 -4t-18.5 -2q-34 -2 -69 -3.5t-70 -1.5h-56q-6 -15 -12 -41t-10 -54.5t-4 -53.5q0 -27 6 -42q4 -9 21.5 -13.5t42 -6t49.5 -1.5q47 0 81 2t69 7.5
t85 14.5q10 0 10 -6q0 -7 -10 -10.5t-12 -4.5q-22 -9 -61 -16t-86.5 -11.5t-96.5 -4.5z" />
    <glyph glyph-name="F" unicode="F" horiz-adv-x="455" 
d="M62 -33q-8 0 -10 12t-2 22q0 15 3.5 42.5t9.5 61t12.5 66.5t11.5 57h-2.5h-0.5q0 8 -7 13t-7 13t10 8.5t16 1.5q4 13 10.5 45t14 72t14.5 79.5t11.5 69.5t4.5 40q0 9 -9.5 9h-19.5t-10 9q0 10 11.5 14t26.5 5.5t26 1.5q56 0 111.5 -5t110.5 -5h6q14 0 19 4t8 8t8 4
q7 0 17.5 -7.5t10.5 -14.5q0 -4 -2 -5t-4 -3q-24 -16 -30.5 -43.5t-13.5 -52.5q-1 -3 -2.5 -9t-6.5 -6q-4 0 -5.5 6t-1.5 10q0 10 2.5 27t5.5 34.5t6 26.5q-1 -1 -10 -1q-14 0 -41.5 2t-56 4t-46.5 2q-8 0 -27 -0.5t-26 -5.5q-2 -1 -7.5 -23t-13.5 -56.5t-16.5 -73t-16 -74
t-12 -59.5t-4.5 -28q0 -5 16.5 -6.5t31.5 -1.5h102q18 0 41 -0.5t40.5 -3.5t17.5 -9q0 -4 -14 -7t-29 -4t-19 -2q-34 -2 -69 -3.5t-69 -1.5h-32t-28 1q-14 -59 -22.5 -107.5t-8.5 -78.5q0 -13 3.5 -16t6.5 -5t3 -12q0 -7 -9 -16.5t-20 -17t-18 -7.5z" />
    <glyph glyph-name="G" unicode="G" horiz-adv-x="731" 
d="M540 -47q-6 0 -7 5t-1 8q0 13 5 37.5t12 51t13 48t8 29.5q-49 -68 -120.5 -109t-164.5 -41q-76 0 -128.5 35.5t-79.5 92t-27 119.5q0 68 25 136t73.5 124.5t118.5 90.5t161 34q41 0 84.5 -12t83.5 -42q3 11 3.5 20t0.5 16v12t-1 9v1q0 6 9 6q8 0 11.5 -10t3.5 -25
q0 -11 -1.5 -23.5t-3.5 -23.5q7 -9 13.5 -20.5t6.5 -24.5q0 -2 -0.5 -6.5t-4.5 -4.5q-7 0 -12 11.5t-10 15.5q-1 -9 -4.5 -27t-7.5 -39t-8.5 -38.5t-8.5 -24.5q-4 -8 -15 -8q-7 0 -15 2.5t-8 11.5q0 12 6 32t10 31q5 16 14.5 41t12.5 40q-33 29 -80.5 43t-85.5 14
q-63 0 -121 -25t-102.5 -72.5t-70.5 -115.5t-26 -153q0 -58 23 -107t68.5 -79t114.5 -30q47 0 94.5 19.5t89 52.5t70.5 75.5t40 87.5q-31 -2 -66 -6.5t-66 -8t-52 -3.5q-9 0 -17 3.5t-8 12.5q0 12 11.5 22t15.5 8q6 -2 20 -4t33 -2q28 0 72 2t92.5 4.5t87.5 4.5
q2 0 5.5 -0.5t3.5 -2.5q0 -6 -12.5 -9.5t-29 -6.5t-30.5 -6.5t-17 -8.5q-4 -7 -7 -16.5t-6 -17.5q-8 -20 -20 -52.5t-21.5 -66t-9.5 -55.5q0 -16 5 -20t10 -4.5t5 -8.5q0 -11 -9.5 -20.5t-19.5 -14.5q-5 -3 -15.5 -8.5t-15.5 -5.5z" />
    <glyph glyph-name="H" unicode="H" horiz-adv-x="713" 
d="M56 -22q-6 0 -6 7v3q11 55 23 109t22 109q-6 1 -19.5 4.5t-13.5 11.5q0 6 8 8t17 2.5t12 0.5q9 44 16.5 78t14 68t14 73.5t17.5 93.5q2 8 0 18t-2 19q0 5 1 7q2 7 12 10.5t22 4.5t18 1q3 0 7.5 -1.5t4.5 -6.5q0 -2 -2 -6q-4 -11 -11 -38.5t-15 -63.5q-10 -46 -21.5 -98.5
t-20 -96t-11.5 -64.5q49 -1 99 -1.5t98 -0.5q51 0 99.5 1t99.5 3q11 55 21.5 102.5t19.5 99.5q6 29 11 57.5t8 56.5v5q0 5 -0.5 11.5t-0.5 12.5q0 8 1 11q2 6 14 10t25 5.5t18 1.5t6 -3t1 -8q0 -3 -1 -5q-3 -13 -11 -46t-18.5 -77t-20.5 -89.5t-18 -83.5t-11 -60
q6 0 20.5 -0.5t27.5 -3t13 -8.5q0 -4 -14.5 -7t-30 -5t-20.5 -3q-7 -26 -14 -65t-11.5 -75t-7.5 -54q-1 -10 -18 -22.5t-26 -12.5q-4 0 -8 1t-4 6q0 6 3.5 20.5l7 29t4.5 20.5q5 25 9.5 45.5t9 44.5t10.5 59q-2 0 -23.5 0.5t-53 1t-64.5 0.5h-59h-74.5t-75.5 -2
q-8 0 -23.5 -0.5t-23.5 -2.5q-2 -4 -6.5 -28.5t-9.5 -56t-9 -59.5t-6 -39q-4 -20 -22.5 -30t-27.5 -10z" />
    <glyph glyph-name="I" unicode="I" horiz-adv-x="368" 
d="M32 -14q-3 0 -14.5 0.5t-21.5 2.5t-10 7t11 7.5t26.5 4t28.5 2t17 0.5q3 0 18.5 1.5t19.5 6.5q3 13 11 49.5t18 87t21 105t21 104.5t17 85.5t9 47.5q6 47 8 60.5t0 20.5q-37 0 -85 -6h-5q-7 0 -16 2t-9 7q0 4 6 5.5t7 2.5q17 6 38.5 9t39.5 5t24 3q9 6 26 11t26 5
t10 -6.5t1 -8.5h26q9 0 30 -1t40.5 -5.5t23.5 -13.5q2 -4 2 -7t-5 -3q-8 0 -17 1t-18 1q-13 0 -27.5 0.5t-28.5 0.5q-7 0 -20.5 -1.5t-15.5 -7.5q-14 -55 -29 -124.5t-29 -140.5t-25.5 -133t-18 -103.5t-6.5 -51.5q0 -3 13 -4t15 -1q20 -2 46 -4t45 -8l2.5 -1t2.5 -3
q0 -4 -9.5 -6t-20 -2.5t-13.5 -0.5q-22 0 -43.5 0.5t-42.5 0.5q-30 0 -60 -1.5t-60 -1.5z" />
    <glyph glyph-name="J" unicode="J" horiz-adv-x="371" 
d="M-65 -205q-52 0 -82 34t-30 90q0 19 9 19q6 0 7 -12q4 -23 16 -49.5t33 -45t51 -18.5q34 0 62 22t51 59t41.5 82.5t31.5 92.5q8 27 17.5 73.5t21 104.5t22.5 119t22 116t20 96q-47 0 -95 -6l-7 -1q-8 0 -14.5 3t-6.5 7t8.5 6.5t9.5 3.5q14 5 34 7.5t38.5 4.5t27.5 3
q6 6 23.5 11t25.5 5q11 0 10.5 -6t3.5 -7q3 -1 12.5 -1.5t20.5 -1.5q6 0 24 -1.5t36.5 -5.5t23.5 -12q4 -3 4 -7q0 -3 -5 -3q-8 0 -26.5 1t-49.5 1q-14 0 -31 -1t-20 -7q-16 -62 -30 -132.5t-27.5 -141t-27 -134.5t-28.5 -113q-20 -66 -50.5 -124.5t-74 -94.5t-102.5 -36z
" />
    <glyph glyph-name="K" unicode="K" horiz-adv-x="564" 
d="M475 -40q-35 0 -73 19.5t-76 52t-72.5 71t-62.5 78t-47 72.5q-3 -13 -8 -41t-10.5 -61t-10 -62t-7.5 -44q-1 -7 -0.5 -13.5t-1.5 -13.5q-2 -12 -17 -25.5t-29 -13.5q-10 0 -10 9q0 3 5.5 27t9.5 46q1 3 6 28.5t12.5 64t16 80.5t16 79.5t12.5 61l5 23.5q8 37 14.5 74
t13.5 74q1 3 1 8q0 8 -1.5 15.5t-1.5 16.5t10.5 13.5t23.5 5.5t19 1q4 0 8 -2.5t4 -5.5q0 -11 -6 -26q-4 -13 -11 -41t-15 -61q-13 -54 -23.5 -98.5t-18.5 -85.5q14 12 45 41t73 68t86.5 80t85.5 76t70.5 57t39.5 22q6 0 6 -7q0 -13 -10.5 -25.5t-20.5 -19.5q-8 -6 -35 -27
t-61 -49t-65 -56q-56 -50 -103.5 -96.5t-79.5 -79.5q25 -37 52.5 -76t61.5 -74q12 -13 34.5 -36.5t49 -47.5t52 -40.5t44.5 -16.5q8 0 16.5 3t17.5 3q2 0 5.5 -0.5t3.5 -2.5q0 -6 -9 -11t-19 -8t-15 -3z" />
    <glyph glyph-name="L" unicode="L" horiz-adv-x="447" 
d="M192 -15q-18 0 -43.5 1t-49 5.5t-35.5 14.5q-6 6 -7.5 16t-1.5 15q0 21 7 62.5t17.5 95t22.5 110t22.5 108.5t17.5 91.5t7 56.5q0 5 -3 6.5t-13 2.5q-9 1 -15.5 1.5t-6.5 7.5q0 14 26 18t56 4q6 0 13 -2t7 -10q0 -5 -2 -9.5t-3 -9.5q-7 -20 -17 -61t-21 -90t-21 -95.5
t-16 -78.5q-10 -45 -18 -92t-8 -85q0 -9 0.5 -17t1.5 -16t15.5 -12.5t34 -6t37.5 -2t26 -0.5q26 0 56 1.5t63 5.5q26 3 48 10t32 10h2q8 0 8 -7q0 -9 -23 -17.5t-60 -16t-78.5 -11.5t-77.5 -4z" />
    <glyph glyph-name="M" unicode="M" horiz-adv-x="794" 
d="M10 -42q-15 0 -15 17q0 9 6.5 29t14 40t11.5 29q8 21 28 66.5t46 104.5t54 121.5t53.5 117.5t44.5 91v7q0 20 22 20q15 0 26 -11q2 -2 2 -9v-9q0 -10 -1 -19.5t-2 -18.5q-5 -58 -8.5 -112.5t-3.5 -102.5q0 -101 16.5 -164.5t53.5 -63.5q18 0 41.5 22.5t49 60t51.5 81
t48.5 86.5t39 77.5t24.5 52.5l28 63q15 34 21 51.5t14 24.5t29 7h4q7 0 13 -1.5t4 -8.5q-21 -56 -36.5 -124.5t-24 -140.5t-8.5 -141q0 -52 5.5 -100t17.5 -86q1 -3 1 -8q0 -10 -7.5 -14t-15.5 -4q-9 0 -18 13t-14 38q-4 19 -7 61t-3 105q0 128 26 253q-40 -81 -81 -155
t-80.5 -131t-76 -90t-69.5 -33q-32 0 -51.5 41t-28.5 108t-9 144q0 46 3 93t8 90q-10 -24 -31.5 -74t-49 -114t-56 -132t-52.5 -128.5t-38 -103.5q-4 -16 -19 -16z" />
    <glyph glyph-name="N" unicode="N" horiz-adv-x="664" 
d="M56 -70q-5 0 -7 6t-2 10v4q0 54 10 124.5t26 150.5t35.5 161.5t38.5 156.5q1 1 1 4q0 4 -1 8.5t-1 8.5q0 8 11.5 22t18.5 14q5 0 17 -10t23 -40q13 -35 34.5 -84t49 -104.5t59.5 -111.5t66 -106t68 -86q0 37 2.5 90t8 114t14.5 121.5t22.5 112.5t30.5 86q6 12 13.5 18
t12.5 6q9 0 9 -12q0 -5 -2 -12t-5 -15q-18 -45 -30.5 -108.5t-21 -133t-12.5 -134t-4 -112.5q0 -10 1 -23.5t4 -16.5q3 -2 4 -2.5t1 -6.5t-4 -19t-11 -24t-15 -11q-18 0 -35 18.5t-37 46.5q-25 32 -57 82.5t-65.5 110.5t-64 120t-53.5 110q-12 24 -18.5 34t-10.5 10
q-5 0 -8 -10.5t-6 -24.5q-1 -7 -8 -37.5t-16.5 -73t-18.5 -84.5q-16 -80 -25.5 -165t-9.5 -153q0 -7 -11 -18.5t-21 -11.5z" />
    <glyph glyph-name="O" unicode="O" horiz-adv-x="730" 
d="M304 -21q-91 0 -149.5 36t-86.5 95.5t-28 127.5q0 66 25.5 132.5t74 122.5t119 89.5t161.5 33.5q92 0 150.5 -36t87 -94.5t28.5 -126.5q0 -66 -25.5 -133.5t-74.5 -123t-120 -89.5t-162 -34zM309 0q77 0 137.5 32t102.5 84.5t64 116t22 125.5q0 63 -23.5 116.5t-73.5 86
t-128 32.5q-76 0 -135 -32t-100 -84t-62 -114.5t-21 -124.5q0 -63 23 -117.5t71 -87.5t123 -33z" />
    <glyph glyph-name="P" unicode="P" horiz-adv-x="535" 
d="M56 -16q-6 0 -6 10q0 23 7.5 72t20 113.5t27 135t29.5 137t27 118.5q3 13 -4.5 21.5t-7.5 15.5q0 5 4 10t15 5q8 0 27 -2.5t33 -5.5q43 -9 90.5 -25.5t89.5 -42t67 -61.5q11 -15 17.5 -32t6.5 -35q0 -33 -18 -58t-46.5 -43t-60 -30t-57.5 -19q-46 -12 -93 -18t-92 -6
q-3 -14 -9.5 -46t-13 -70.5t-9.5 -73.5v-15t-1 -16q-1 -5 -9.5 -14.5t-18 -17t-15.5 -7.5zM135 263q34 0 73 5t73 12q24 5 53.5 14t57 24t45 37t17.5 53q0 38 -25 68t-63.5 51.5t-79.5 34t-74 15.5l-43 -159q-11 -49 -20.5 -91.5t-13.5 -63.5z" />
    <glyph glyph-name="Q" unicode="Q" horiz-adv-x="734" 
d="M304 -21q-91 0 -149.5 36t-86.5 95.5t-28 127.5q0 66 25.5 132.5t74 122.5t119 89.5t161.5 33.5q92 0 150.5 -36t87 -94.5t28.5 -126.5q0 -66 -25.5 -133.5t-74.5 -123t-120 -89.5t-162 -34zM309 0q77 0 137.5 32t102.5 84.5t64 116t22 125.5q0 63 -23.5 116.5t-73.5 86
t-128 32.5q-76 0 -135 -32t-100 -84t-62 -114.5t-21 -124.5q0 -63 23 -117.5t71 -87.5t123 -33zM675 -287q-8 0 -17 0.5t-17 1.5q-49 8 -101 29t-101 48.5t-93 51.5q-23 13 -56.5 32.5t-67.5 35.5t-61 16h-3q-23 0 -33.5 -7t-10.5 -31q0 -4 -1 -8.5t-7 -4.5q-7 0 -10.5 9
t-3.5 15q0 23 21.5 42t44.5 19q35 0 78.5 -17t89 -42.5t87.5 -51.5t72 -43q35 -19 71.5 -37.5t75.5 -30.5q16 -4 33 -8.5t33 -4.5q22 0 36.5 11.5t25 23t17.5 11.5q2 0 3.5 -3t1.5 -5q0 -5 -2.5 -9t-5.5 -8q-16 -19 -45 -27t-54 -8z" />
    <glyph glyph-name="R" unicode="R" horiz-adv-x="537" 
d="M56 -16q-6 0 -6 10q0 23 7.5 72t20 113.5t27 135t29.5 137t27 118.5q3 13 -4.5 21.5t-7.5 15.5q0 5 4 10t15 5q8 0 27 -2.5t33 -5.5q43 -9 90.5 -25.5t89.5 -42t67 -61.5q11 -15 17.5 -32t6.5 -35q0 -33 -18 -58t-46.5 -43t-60 -30t-57.5 -19q-64 -17 -131 -22
q17 -27 39 -56t42.5 -54t32.5 -38q23 -25 50.5 -49.5t57.5 -40t60 -15.5q17 0 21 3.5t8 3.5q2 0 2 -3q0 -4 -1 -8q-3 -8 -15.5 -17.5t-38.5 -9.5q-40 0 -78.5 23t-77 63t-77.5 90.5t-79 104.5q-3 -15 -9.5 -46.5t-13 -70t-9.5 -72.5v-15t-1 -16q-1 -5 -9.5 -14.5t-18 -17
t-15.5 -7.5zM135 263q34 0 73 5t73 12q24 5 53.5 14t57 24t45 37t17.5 53q0 38 -25 68t-63.5 51.5t-79.5 34t-74 15.5l-43 -159q-11 -49 -20.5 -91.5t-13.5 -63.5z" />
    <glyph glyph-name="S" unicode="S" horiz-adv-x="448" 
d="M119 -30q-28 0 -58.5 5.5t-51.5 17.5t-21 31q0 2 2.5 5.5t4.5 0.5q13 -14 35.5 -22.5t48 -12t47.5 -3.5q46 0 84.5 12.5t61.5 38t23 63.5q0 33 -21 60.5t-51.5 55t-61 57.5t-51.5 66.5t-21 84.5q0 37 20.5 69.5t55 57.5t75.5 39t82 14q48 0 72 -18t24 -66
q0 -29 -12 -54.5t-32 -25.5q-4 0 -8 3.5t-3 10.5q2 20 4 37t2 30q0 32 -10.5 48.5t-39.5 16.5q-45 0 -86.5 -20.5t-68.5 -56t-27 -79.5q0 -34 21 -65t51.5 -60t61.5 -58.5t52 -60.5t21 -66q0 -54 -34 -88.5t-85.5 -51t-105.5 -16.5z" />
    <glyph glyph-name="T" unicode="T" horiz-adv-x="454" 
d="M151 -18q-8 0 -8 8v0.5t1 1.5q8 17 11 34.5t4 38.5q2 9 9 8q2 16 10 55t18.5 91.5t22 109.5t21.5 108.5t16 88.5t6 49q-5 3 -26 4t-48 1q-30 0 -62 -1t-57.5 -1.5t-36.5 -0.5q-8 0 -8 8q0 12 16 15.5t23 4.5q15 1 47 1.5t70 1t71.5 0.5h50.5h224q8 0 8 -6
q0 -9 -10.5 -14.5t-17.5 -6.5t-19.5 -2t-26.5 -1q-20 0 -47 1t-50 1q-17 0 -29.5 -1t-17.5 -4q-8 -32 -19 -80t-23 -102.5t-22.5 -107.5t-19 -96t-13.5 -67q-7 -38 -10.5 -72.5t-3.5 -43.5q0 -4 -10 -8t-21 -7t-15 -4q-2 -5 -8 -5z" />
    <glyph glyph-name="U" unicode="U" horiz-adv-x="672" 
d="M268 -16q-105 0 -146 53t-41 147q0 41 6.5 89t16.5 101q11 53 24.5 110.5t29.5 117.5q2 8 5.5 10t7.5 2q7 0 18 -2.5t19 -6.5t5 -11q-9 -27 -27 -90t-34 -138q-10 -51 -17 -98.5t-7 -88.5q0 -52 14 -91t47.5 -61t90.5 -22q73 0 121 44t80.5 120.5t57.5 173.5
q17 65 29.5 126t20 105.5t9.5 56.5q1 5 8 6t11 1q8 0 23 -5.5t13 -16.5q-10 -52 -28 -128t-41 -151q-33 -109 -72 -188.5t-96.5 -122t-147.5 -42.5z" />
    <glyph glyph-name="V" unicode="V" horiz-adv-x="555" 
d="M160 -20q-11 0 -15 15t-4.5 32.5t-1.5 23.5q-11 77 -21.5 152t-17 159t-6.5 188q0 20 0.5 34.5t1.5 25.5q1 5 4.5 6.5t6.5 1.5q8 0 21 -5.5t13 -15.5q-1 -16 -1 -32v-33q0 -119 10.5 -244t29.5 -235q23 23 51.5 58t59.5 75t59.5 80t51.5 74.5t35 57.5q12 22 28 52
t31.5 60t27.5 53t16 31q12 23 20.5 34.5t15.5 11.5t7 -12t-7 -31q-31 -85 -86.5 -176.5t-123 -181t-136.5 -170.5q-13 -15 -24 -28.5t-12 -15.5q-7 -16 -9 -24.5t-19 -19.5q-1 -1 -3.5 -1h-2.5z" />
    <glyph glyph-name="W" unicode="W" horiz-adv-x="884" 
d="M163 -44q-14 0 -15 17t-3 36q-4 66 -11.5 142.5t-17.5 154t-21 147t-23 121.5q-5 17 -13 13h-2q-4 0 -6.5 4t1.5 7q17 9 26.5 15.5t16.5 7.5q3 1 7 1q10 0 13.5 -8t7.5 -28q15 -78 27.5 -171.5t22.5 -187.5t16 -174q70 109 128 211t104 210q10 23 10 32q0 10 -5.5 12.5
t-5.5 11.5q0 7 6.5 18t15.5 20t16 9q5 0 8 -3.5t4 -7.5q51 -126 89 -259t57 -258q1 -4 3 -4q4 0 10 17q23 56 51.5 122t58.5 132t58 125.5t51 104t37 66.5q13 19 19 19q8 0 9.5 -7.5t1.5 -11.5q0 -10 -3.5 -19.5t-9.5 -19.5q-12 -21 -33 -61.5t-47 -93t-53 -109.5
t-52.5 -112.5t-46 -103t-32.5 -79.5q-5 -14 -17 -29t-29 -15q-16 0 -18 15.5t-2 26.5q0 15 -6 49t-16 79.5t-22.5 95.5t-26 96t-26 81t-23.5 51q-42 -82 -79 -153.5t-75 -140t-83 -143.5q-15 -25 -20 -40.5t-10.5 -23t-21.5 -7.5z" />
    <glyph glyph-name="X" unicode="X" horiz-adv-x="552" 
d="M-52 -63q-5 0 -7 7t0 14q8 19 25.5 46t39.5 53q35 42 77 84t83 81t72 69q-14 24 -32 60.5t-36.5 77t-35.5 77t-29 60.5q-5 9 -9 14.5t-10 5.5q-8 0 -8 6t7 11q20 13 36 13q8 0 15.5 -4.5t12.5 -15.5q4 -10 16.5 -38t29 -64.5t33.5 -72.5t30 -63.5t19 -35.5q22 19 57.5 52
t76 75.5t76.5 87.5q38 46 58.5 74.5t32.5 28.5q3 0 5 -3.5t2 -7.5q0 -18 -13.5 -41.5t-31.5 -45t-30 -34.5q-18 -21 -50 -52t-67.5 -64t-63.5 -59.5t-39 -37.5q20 -34 41 -72t40.5 -71.5t34.5 -53.5q36 -48 52 -60t21 -11h4q6 0 6 -6t-3 -8q-7 -5 -12 -10t-8 -7
q-6 -4 -11 -7t-13 -3q-13 0 -29 17t-33 43.5t-35 54.5q-30 47 -53.5 90.5t-38.5 71.5q-14 -12 -42 -39t-63 -62t-71 -73.5t-66.5 -75t-48.5 -64.5q-7 -12 -14 -12z" />
    <glyph glyph-name="Y" unicode="Y" horiz-adv-x="500" 
d="M155 -22q-7 0 -7 7v3q7 32 14 64.5t14 63.5q5 23 9 45.5t8 44.5q2 8 4 18t3 20q1 3 1 6.5v6.5q0 10 -2.5 22.5t-8.5 27.5q-12 30 -28 66l-32 72t-30.5 67t-23.5 50q-4 9 -8.5 15.5t-10.5 6.5q-7 0 -7 6t6 12q9 6 18.5 10t17.5 4q20 0 28 -22q5 -11 18.5 -43t31 -73.5
t34.5 -79.5q10 -24 18 -41t16 -36q3 -8 6 -8q4 0 13 11q23 25 52.5 58t59.5 67t56 63t43 46q24 24 43.5 37t35.5 17q4 2 10 2q15 0 15 -10q0 -5 -10 -13q-7 -6 -16 -13t-14 -12q-9 -6 -38 -33t-70 -69q-37 -38 -77 -82t-76 -86q-7 -9 -14 -23.5t-13 -38.5
q-6 -29 -12.5 -65.5t-9.5 -54.5l-14 -96q-2 -13 -13 -22t-22.5 -13.5t-17.5 -4.5z" />
    <glyph glyph-name="Z" unicode="Z" horiz-adv-x="587" 
d="M72 -5q-11 0 -19 2t-11 3q-6 4 -16 13.5t-10 19.5q0 8 3 15q9 21 46.5 61.5t91 92t110.5 105.5q44 42 86 82.5t76.5 75.5t57 61t27.5 38q2 5 -11.5 10.5t-49.5 8.5q-22 3 -66 3q-43 0 -97.5 -5t-99.5 -19q-21 -6 -39.5 -13.5t-25.5 -15.5q-6 0 -8.5 4.5t-2.5 9.5
q0 8 8 23t13 19q11 8 48.5 12.5t89 6.5t103.5 2q64 0 115 -3t63 -8q10 -4 13.5 -18.5t3.5 -24.5q-12 -28 -55 -71.5t-101 -96t-119 -106.5q-55 -50 -104.5 -98.5t-81 -88.5t-35.5 -65q47 2 93 3.5t89 1.5q69 0 126.5 -3t94.5 -8q4 0 14.5 -2t20 -6t9.5 -10q0 -5 -7 -6.5
t-10 -1.5q-33 2 -90 3.5t-119 1.5q-58 0 -114 -1.5t-96 -5.5q-4 0 -7.5 -0.5t-6.5 -0.5z" />
    <glyph glyph-name="bracketleft" unicode="[" horiz-adv-x="320" 
d="M182 -17h-35.5t-48 3t-43 10.5t-21.5 22.5q-2 8 -2.5 17.5t-0.5 17.5q0 39 10.5 94.5t28.5 119.5t42.5 129.5t53 125t59 105.5t60.5 71q14 11 32.5 15t35.5 4q8 0 26 -0.5t38.5 -2.5t36 -6t18.5 -12q1 -2 1 -6v-7q-3 -1 -6.5 -1h-7.5q-20 0 -40.5 2t-42.5 2
q-10 0 -22.5 -1t-20.5 -6q-13 -7 -28.5 -27t-24.5 -33q-23 -34 -50 -85.5t-53.5 -112t-48.5 -122t-35 -117t-13 -96.5q0 -46 21 -64.5t66 -18.5q19 0 37 2.5t37 2.5q6 0 18.5 -2t12.5 -10q0 -6 -12 -9t-28.5 -4t-30.5 -1h-19z" />
    <glyph glyph-name="backslash" unicode="\" horiz-adv-x="647" 
d="M617 -94q-1 5 -4 9t-5 8q-31 46 -59 93t-57 94q-53 86 -107 170.5t-111 167.5q-45 66 -93.5 131t-104.5 122q2 5 6 5.5t8 0.5q20 0 40 -14t39 -34.5t35.5 -41.5l27.5 -35q52 -66 96.5 -138t87.5 -144q53 -88 104.5 -177t104.5 -177q6 -9 6 -18q0 -14 -14 -22z" />
    <glyph glyph-name="bracketright" unicode="]" horiz-adv-x="496" 
d="M160 -17q-7 0 -25 0.5t-38.5 2.5t-36.5 6.5t-18 11.5l-2 11q0 3 3 3.5t4 0.5q20 0 40.5 -2.5t39.5 -2.5q11 0 27.5 1t26.5 6q12 8 28 28t24 32q23 34 50.5 86t54 112t48.5 122t35 117.5t13 96.5q0 46 -21.5 64t-65.5 18q-11 0 -22 -1t-22 -1q-5 0 -17.5 2t-12.5 10
q0 9 15.5 11t25.5 2h30q24 0 54.5 -2t54.5 -10t27 -25q2 -9 2 -18v-18q0 -39 -10 -94.5t-28.5 -119.5t-43 -129.5t-52.5 -124.5t-58.5 -105t-61.5 -71q-13 -12 -31.5 -16t-36.5 -4z" />
    <glyph glyph-name="asciicircum" unicode="^" horiz-adv-x="370" 
d="M360 324q-11 1 -31 11t-42 24.5t-39.5 29t-25.5 23.5q-6 -4 -23.5 -17.5t-39 -29t-38.5 -26.5t-21 -11q-3 0 -4.5 4t-1.5 6q0 4 13 16t32.5 28t40.5 31.5t37 26t22 11.5l6 -2q26 -31 55.5 -57t60.5 -51l4 -10z" />
    <glyph glyph-name="underscore" unicode="_" horiz-adv-x="425" 
d="M40 -20q-15 0 -15 13q0 17 16 21.5t29 4.5q2 0 5.5 -1t3.5 -4t-2 -5q52 0 103.5 1t103.5 1h47q2 0 11.5 -1.5t9.5 -5.5t-11 -5.5t-13 -1.5q-134 -12 -266 -15q-6 0 -11.5 -1t-10.5 -1z" />
    <glyph glyph-name="grave" unicode="`" horiz-adv-x="180" 
d="M174 420q-6 0 -24.5 11t-39 25.5t-35.5 23.5q-9 7 -25.5 19t-16.5 19q0 8 9.5 13.5t16.5 5.5q9 0 15 -4.5t11 -11.5q9 -10 24.5 -26t31 -31t23.5 -25q3 -2 8 -7t5 -10q0 -2 -3 -2z" />
    <glyph glyph-name="a" unicode="a" horiz-adv-x="363" 
d="M287 -7q-28 0 -42 20t-18.5 46.5t-4.5 47.5t2.5 41.5t5.5 40.5q-10 -13 -28 -36.5t-41 -51t-47 -52t-46.5 -40t-38.5 -15.5q-14 0 -17.5 13t-3.5 23q0 45 18 95t37 90q5 11 15 30t23.5 39t28.5 33t30 11q11 7 21.5 12.5t23.5 5.5q8 0 26.5 -5t26.5 -7q4 8 12 12t16 4
t11 -1q4 2 6 2q6 0 8 -8.5t2 -13.5q0 -13 -3 -23t-8 -22q-4 -10 -6.5 -18.5t-11.5 -15.5q-7 -36 -10.5 -72.5t-3.5 -73.5q0 -13 1.5 -31t9 -32t23.5 -14q25 0 44.5 18.5t32.5 35.5q2 3 5 6.5t7 5.5l3 -6q0 -10 -10 -24t-22 -26.5t-20 -18.5q-12 -10 -26.5 -17.5t-30.5 -7.5z
M63 35q6 0 13 5t11 9q47 41 83.5 92t63.5 106q3 5 6 11t4 12q2 8 4 17.5t3 17.5q-1 5 -11 9t-21.5 6.5t-16.5 2.5q-19 0 -33.5 -15.5t-24.5 -29.5q-12 -18 -27.5 -47t-30 -61.5t-24 -62.5t-9.5 -51q0 -5 1.5 -13t8.5 -8z" />
    <glyph glyph-name="b" unicode="b" horiz-adv-x="298" 
d="M112 -17q-31 0 -56 16q-1 -4 -2 -7t-6 -3q-12 0 -22.5 11.5t-10.5 22.5q0 7 2.5 21t7 27t9.5 18q11 49 22.5 97.5t23.5 97.5q12 46 27.5 97.5t38 101t56 89t80.5 60.5q31 14 63 14q11 0 26 -4.5t26 -13.5t11 -23q0 -6 -3 -9q-2 -2 -10 -8.5t-15.5 -12.5t-9.5 -6t-2 4
q0 3 2 5t2 6q0 10 -10.5 18.5t-24.5 14t-23 5.5q-32 0 -59.5 -26.5t-50.5 -70.5t-41.5 -96.5t-33.5 -105t-25.5 -96.5t-18.5 -70q7 13 21 37t32.5 52t39 53t39.5 41t34 16t21 -14.5t7 -32t1 -27.5q0 -26 -3 -53l14 7t14 5q6 0 6 -6q0 -10 -14.5 -13.5t-22.5 -7.5
q-7 -42 -21 -88t-41 -80q-11 -14 -28 -23t-32 -20q-8 -6 -15.5 -10.5t-17.5 -9.5h-7zM93 117q32 29 68.5 51.5t73.5 43.5q8 34 8 69q0 6 -1.5 17.5t-11.5 11.5q-14 0 -30 -16t-28.5 -35t-18.5 -30q-16 -27 -32.5 -54.5t-27.5 -57.5zM116 10q27 0 47 20.5t34 51t23 61
t13 49.5q-17 -9 -41 -24.5t-48.5 -34t-44 -37.5t-26.5 -36l-7 -26q10 -10 23 -17t27 -7z" />
    <glyph glyph-name="c" unicode="c" horiz-adv-x="262" 
d="M75 -7q-28 0 -40 14t-12 41q0 7 0.5 13.5t1.5 13.5q2 17 8.5 46t17 62.5t24 65t30 53t35.5 26.5q24 6 48 18t49 12q24 0 30 -16t6 -36q0 -23 -18 -33q-4 -3 -9.5 -5.5t-11.5 -2.5q-7 0 -7 6t2 12t2 13q0 11 -4.5 26.5t-19.5 15.5q-11 0 -24 -9.5t-21 -16.5
q-15 -13 -31.5 -46.5t-30.5 -73.5t-22.5 -77t-8.5 -58q0 -16 6 -30.5t25 -14.5q27 0 51.5 21.5t45.5 49t35 45.5h1q4 0 4.5 -4t0.5 -6q0 -17 -8 -32t-20 -26q-27 -25 -61.5 -46t-73.5 -21z" />
    <glyph glyph-name="d" unicode="d" horiz-adv-x="315" 
d="M37 -5q-19 0 -24 17.5t-5 32.5q0 44 16.5 89.5t35.5 83.5q9 18 23.5 42.5t33 45.5t38.5 26t28 13t26 8q15 0 29.5 -3.5t28.5 -7.5q13 43 30.5 85t21.5 86q-4 3 -7 6.5t-6 7.5q8 19 13.5 37.5t11.5 37.5q3 8 15.5 15t20.5 7q14 0 14 -18q0 -13 -6 -36t-13.5 -45.5
t-12.5 -35.5l-28 -80t-25 -81q5 -1 11.5 -5.5t6.5 -10.5q0 -4 -5 -4.5t-7 -0.5q-4 0 -7 0.5t-6 0.5q-6 -17 -15 -51t-17.5 -73t-14 -73t-5.5 -52q0 -8 3 -18t13 -10q11 0 25 11t28 25l25 25t15 11q2 0 2 -2q0 -7 -4 -14t-9 -12q-13 -13 -33.5 -30.5t-43 -31t-42.5 -13.5
q-15 0 -18.5 12t-3.5 24q0 21 3.5 48t9.5 54t11 47q-7 -14 -23 -37t-37 -49.5t-43 -50t-42.5 -38.5t-35.5 -15zM58 35q6 0 13 5t11 9q47 41 83.5 92t63.5 106q5 10 11.5 26t6.5 27q0 8 -5 10q-9 5 -21.5 9t-23.5 4q-19 0 -33.5 -15.5t-24.5 -29.5q-12 -18 -27.5 -47
t-30 -61.5t-24 -62.5t-9.5 -51q0 -5 1.5 -13t8.5 -8z" />
    <glyph glyph-name="e" unicode="e" horiz-adv-x="315" 
d="M241 221q-5 0 -5 5q0 3 1 5q6 16 9.5 30.5t3.5 30.5q0 6 -0.5 16.5t-4 19.5t-12.5 9q-4 0 -7 -0.5t-7 -0.5q-10 0 -10 8q0 4 9.5 7t20.5 5t15 2q25 0 31.5 -18.5t6.5 -38.5q0 -19 -6.5 -40t-23.5 -32q-4 -3 -10 -5.5t-11 -2.5zM92 -7q-29 0 -40.5 14t-11.5 41q0 30 7 60
t17 58l-9 -3q-5 3 -5 10q0 9 8.5 17.5t17.5 9.5q6 15 17 39t25.5 48t32.5 40t39 16q9 0 9 -8q0 -3 -4 -7.5t-6 -6.5q-13 -12 -25 -33.5t-22 -44t-17 -39.5q28 4 55.5 6t55.5 2q3 0 15 -0.5t27 -2t25.5 -4.5t10.5 -8q0 -4 -4.5 -5t-6.5 -1q-13 0 -25 2t-25 2q-34 0 -69 -5
t-69 -12q-10 -26 -19.5 -59t-9.5 -62q0 -16 6 -30.5t25 -14.5q27 0 51.5 21.5t45.5 49t35 45.5h1q4 0 4.5 -4t0.5 -6q0 -17 -8 -31.5t-20 -26.5q-27 -25 -61.5 -46t-73.5 -21z" />
    <glyph glyph-name="f" unicode="f" horiz-adv-x="227" 
d="M-32 -157q-8 0 -8 9t11 23t24 27.5t19 19.5q1 8 2 24.5t4.5 31t10.5 16.5q17 81 36.5 162.5t47.5 159.5q-7 0 -15 -1t-16 -1q-3 0 -7 1.5t-4 5.5q0 5 4.5 9t7.5 5q11 8 18.5 8.5t20.5 0.5q11 38 27.5 80.5t39 83.5t52 73.5t68.5 50.5q25 11 50 11q29 0 50.5 -15.5
t31.5 -42.5q2 -4 2 -7v-7q0 -29 -22 -47q-2 -1 -4.5 -3t-5.5 -2l-2 1q-1 2 -1 5q0 6 2 12t2 12q0 28 -22 50.5t-50 22.5q-29 0 -54 -21.5t-45.5 -56t-37 -72.5t-28 -72t-18.5 -55q20 -1 39.5 -1h39.5q11 0 25.5 -0.5t14.5 -4.5q0 -7 -8.5 -9.5t-13.5 -3.5q-26 -3 -52.5 -4.5
t-52.5 -3.5q-13 -37 -23.5 -76.5t-20.5 -78.5q-13 -50 -24 -101.5t-15 -103.5q8 4 26.5 12.5t36.5 16.5t23 8q7 0 7 -5q0 -6 -5 -9t-10 -5q-22 -10 -43.5 -22t-41.5 -27q-25 -18 -46 -37.5t-41 -42.5q-4 -4 -6 -4z" />
    <glyph glyph-name="g" unicode="g" horiz-adv-x="301" 
d="M-46 -332q-43 0 -76 21t-50 61q-7 17 -12 36t-5 38q0 6 2.5 21t10.5 15q6 0 7 -9t1 -13q0 -25 11 -49t24 -44q15 -23 37 -42t51 -19q39 0 72 27t60.5 71.5t49 98.5t37 109t26.5 102.5t16 77.5q-11 -17 -33.5 -46t-50 -59t-54.5 -50.5t-47 -20.5q-15 0 -18.5 10.5
t-3.5 23.5q0 30 9 63.5t22.5 66.5t26.5 59q5 11 15.5 31t24.5 40.5t30 34.5t31 12l4 2q5 5 11 7t13 2q18 0 36 -6.5t34 -6.5q5 0 14 7.5t18.5 14.5t16.5 7q4 0 4 -6q0 -12 -6 -23q-17 -31 -28 -68t-21 -72q-13 -47 -24.5 -95t-24.5 -96q-16 -59 -38 -120t-60 -111
q-30 -40 -73.5 -71.5t-89.5 -31.5zM59 34q5 0 17 10.5t28 26.5t31.5 33t25.5 30q13 16 29.5 40t31.5 49.5t24.5 48t9.5 35.5q0 7 -2 8.5t-6 1.5q-10 0 -20.5 2t-21.5 2q-13 0 -28 -5q-12 -4 -27 -25.5t-27 -45t-18 -34.5q-10 -20 -22.5 -48t-21.5 -56.5t-9 -51.5
q0 -2 1 -11.5t5 -9.5z" />
    <glyph glyph-name="h" unicode="h" horiz-adv-x="366" 
d="M22 -27q-2 0 -5 1.5t-2 4.5q2 15 5 36.5t16 32.5q27 119 57 237q11 45 26.5 96.5t38.5 101t56.5 89t79.5 60.5q30 14 62 14q12 0 26.5 -4.5t25.5 -13.5t11 -23q0 -3 -2 -9q-3 -2 -11 -9t-15.5 -12.5t-9.5 -6.5q-2 2 -2 3q0 3 2.5 6t2.5 7q0 10 -10.5 18.5t-24.5 14
t-23 5.5q-33 0 -61 -27.5t-50.5 -71t-39.5 -92.5t-29 -91.5t-19 -68.5q-24 -91 -45 -183q35 46 73 95.5t63 101.5q0 13 7.5 18.5t17.5 5.5q5 0 13 -2q2 1 5 1q10 0 12.5 -12.5t2.5 -19.5q0 -11 -2.5 -30.5t-14.5 -25.5q-1 -12 -1.5 -24t-0.5 -25q0 -11 1.5 -31.5t7 -42
t15.5 -36t26 -14.5q18 0 34 14.5t29 33.5t22 33.5t12 14.5t3 -6t-4 -14q-10 -20 -25.5 -45.5t-36.5 -44t-47 -18.5t-42.5 18t-25.5 44.5t-12.5 54.5t-3.5 47q0 17 1 34t3 33q-28 -49 -63.5 -96t-71.5 -91v-10q0 -22 -3 -45q-7 -7 -25 -19t-29 -12z" />
    <glyph glyph-name="i" unicode="i" horiz-adv-x="184" 
d="M135 396q-4 0 -7.5 8t-5 17.5t-1.5 13.5q0 2 0.5 5.5t3.5 4.5q17 2 32.5 6t31.5 9q2 1 7 1q8 0 8 -9q0 -20 -19 -33q-11 -7 -23.5 -15t-26.5 -8zM37 -7q-15 0 -15 16q0 17 6 44.5t14 55.5t12 44q1 4 6 21.5l11 38.5t10.5 37.5t4.5 19.5q0 5 -5.5 9t-5.5 9q0 3 1 6t2 5
q3 5 15 13t25.5 14.5t18.5 6.5q3 0 4 -1q1 -2 1 -7q0 -9 -4.5 -27t-11 -39.5t-12.5 -39.5l-9 -27q-5 -15 -14 -43t-16 -56t-7 -44q0 -2 1 -8.5t5 -6.5q5 0 18.5 8.5t28.5 16.5t23 8q4 0 5 -2q0 -4 -13 -13.5t-27.5 -19t-19.5 -14.5q-10 -9 -24 -17t-28 -8z" />
    <glyph glyph-name="j" unicode="j" horiz-adv-x="183" 
d="M159 407q-4 0 -7.5 8.5t-5.5 18t-2 13.5q0 2 0.5 5t3.5 4q17 2 32.5 6.5t31.5 8.5q2 1 7 1q8 0 8 -9q0 -20 -19 -33q-11 -7 -23 -15t-26 -8zM-174 -332q-43 0 -76 21t-50 61q-7 17 -12 36t-5 38q0 6 2.5 21t10.5 15q6 0 7 -9t1 -13q0 -24 11 -48.5t24 -44.5
q15 -23 37 -42t51 -19q43 0 79.5 33.5t66 88t53 120.5t41 132t28 121.5t15.5 89.5q-3 3 -9 3t-6 7q0 1 5 11l11.5 23t11.5 24t6 12q5 8 13.5 10.5t17.5 2.5q5 0 12.5 -1t7.5 -8l-1 -4q-15 -35 -24.5 -72.5t-17.5 -75.5q-12 -53 -25 -114t-31 -122.5t-45 -117.5t-66 -100
t-95 -69q-21 -10 -49 -10z" />
    <glyph glyph-name="k" unicode="k" horiz-adv-x="339" 
d="M16 -19q-9 0 -9 7l13 38q5 14 7 28t6 28q7 29 14 57t15 56q-2 5 -10 20t-8 20q0 22 23 22q7 0 11 -3q13 48 29 104t39 110t58 97t85 66q12 5 25 8.5t26 3.5q12 0 28.5 -5t28.5 -14.5t12 -24.5q0 -6 -3 -9q-1 -1 -8 -6.5t-14 -10.5t-9 -6q-2 2 -2 3q0 3 3 6t3 7
q0 10 -11 18.5t-25 14t-23 5.5q-30 0 -56 -23.5t-47.5 -62t-39.5 -84.5t-31.5 -92t-23.5 -84.5t-16 -60.5q2 -7 3.5 -12l1.5 -5q32 41 74.5 82t85.5 71q8 5 20 5q7 0 15.5 -2.5t8.5 -11.5q0 -8 -12 -19t-26.5 -20t-20.5 -13q-34 -23 -71 -51t-66 -56q10 -18 27 -43.5
t36.5 -50t39 -41t35.5 -16.5q15 0 23.5 12t13 27.5t6.5 26.5q1 2 2.5 9.5t5.5 7.5q5 0 6.5 -4t1.5 -8q0 -2 -0.5 -4t-0.5 -4q-2 -19 -4.5 -43t-17.5 -39q-17 -17 -39 -17t-45.5 15.5t-45 40t-38.5 52t-28 50.5q-5 -12 -11.5 -30t-11.5 -35.5t-7 -26.5q4 -7 4 -17
q0 -18 -6 -30.5t-21 -21.5q-6 -4 -13 -7.5t-15 -3.5z" />
    <glyph glyph-name="l" unicode="l" horiz-adv-x="174" 
d="M37 1q-9 0 -15.5 5t-6.5 15q0 14 2 35t4 36q8 48 18.5 96.5t23.5 95.5q12 46 28 97.5t39 100.5t56.5 88.5t80.5 60.5q12 5 25 8.5t26 3.5q12 0 28.5 -5t28.5 -14.5t12 -24.5q0 -6 -3 -9q-2 -3 -15.5 -12.5t-15.5 -10.5q-2 2 -2 3q0 3 3 6t3 7q0 10 -11 18.5t-25 14
t-23 5.5q-33 0 -60.5 -28t-49.5 -71.5t-39 -92t-29 -91.5t-19 -69q-8 -29 -17 -65t-15.5 -72.5t-6.5 -67.5q0 -9 3.5 -18.5t14.5 -9.5q15 0 31.5 10t32 23.5t27 23.5t15.5 10q2 0 2 -2q0 -7 -4 -14t-9 -12q-13 -13 -37 -30.5t-51 -30.5t-50 -13z" />
    <glyph glyph-name="m" unicode="m" horiz-adv-x="498" 
d="M15 -18q-8 0 -8 6l13 38q4 12 6 24.5t5 25.5q6 25 12.5 49t13.5 49q6 20 11.5 40.5t7.5 41.5q2 3 -6 2.5t-8 3.5q8 18 12.5 37t11.5 37q3 8 16 15t21 7q14 0 14 -18q0 -13 -7 -43t-17 -65.5t-19.5 -65.5t-13.5 -44q32 57 71.5 108.5t89.5 93.5q9 8 22 8q27 0 27 -23
q0 -13 -5 -39t-13 -56.5t-15 -57t-12 -40.5q23 23 49 50.5t49 58t37 58.5q0 9 10.5 14t17.5 5q3 0 9 -2q4 2 6 2q9 0 11.5 -13.5t2.5 -19.5q0 -11 -2.5 -30.5t-14.5 -25.5q-1 -12 -1.5 -24.5t-0.5 -24.5q0 -11 1.5 -32t6.5 -42.5t15 -36.5t26 -15q18 0 31.5 10t23 23
t15.5 23t9 10q5 0 5 -5q0 -3 -2 -9q-6 -18 -21 -37.5t-34 -33.5t-40 -14q-25 0 -41.5 17.5t-26 44t-13 53.5t-3.5 46t1.5 37.5t3.5 37.5q-9 -13 -19 -25t-19 -24l-80 -100q0 -15 -6.5 -34.5t-19 -33.5t-31.5 -14q-7 0 -7.5 5.5t0.5 9.5q-2 2 -2.5 5.5t-0.5 6.5q0 8 4.5 28
t11 43.5t12.5 43.5t9 29q6 22 11.5 45t5.5 45q0 4 -1 10t-7 6q-11 0 -26.5 -15t-32 -36t-29.5 -40t-18 -27q-11 -16 -29 -44.5t-32 -58.5t-14 -50v-4q0 -9 -15.5 -19.5t-24.5 -10.5z" />
    <glyph glyph-name="n" unicode="n" horiz-adv-x="392" 
d="M15 -18q-8 0 -8 6l13 38q5 13 6.5 25.5t5.5 25.5q6 26 13 52t15 51q3 9 8 26t9.5 34.5t4.5 26.5q0 5 -6.5 4t-7.5 2q7 18 12 37t12 37q3 8 16 15.5t21 7.5q14 0 14 -18q0 -16 -8 -49t-20.5 -72t-24 -75.5t-19.5 -59.5q32 30 64 66t58.5 72.5t41.5 66.5q0 11 14.5 15
t22.5 2q4 2 6 2q9 0 11.5 -13.5t2.5 -19.5q0 -11 -2.5 -30.5t-14.5 -25.5q-1 -8 -1 -16.5v-16.5q0 -12 1.5 -39.5t6.5 -57.5t16 -51.5t30 -21.5q18 0 31.5 10t23.5 23t16 23t9 10q5 0 5 -6q0 -14 -14.5 -34t-24.5 -30q-11 -12 -26 -21t-32 -9q-30 0 -47 21.5t-25.5 53
t-11 64t-2.5 53.5q0 19 0.5 37t1.5 36q-16 -28 -37 -54t-41 -51q-30 -34 -59 -74q-5 -7 -9.5 -16.5t-11.5 -16.5l-2 -2q-7 -19 -9 -29t-20 -22q-6 -4 -13 -8t-15 -4z" />
    <glyph glyph-name="o" unicode="o" horiz-adv-x="305" 
d="M93 -10q-37 0 -50 21.5t-13 55.5q0 36 11 69t24 66q-7 5 -12.5 13t-5.5 23q0 17 20 43.5t45 46.5q11 9 29 19.5t37 18t31 7.5q42 0 56 -34t10 -81q4 2 14.5 6t20.5 7.5t12 3.5q5 0 10 -5t5 -10q0 -3 -3 -5l-63 -24q-6 -31 -19.5 -72t-36 -79.5t-53 -64t-69.5 -25.5z
M141 225q25 0 48 5.5t50 14.5q1 5 1.5 11t0.5 11q0 12 -2.5 27t-10 26.5t-22.5 11.5q-17 0 -33 -13t-29.5 -31t-23 -35t-13.5 -25q18 -3 34 -3zM102 17q28 0 49.5 18.5t37.5 48.5t27.5 65t18.5 69q-30 -10 -68.5 -19.5t-70.5 -5.5q-10 -27 -17.5 -61t-7.5 -63q0 -16 5.5 -34
t25.5 -18z" />
    <glyph glyph-name="p" unicode="p" horiz-adv-x="306" 
d="M-5 -400q-14 0 -26 6.5t-22 16.5q-12 14 -15.5 34t-3.5 37q0 38 9 85t23.5 96.5t30.5 95t29 81.5q-6 15 -6 32q0 21 9.5 29.5t26.5 16.5q21 53 44.5 107t46.5 106q-8 9 -18 17t-20 15q-6 3 -6 8q0 9 9.5 16.5t17.5 7.5t19 -10.5t16 -15.5q4 9 10 24t11 22q6 8 18 14.5
t22 6.5q13 0 13 -10q0 -3 -6 -15.5t-14 -27.5t-15 -28t-9 -18q24 -27 48.5 -62.5t41.5 -74t17 -75.5q0 -38 -20 -71t-52.5 -53t-71.5 -20q-26 0 -54.5 5t-50.5 21q-12 -33 -27.5 -75.5t-29 -89t-22.5 -90.5t-9 -79q0 -11 2 -26.5t9.5 -27t22.5 -11.5t23 10.5t12 10.5
q1 0 1 -2q0 -4 -8.5 -12.5t-11.5 -13.5q1 -1 1 -4q0 -4 -2 -8q-3 -1 -6.5 -1h-6.5zM159 16q39 0 69 20.5t30 63.5q0 42 -13.5 80t-34 71.5t-41.5 60.5q-18 -37 -35.5 -79t-33.5 -81q2 0 3 0.5t2 0.5q7 0 7 -7q0 -13 -8 -17t-17 -9q-7 -16 -13.5 -31.5t-12.5 -32.5l1 -1
q22 -22 45 -30.5t52 -8.5z" />
    <glyph glyph-name="q" unicode="q" horiz-adv-x="317" 
d="M155 -253q-22 0 -22 25q0 18 3.5 37.5t7.5 37.5q5 31 11.5 61.5t13.5 61.5l27 122q5 20 9.5 39.5t10.5 38.5q-11 -17 -33.5 -46t-50 -59t-54.5 -50.5t-47 -20.5q-16 0 -19.5 11.5t-3.5 24.5q0 45 18 95t37 90q5 11 15 30t23.5 39t28.5 33t30 11q11 6 21.5 12.5t23.5 6.5
q17 0 34.5 -7t26.5 -7q4 0 12.5 7.5t20.5 14.5t25 7q3 0 6.5 -1t3.5 -5q0 -2 -1 -3.5t-2 -3.5q-12 -20 -19.5 -43.5t-16.5 -44.5q-2 -5 -6 -8.5t-9 -5.5q-8 -18 -14.5 -37t-11.5 -38q-15 -53 -30.5 -114t-26 -123t-10.5 -118q0 -7 2 -21.5t14 -14.5q11 0 22.5 9.5t23 22.5
t20.5 22.5t15 9.5q3 0 3 -5q0 -3 -1 -10.5t-6 -7.5q-12 -11 -35.5 -29t-48 -32t-41.5 -14zM63 35q6 0 13 5t11 9q47 41 83.5 92t63.5 106q5 10 11.5 26t6.5 27q0 8 -5 10q-9 5 -21.5 9t-23.5 4q-19 0 -33.5 -15.5t-24.5 -29.5q-12 -18 -27.5 -47t-30 -61.5t-24 -62.5
t-9.5 -51q0 -5 1.5 -13t8.5 -8z" />
    <glyph glyph-name="r" unicode="r" horiz-adv-x="289" 
d="M17 -18q-8 0 -10 6l8 18t7 19q18 53 32.5 107t28.5 108l8 31q0 3 -7 2.5t-8 2.5q7 18 12.5 36.5t12.5 36.5q3 8 19 15t24 7q14 0 14 -13q0 -7 -6.5 -28.5t-16 -50t-20 -58t-19 -54t-12.5 -37.5q18 36 43 78t55 80t64 60q11 7 20 7q21 0 31 -21.5t10 -38.5q0 -6 -3 -18.5
t-8.5 -23t-13.5 -10.5q-6 0 -8 9.5t-4 22t-7 22t-16 9.5q-16 0 -36 -19.5t-41 -49.5t-40.5 -63.5t-34 -61.5t-20.5 -43q1 -3 1 -9q0 -11 -4.5 -25.5t-9.5 -25.5q0 -6 -8.5 -12t-19.5 -10.5t-17 -4.5z" />
    <glyph glyph-name="s" unicode="s" horiz-adv-x="268" 
d="M43 -6q-18 0 -18 15q0 12 16.5 20.5t40 14.5t44.5 9t30 4q5 5 8 11.5t3 13.5q0 8 -4.5 13.5t-11.5 9.5q-18 11 -45 29t-47.5 40.5t-20.5 46.5q0 14 7 22q18 23 46.5 51.5t62 49t64.5 20.5q28 0 34 -9t6 -34q0 -17 -6 -37.5t-25 -28.5h-2q-3 0 -3.5 9.5t-0.5 17.5v18
t-5 22.5t-19 10.5t-33 -8.5t-37.5 -23t-30.5 -30.5t-12 -31q0 -25 18.5 -42t43.5 -30t43.5 -27t18.5 -33q0 -14 -7 -26.5t-16 -22.5q10 1 20.5 1.5t20.5 0.5q9 0 9 -5t-3 -6.5t-8 -2.5q-15 -2 -30.5 -4t-30.5 -5q-28 -25 -55 -34.5t-65 -9.5z" />
    <glyph glyph-name="t" unicode="t" horiz-adv-x="215" 
d="M61 1q-8 0 -15.5 5t-7.5 15q0 8 3 17.5t4 16.5q17 66 36.5 131.5t38.5 130.5h-28q-3 0 -6 -0.5t-6 -0.5h-4q-1 0 -1 -0.5v-0.5q-6 3 -6 9q0 5 2.5 8t5.5 5q5 5 12.5 6t14.5 1q6 0 12.5 -0.5t12.5 -0.5q3 9 8 25.5t9 33.5t4 25q0 5 -6.5 4t-7.5 2q7 18 12.5 36.5
t10.5 37.5q2 9 15 15.5t22 6.5t12 -5.5t3 -13.5q0 -11 -6 -34t-14 -49.5t-15.5 -49.5t-11.5 -34h112q1 0 4 -3q0 -4 -13.5 -6.5t-15.5 -2.5q-23 -4 -47 -6.5t-48 -4.5q-6 -19 -17.5 -54t-24 -75t-21.5 -74.5t-9 -51.5q0 -9 3.5 -18.5t14.5 -9.5q15 0 31.5 11t32 25t26.5 25
t15 11q5 0 5 -7q0 -2 -0.5 -9t-5.5 -7q-10 -10 -28.5 -24.5t-40 -28t-42 -23t-34.5 -9.5z" />
    <glyph glyph-name="u" unicode="u" horiz-adv-x="343" 
d="M228 -10q-8 0 -15.5 6t-7.5 15q0 31 7.5 69t17.5 76.5t17 69.5q-8 -15 -27 -43t-44 -60.5t-51.5 -62t-50 -48.5t-39.5 -19q-8 0 -11.5 6t-3.5 13q0 12 7 34.5t16.5 49t19 50.5t13.5 40l16 56h-2q-3 0 -6.5 2t-3.5 6q0 1 0.5 2t0.5 2q5 20 7 42.5t12.5 38.5t37.5 16
q17 0 17 -17q0 -14 -8 -45.5t-19.5 -68.5t-22.5 -69.5t-16 -49.5q-2 -7 -8 -24.5t-6 -24.5l1 -2q1 0 3 2q40 25 74.5 69t63 93t49.5 89q-1 5 -1 9v8q0 22 18.5 30t36.5 8q6 0 13 -2t7 -10q0 -4 -1.5 -7.5t-3.5 -7.5q-18 -35 -31.5 -71t-25.5 -74q-5 -17 -13 -43.5t-13.5 -53
t-5.5 -44.5q0 -7 2.5 -15.5t11.5 -8.5q8 0 21 9.5t27.5 22.5t26 22.5t15.5 9.5q3 0 3 -5q0 -3 -2 -9.5t-8 -11.5q-11 -10 -31 -26.5t-42.5 -29.5t-41.5 -13z" />
    <glyph glyph-name="v" unicode="v" horiz-adv-x="313" 
d="M76 -12q-4 0 -8.5 1.5t-4.5 5.5q0 8 5.5 15t9.5 12q1 1 1 9q0 25 -0.5 62.5t-2 74t-4.5 58.5q-7 0 -13 15t-9.5 32.5t-3.5 23.5q0 10 10.5 25.5t23.5 22.5q5 3 10.5 4t9.5 1q3 0 5 -6q6 -25 8 -76.5t2 -104.5v-72t-1 -49q52 44 85 100t51 121q2 5 2.5 11t1.5 11
q-4 14 -8.5 29.5t-4.5 28.5q0 12 6 24t19 12h5t5 -1q8 -3 11 -19t3.5 -34t1.5 -26q2 -16 12.5 -30.5t20.5 -24t10 -12.5q0 -4 -3.5 -7t-7.5 -3q-10 0 -24 13t-21 20q-12 -42 -41 -87.5t-64 -86t-69 -68.5q-3 -6 -11.5 -13t-13.5 -12h-4z" />
    <glyph glyph-name="w" unicode="w" horiz-adv-x="475" 
d="M33 -2q-16 0 -19.5 11t-3.5 24q0 10 5 27t10.5 34.5t8.5 26.5q2 6 9 26l14 40t7 25q-1 0 -2 -0.5t-3 -0.5q-9 0 -9 12q0 11 3 23.5t7 22.5q5 11 7.5 21.5t4.5 21.5q2 8 12 12t22.5 5.5t18.5 1.5q5 0 11.5 -1.5t6.5 -8.5q0 -2 -2 -7.5t-3 -7.5q-14 -34 -31.5 -71.5
t-30 -76t-12.5 -76.5q0 -7 2.5 -20.5t13.5 -13.5t24.5 12t20.5 19q41 42 73 91t50 105q2 7 9 23.5t17 16.5t20 -1t20 -3q-28 -52 -40 -108t-12 -115q0 -11 3.5 -26t18.5 -15q18 0 37 16.5t30 28.5q23 25 46.5 63t39.5 79t16 75q0 22 -7 35t-7 23t5.5 21t17.5 11
q13 0 20.5 -19.5t7.5 -43.5q0 -57 -28.5 -113.5t-61.5 -100.5q-15 -21 -40 -50t-54.5 -51t-59.5 -22q-21 0 -25.5 17.5t-4.5 34.5q0 67 12 134q-29 -48 -70 -98.5t-92 -77.5q-7 -4 -16 -7.5t-17 -3.5z" />
    <glyph glyph-name="x" unicode="x" horiz-adv-x="343" 
d="M-53 -115q-10 0 -13.5 15.5t-3.5 23.5q0 9 2 18.5t5 17.5q8 19 31 47.5t52.5 58.5t56.5 55.5t41 38.5q-2 12 -7.5 30.5t-12 37.5t-12.5 31q-3 -3 -7 -3t-11.5 12.5t-13 28.5t-5.5 27t13 21.5t23 10.5t20 -18.5t18.5 -45.5t15.5 -54t12 -45q4 5 19.5 24t36 43.5t42.5 48
t39.5 39t25.5 15.5q13 0 13 -18q0 -8 -7.5 -15t-15.5 -7q-5 0 -19.5 -13.5t-33.5 -34.5t-38.5 -43t-34.5 -39.5l-21 -24.5q0 -6 5.5 -26t14.5 -46t20 -51.5t23.5 -42t25.5 -16.5q2 -1 7 -1q17 0 28.5 16.5t18.5 40t10.5 46t3.5 34.5v3q0 4 2 4q5 0 6 -10.5t1.5 -22.5
t0.5 -16q2 -4 3.5 -14.5t2.5 -15.5q-8 -20 -20.5 -41.5t-30.5 -36t-43 -14.5q-8 0 -16 2.5t-16 6.5q-17 9 -30.5 33.5t-23.5 54t-16 54t-7 33.5q-34 -35 -58.5 -60.5t-52.5 -60.5q-10 -13 -25.5 -33t-27 -41.5t-11.5 -39.5q0 -4 1 -7.5t1 -7.5q0 -7 -7 -7z" />
    <glyph glyph-name="y" unicode="y" horiz-adv-x="359" 
d="M-7 -332q-43 0 -76 21t-50 61q-7 17 -12 36t-5 38q0 6 2.5 21t10.5 15q6 0 7 -9t1 -13q0 -24 11 -48.5t24 -44.5q15 -23 37 -42t51 -19q39 0 72 27t60.5 71.5t49.5 98.5t38 109t26.5 102.5t14.5 77.5l8 56q-7 -16 -26.5 -44.5t-45 -61t-53 -61.5t-52.5 -47.5t-43 -18.5
q-10 0 -13.5 5t-3.5 15q0 12 6.5 34t15.5 47t18 47t13 33q2 5 7.5 20.5t12 33.5t11.5 32t5 16q0 3 -7 3t-7 3l6 18q5 14 9.5 28.5t9.5 27.5q3 8 17.5 15t23.5 7q16 0 16 -18q0 -14 -4 -33t-10 -33l-73 -173q-4 -10 -11.5 -29.5t-7.5 -30.5q0 -4 2 -7.5t6 -3.5q9 0 20.5 8
t22.5 18.5t16 15.5q47 47 78.5 100t60.5 111q-1 5 -1 9v8q0 22 19.5 30.5t37.5 8.5q7 0 13.5 -3t6.5 -11q0 -4 -7.5 -24t-18 -46t-19.5 -49t-12 -33q-14 -52 -27.5 -111.5t-31 -120.5t-43.5 -116t-64.5 -98.5t-93.5 -68.5q-21 -10 -49 -10z" />
    <glyph glyph-name="z" unicode="z" horiz-adv-x="315" 
d="M225 -43q-4 0 -4 5q0 6 7 12.5t13.5 14t6.5 14.5q0 8 -10.5 11.5t-23 4t-17.5 0.5q-56 0 -113 -6q-17 -1 -34.5 -4.5t-34.5 -3.5h-9q-6 8 -6 16q0 5 1.5 9t2.5 8q7 13 27 37t47.5 54t57 61t54.5 58t41 44.5t16 19.5l-4 -2q-14 2 -28.5 3.5t-28.5 1.5q-27 0 -45 -5.5
t-38 -24.5q-4 -4 -8 -7t-9 -2q-4 3 -4 9q0 14 10 26.5t20 20.5q18 5 37 6t38 1q28 0 55.5 -1t55.5 -1q7 0 12 -4t5 -11q0 -17 -17 -30t-33 -16q-23 -21 -54 -50.5t-62.5 -63t-57.5 -66t-41 -59.5q44 7 89.5 13.5t89.5 6.5q14 0 30.5 -4.5t16.5 -22.5q0 -11 -10 -28.5
t-22 -31t-19 -13.5z" />
    <glyph glyph-name="braceleft" unicode="{" horiz-adv-x="339" 
d="M220 -138q-29 0 -59.5 5t-51 23.5t-20.5 58.5q0 33 10 67t22 68q12 35 22 68.5t10 64.5q0 83 -114 80q-11 0 -11 5q0 3 6.5 6.5t16.5 4.5q29 2 63.5 9.5t56.5 25.5q29 24 45 65.5t24 77.5q5 21 13.5 52t19.5 61.5t24 47.5q56 78 183 78q11 0 11 -9q0 -2 -4 -3t-8 -1
q-53 0 -86 -16t-52.5 -48t-33.5 -80q-6 -20 -12 -40.5t-11 -40.5l-6 -18q-3 -15 -9 -28q-11 -28 -27.5 -53.5t-39.5 -45.5q-41 -36 -84 -44q33 -10 53 -35t20 -59q0 -31 -9.5 -65t-20.5 -68q-12 -34 -21.5 -68t-9.5 -65q0 -30 12.5 -43.5t30.5 -17t34 -4.5q15 -1 21 -2.5
t9 -6.5q-4 -7 -17 -7z" />
    <glyph glyph-name="bar" unicode="|" horiz-adv-x="250" 
d="M49 -117l-1 1q1 12 6 25.5t9 24.5q11 33 21.5 66.5t19.5 67.5q29 107 47 216t28 219l4 58t2 58q0 20 -3.5 39t-3.5 38q0 11 3.5 15t15.5 4q18 0 26 -11.5t10.5 -27t2.5 -28.5q0 -16 -1 -31.5t-3 -30.5q-2 -21 -9 -65.5t-18 -104t-24 -125.5t-27.5 -130.5t-28 -119
t-25.5 -91.5t-21 -47q-6 -7 -13 -13.5t-17 -6.5z" />
    <glyph glyph-name="braceright" unicode="}" horiz-adv-x="335" 
d="M-130 -135q-7 0 -10 4l2 6q5 2 41 5q4 0 6.5 0.5t4.5 0.5q43 3 72 23q26 19 46.5 61.5t39.5 91.5q20 50 41.5 97.5t52.5 74.5q58 50 125 65q-31 7 -56 26.5t-25 55.5q0 32 12.5 68t27.5 73t27.5 73t12.5 68q0 37 -24 43q-7 2 -20 4t-25 4l-29 4q-9 0 -9 6q0 8 16 8
q18 0 41.5 -1.5t45 -8t35.5 -21t14 -40.5q0 -33 -13.5 -70t-30.5 -75q-16 -37 -29.5 -73.5t-13.5 -68.5q0 -62 106 -70q11 0 11 -7q0 -9 -14 -9q-64 -1 -113.5 -27.5t-74.5 -80.5q-13 -27 -24.5 -55t-22.5 -57l-9 -23q-2 -5 -4 -10.5t-4 -10.5q-4 -11 -8 -22.5t-9 -22.5
q-4 -7 -10 -15.5t-13 -17.5q-65 -76 -189 -76z" />
    <glyph glyph-name="asciitilde" unicode="~" horiz-adv-x="329" 
d="M322 401q-20 0 -38.5 12t-36 23.5t-36.5 11.5q-16 0 -26 -10t-24 -15l-3 5q2 6 14.5 17.5t27.5 21.5t21 10q17 0 34 -10.5t36.5 -21.5t41.5 -11q14 0 25.5 7.5t22.5 13.5l2 -2q0 -6 -12.5 -18.5t-27 -23t-21.5 -10.5z" />
    <glyph glyph-name="uni00A0" unicode="&#xa0;" horiz-adv-x="250" 
 />
    <glyph glyph-name="exclamdown" unicode="&#xa1;" horiz-adv-x="251" 
d="M142 274v3q0 4 5.5 13.5t12 20t8.5 15.5q4 9 17 21.5t23 12.5q9 0 13.5 -12t4.5 -20q0 -12 -15.5 -24.5t-34.5 -21t-30 -8.5l-3 1zM-83 -293q-17 0 -17 15q0 4 2.5 8.5t4.5 7.5q44 65 82.5 131.5t73.5 135.5q18 37 36 74.5t30 76.5q2 6 5 21t10 15t7 -8q0 -16 -11.5 -52
t-30 -83.5t-41 -98t-45 -96.5t-41 -80t-30.5 -48q-7 -8 -15.5 -13.5t-19.5 -5.5z" />
    <glyph glyph-name="cent" unicode="&#xa2;" horiz-adv-x="374" 
d="M125 5q-2 0 -11.5 1.5t-9.5 4.5q0 29 8 57.5t16 55.5q-28 7 -38.5 33t-10.5 52q0 35 14.5 80t41 86t62 66t77.5 20q20 35 39.5 70.5t43.5 66.5q7 8 19 18t23 10q4 0 4 -3q-1 -4 -8.5 -15l-15 -22t-11.5 -17q-19 -28 -36 -57l-34 -58q18 -8 27 -24t9 -36q0 -7 -4 -23
t-10.5 -29t-16.5 -13q-5 0 -9.5 4.5t-4.5 9.5q0 3 9 21t9 37q0 11 -3.5 22.5t-13.5 16.5q-38 -67 -71.5 -138t-57.5 -145q11 -4 24 -4q18 0 43 11.5t51.5 31t49.5 41.5t36 43q3 4 6.5 9.5t6.5 5.5t3 -5q-2 -6 -8 -15q-21 -32 -52.5 -68t-73.5 -60.5t-95 -24.5
q-5 -20 -9.5 -37.5t-6.5 -39.5q-1 -7 -1 -19.5t-2 -17.5q-1 -2 -3.5 -2.5t-4.5 -0.5zM142 171q25 70 56 137.5t66 132.5q-30 -6 -56 -28t-44.5 -53t-29 -64t-10.5 -62q0 -16 4 -32.5t14 -30.5z" />
    <glyph glyph-name="sterling" unicode="&#xa3;" horiz-adv-x="574" 
d="M124 176q-5 2 -12 12.5t-8 16.5l2 3q39 6 80 7q20 61 42.5 120.5t52.5 109t72 79t100 29.5q40 0 59.5 -20t19.5 -53q0 -34 -21.5 -79t-65.5 -92q-22 -24 -43 -35.5t-35 -11.5q-7 0 -8 1.5t-1 2.5q0 3 23.5 19.5t45.5 45.5q35 46 52.5 86t17.5 68q0 23 -12 36.5t-36 13.5
q-27 0 -54 -21.5t-52 -56.5t-47 -77t-40.5 -85t-31.5 -80q21 -1 46 -3.5t39 -10.5q3 -2 3 -5q0 -6 -6 -6q-23 0 -46 -1.5t-46 -3.5q-7 -20 -12 -36q-7 -23 -13.5 -40t-16.5 -39q62 -16 121 -34.5t123 -18.5q31 0 63 6t53.5 22t21.5 45q0 26 -20 60q-1 2 -1 5q0 6 7 9.5
t11 -1.5q23 -26 23 -57q0 -32 -22.5 -61t-59.5 -47t-82 -18q-40 0 -84.5 10t-88 23.5t-81.5 23.5q-10 -15 -28.5 -27.5t-38.5 -12.5q-41 0 -65.5 21.5t-24.5 46.5q0 14 14 23.5t26 9.5q26 0 51 -6.5t48 -13.5q10 24 19 50t18 54q-12 -1 -25.5 -1.5t-25.5 -4.5zM82 11
q15 0 28.5 11.5t15.5 24.5q-18 8 -39.5 14t-41.5 6q-14 0 -14 -14q0 -12 14 -27t37 -15z" />
    <glyph glyph-name="currency" unicode="&#xa4;" horiz-adv-x="473" 
d="M79 200q-12 0 -21.5 4t-7.5 11q15 14 37 33t38 33q-7 19 -7 41q0 5 0.5 10t1.5 9q3 24 14 46q8 15 19 28q-10 10 -20 18.5t-19 16.5q-5 10 -5 20q0 8 3.5 16t10.5 12q14 -14 29 -28t29 -29q28 19 59 19q45 0 77 -26q29 20 54.5 36.5t40.5 21.5q1 1 4 1q4 0 5.5 -3.5
t1.5 -7.5q0 -8 -3 -10q-18 -14 -37 -34t-40 -39q7 -16 7 -35q0 -22 -10 -47q-7 -17 -19 -31q18 -23 33 -42t26 -32q6 -7 6 -11q0 -8 -13 -8q-6 0 -12.5 2t-9.5 6q-13 15 -29 29.5t-30 28.5q-43 -30 -92 -30q-32 0 -54 20q-12 -11 -26.5 -24t-21.5 -22q-7 -3 -19 -3zM207 249
q16 0 35.5 10t36.5 26t23 33q7 17 7 38q0 35 -19 58.5t-51 23.5q-33 0 -54 -30.5t-26 -65.5q-1 -4 -1.5 -9.5t-0.5 -10.5q0 -25 12.5 -49t37.5 -24z" />
    <glyph glyph-name="yen" unicode="&#xa5;" horiz-adv-x="407" 
d="M115 -12q-4 0 -4 4q2 8 7.5 25t8.5 26q8 22 14.5 40t11.5 34q-11 -1 -20 -1q-14 -1 -30.5 -2t-31.5 -4q-6 2 -13.5 11t-8.5 14l2 3q26 4 53 5t54 1h3q11 36 15 61q-11 -1 -21 -1q-14 -1 -30.5 -2t-31.5 -5q-6 2 -13.5 11.5t-8.5 14.5l2 3q53 6 105 6v1q0 24 -6 49.5
t-17 63.5q-4 15 -14 38.5t-20.5 48t-19.5 41.5t-12 20q-5 5 -5 8q0 9 8 18t15 9q13 0 27.5 -22.5t28.5 -57.5t26 -73t21 -70t12 -48q25 35 54 71.5t56.5 69t49.5 56.5t34 36q13 12 28.5 22t30.5 10t15.5 -2t-1.5 -3q-12 -7 -35 -28.5t-50.5 -51.5t-55.5 -63t-51 -63
q-18 -24 -31.5 -43.5t-24.5 -38.5q16 -1 30.5 -3.5t24.5 -6.5q3 -1 3 -4q0 -6 -7 -6q-16 0 -31.5 -0.5t-31.5 -1.5q-15 -28 -27 -65q20 -1 40 -3t32 -7q3 -3 3 -5q0 -6 -7 -6q-19 0 -37.5 -1t-37.5 -2q-6 -18 -12 -40t-12 -49q-6 -22 -26 -32t-30 -10z" />
    <glyph glyph-name="brokenbar" unicode="&#xa6;" horiz-adv-x="250" 
d="M165 373q5 32 8 65t6 65l4 58t2 58q0 20 -3.5 39t-3.5 38q0 11 3.5 15t15.5 4q18 0 26 -11.5t10.5 -27t2.5 -28.5q0 -16 -1 -31.5t-3 -30.5q-2 -25 -11.5 -81.5t-23.5 -129.5zM49 -117l-1 1q1 12 6 25.5t9 24.5q11 33 21.5 66.5t19.5 67.5q14 52 25.5 104.5t20.5 105.5
l29 2q-13 -64 -27 -127t-27.5 -116t-25 -88.5t-20.5 -45.5q-6 -7 -13 -13.5t-17 -6.5z" />
    <glyph glyph-name="section" unicode="&#xa7;" horiz-adv-x="605" 
d="M184 -178q-49 0 -93.5 16.5t-72.5 51.5t-28 90q0 48 21.5 89.5t59.5 67t88 25.5q4 0 13 -0.5t17 -2t8 -4.5q0 -4 -11 -3t-13 1q-67 0 -108 -40.5t-41 -107.5q0 -46 20 -84.5t56.5 -61.5t83.5 -23q29 0 56 7.5t52 19.5q53 25 84.5 69t31.5 103q0 40 -15 68.5t-38.5 49
t-49.5 38.5t-49.5 37t-38.5 43.5t-15 59.5q0 49 31 81t74 48q8 39 37 65t67.5 39.5t73.5 13.5q22 0 51.5 -7t51.5 -23t22 -44q0 -22 -15 -34t-35.5 -16.5t-38.5 -4.5q-1 0 -7.5 0.5t-6.5 3.5q0 4 6.5 4.5t8.5 0.5q22 0 39 14.5t17 36.5q0 23 -15.5 35.5t-37 17.5t-39.5 5
q-36 0 -69 -14.5t-53.5 -41.5t-20.5 -67q0 -34 15.5 -57.5t40 -41.5t51.5 -35.5t51.5 -39t40 -52t15.5 -75.5q0 -60 -33 -106t-85 -73q-21 -47 -62.5 -79t-92.5 -47.5t-100 -15.5zM449 -7q33 28 47.5 66t14.5 81q0 41 -15.5 69t-39.5 49t-51 39t-50.5 37.5t-37.5 46
t-12 64.5q-29 -16 -47 -44t-18 -62t15.5 -57.5t40 -41.5t51.5 -35.5t51.5 -38.5t40 -51.5t15.5 -75.5q0 -11 -1.5 -23t-3.5 -23z" />
    <glyph glyph-name="dieresis" unicode="&#xa8;" horiz-adv-x="245" 
d="M139 419q-8 0 -14 10.5t-6 18.5q0 10 12 20t26.5 16.5t22.5 6.5t8 -4q0 -12 -14 -32q-6 -7 -10.5 -21.5t-24.5 -14.5zM20 420q-8 0 -14 10.5t-6 18.5q0 10 12 20t26.5 16.5t22.5 6.5t8 -4q0 -12 -14 -32q-6 -7 -10.5 -21.5t-24.5 -14.5z" />
    <glyph glyph-name="copyright" unicode="&#xa9;" horiz-adv-x="638" 
d="M217 29q-45 0 -85.5 19t-65.5 54t-25 83q0 49 23 97t62 91.5t87.5 77t99.5 52.5t97 19t85 -19.5t62.5 -55t23.5 -83.5t-22.5 -96t-61 -91t-86 -76.5t-97.5 -52.5t-97 -19zM231 50q42 0 86 18t84.5 49t72.5 70t50.5 82.5t18.5 86.5q0 63 -39 104.5t-104 41.5
q-45 0 -90.5 -18.5t-87.5 -50t-74.5 -72.5t-51.5 -86.5t-19 -90.5q0 -41 22.5 -71.5t57.5 -46.5t74 -16zM215 115q-29 0 -56.5 15t-27.5 49q0 47 28 95t72 88t94.5 64t96.5 24q18 0 33.5 -10t15.5 -30q0 -9 -3 -20t-15 -12l-5 4q2 6 3.5 12t1.5 12q0 16 -10.5 25.5
t-25.5 9.5q-32 0 -66.5 -17.5t-67.5 -46t-59.5 -64t-42.5 -71.5t-16 -67q0 -22 12.5 -35t34.5 -13q29 0 63 13t65.5 30.5t51.5 30.5t21 13q3 0 3 -3q0 -15 -16.5 -29.5t-42 -26.5t-53.5 -21t-52 -14t-37 -5z" />
    <glyph glyph-name="ordfeminine" unicode="&#xaa;" horiz-adv-x="263" 
d="M28 410q-15 0 -15 22q0 27 11 56.5t22 54.5q5 8 14 24.5t21 30.5t24 13q6 4 13 7t15 3q5 0 15 -2t15 -4q8 12 25 8q1 1 4 1q8 0 8 -13q0 -6 -1 -11t-3 -10l-2 -6q-1 -1 -1 -2.5t-1 -2.5q-4 -10 -9 -15q-9 -40 -9 -85q0 -49 19 -49q14 0 25 10.5t19 21.5q3 5 4.5 6t5.5 3
l3 -5q0 -8 -12 -21.5t-20 -19.5q-18 -15 -35 -15q-41 0 -41 68q0 11 1 21.5t2 21.5q-9 -12 -23.5 -30.5t-32 -37t-33.5 -31t-28 -12.5zM48 435q3 0 6.5 2.5t7.5 5.5q50 44 87 119l6 14q2 5 2.5 10.5t1.5 10.5q-1 5 -11.5 8t-15.5 3q-10 0 -19 -9t-14 -18q-9 -14 -22 -39
t-23 -51.5t-10 -43.5q0 -12 4 -12z" />
    <glyph glyph-name="guillemotleft" unicode="&#xab;" horiz-adv-x="420" 
d="M229 6l-8 4q-22 35 -52 59t-60 51q-2 2 -2 6t12 21.5t30 41t37 47.5t34.5 42t20.5 23t9 8t11 3q6 0 6 -6q0 -3 -10 -17.5t-25.5 -35t-31.5 -41.5t-28.5 -37.5t-16.5 -21.5q6 -8 20 -27t29 -41t26 -40t11 -26q0 -5 -3.5 -9.5t-8.5 -3.5zM369 6l-8 4q-22 35 -51.5 59
t-59.5 51q-2 2 -2 6t12 21.5t29.5 41t37 47.5t34.5 42t20 23t9 8t11 3q6 0 6 -6q0 -3 -10 -17.5t-25 -35t-31 -41.5t-28.5 -37.5t-17.5 -21.5q6 -8 20 -27t29 -41t26 -40t11 -26q0 -5 -3 -9.5t-9 -3.5z" />
    <glyph glyph-name="logicalnot" unicode="&#xac;" horiz-adv-x="596" 
d="M526 31q-9 0 -10 10q1 22 2.5 43t2.5 41q2 21 5 42t8 42l-42 -3q-11 -1 -22 -1.5t-22 -2.5l-14 -2t-12 -3q-6 -1 -11.5 -2.5t-10.5 -2.5t-11 -2.5t-11 -1.5q-10 -3 -28 -1l-37 3q-11 1 -20 3t-16 4q-18 -3 -35 -3h-40h-7.5t-7.5 -1l-17 -2q-9 -2 -20 0q-2 0 -4.5 0.5
t-4.5 0.5q-4 0 -10 -2q-10 -4 -20 -6.5t-21 -3.5l-22 -2l-22 -2q-4 0 -6 2h-1q-8 1 -10 9q0 6 8 11l77 3q20 0 39 1.5t38 3.5q12 1 25 5q12 5 22 6l22 3q12 0 24 -4q15 1 30 2.5t29 2.5q15 2 30 3l30 2q27 1 55 0q29 -1 57 0l15 2l16 3q5 0 8 -3q2 0 3 1h3q12 0 12 -12
q0 -11 -2 -22.5t-4 -22.5t-5 -22.5t-6 -22.5l-6 -22t-5 -22q-6 -21 -9 -46q-3 -6 -9 -6z" />
    <glyph glyph-name="uni00AD" unicode="&#xad;" 
 />
    <glyph glyph-name="registered" unicode="&#xae;" horiz-adv-x="638" 
d="M217 29q-45 0 -85.5 19t-65.5 54t-25 83q0 49 23 97t62 91.5t87.5 77t99.5 52.5t97 19t85 -19.5t62.5 -55t23.5 -83.5t-22.5 -96t-61 -91t-86 -76.5t-98 -52.5t-96.5 -19zM408 123q35 28 65.5 64.5t50 79.5t19.5 89q0 63 -39 104.5t-104 41.5q-58 0 -115.5 -29.5
t-98.5 -68.5q38 14 83.5 24.5t85.5 10.5q17 0 40 -3t44.5 -11.5t35.5 -23.5t14 -38q0 -28 -20 -47.5t-50.5 -31.5t-61.5 -17.5t-53 -5.5q5 -17 14 -40t22 -45t30 -37t38 -16zM231 50q43 0 83.5 16.5t74.5 41.5q-27 7 -50.5 35t-40 62t-24.5 59q-3 0 -6.5 0.5t-5.5 2.5
q5 2 9.5 4t8.5 5l9 -3q19 3 48 9t58 17t49 28.5t20 42.5t-20.5 37t-47.5 16t-45 4q-25 0 -62.5 -9t-73.5 -21.5t-59 -24.5q-31 -37 -55 -87.5t-24 -100.5q0 -41 22.5 -71.5t57.5 -46.5t74 -16zM150 76q-3 0 -5.5 8t-4 16.5t-1.5 11.5q0 20 15.5 52.5t39.5 70.5t51 75
t51.5 66.5t39.5 44.5l22 -11q-6 -11 -15 -21.5t-17 -21.5q-19 -24 -46.5 -59.5t-54.5 -75t-46.5 -77.5t-24.5 -68q0 -1 -0.5 -6t-3.5 -5z" />
    <glyph glyph-name="macron" unicode="&#xaf;" horiz-adv-x="211" 
d="M14 416q-6 0 -10 8t-4 15l1 2q11 4 30 5.5t38.5 2.5t31.5 1q17 0 46 -2t48 -4q16 -1 16 -7q0 -8 -18 -11q-22 -3 -56 -5t-67.5 -3.5t-55.5 -1.5z" />
    <glyph glyph-name="degree" unicode="&#xb0;" horiz-adv-x="251" 
d="M128 358q-37 0 -63.5 26.5t-26.5 63.5q0 38 26.5 64.5t63.5 26.5t63.5 -26.5t26.5 -64.5q0 -37 -26.5 -63.5t-63.5 -26.5zM128 395q22 0 37.5 15.5t15.5 37.5t-15.5 38t-37.5 16t-37.5 -16t-15.5 -38t15.5 -37.5t37.5 -15.5z" />
    <glyph glyph-name="plusminus" unicode="&#xb1;" horiz-adv-x="438" 
d="M222 68q-3 0 -3.5 8.5t-0.5 10.5q0 34 6.5 67t10.5 66q-35 -1 -70 -3t-70 -2q-7 0 -11.5 7.5t-4.5 13.5l6 5q23 3 46 3.5t46 0.5h61q3 25 5.5 49t4.5 49q2 9 2 20t3 20q7 16 25 18l4 -5q-1 -38 -6.5 -75.5t-11.5 -75.5q8 0 30.5 -0.5t49 -1.5t47.5 -2t26 -3t5 -6l-1 -4
l-10 -6q-37 0 -75 -0.5t-76 -0.5q-1 -8 -5 -30t-9 -47.5t-9 -45.5t-7 -24q-4 -6 -8 -6zM115 -5q-6 0 -11.5 9.5t-6.5 14.5l2 1q11 3 29.5 4.5t38 2t31.5 0.5q11 0 32 -1t41.5 -3.5t29.5 -7.5q3 0 3 -3q0 -5 -7 -5q-46 0 -91 -6t-91 -6z" />
    <glyph glyph-name="uni00B2" unicode="&#xb2;" horiz-adv-x="385" 
d="M275 433q-24 0 -46.5 7.5t-44.5 15.5q-19 8 -37 14t-36 7q-6 -1 -11.5 -5.5t-12.5 -9.5q-8 -6 -17.5 -12t-18.5 -8q-4 -1 -7 -1h-5q-13 0 -13 10q0 8 9 18t19 16q11 5 31 9t30 3q44 26 81 51.5t63 50.5q23 22 36.5 48t13.5 48q0 18 -11 30t-36 12q-22 0 -49.5 -9.5
t-51 -24.5t-32.5 -30q-3 -3 -5 -3q-5 0 -5 8q0 6 2 8q13 20 40.5 39t62.5 32t70 13q32 0 46.5 -14t14.5 -37q0 -30 -22 -67.5t-56 -66.5q-30 -27 -66.5 -51t-71.5 -43q16 -3 29.5 -7.5t27.5 -9.5q19 -6 38 -11.5t44 -5.5q22 0 35.5 8t13.5 19q0 16 -25 25q-5 2 -5 7
q0 10 11 6q40 -11 40 -40q0 -21 -21 -35t-52 -14z" />
    <glyph glyph-name="uni00B3" unicode="&#xb3;" horiz-adv-x="379" 
d="M142 440q-57 0 -89 19t-32 56q0 25 17 42.5t42 26.5t49 9q9 0 9 -7v-2q0 -6 -9 -6q-24 0 -47.5 -16.5t-23.5 -45.5q0 -27 22.5 -42.5t62.5 -15.5q41 0 81 13t67 39.5t27 64.5q0 54 -73 54q-29 0 -50 -8q-6 -2 -10 -2q-12 0 -14 12q0 7 5 12.5t12 5.5q19 0 45 4t47 14
q17 8 26.5 21.5t9.5 27.5q0 11 -8 18t-24 7q-8 0 -19 -3q-23 -4 -49 -15.5t-41 -22.5q-4 -2 -6 -2q-5 0 -7 9q0 14 10 21q7 4 17 11.5t17 15.5q3 3 7 3q6 0 6 -7q1 -1 0 -3q16 6 39 12.5t45 6.5q51 0 51 -42q0 -25 -23.5 -47t-49.5 -31q72 -12 72 -69q0 -33 -20 -58.5
t-52 -43t-68.5 -27t-70.5 -9.5z" />
    <glyph glyph-name="acute" unicode="&#xb4;" horiz-adv-x="180" 
d="M3 420q-3 0 -3 2q0 5 5 10t8 7q9 10 24 25l31 31t24 26q5 7 11 11.5t15 4.5q8 0 17 -5.5t9 -13.5q0 -7 -16.5 -19t-25.5 -19q-14 -9 -35 -23.5t-39 -25.5t-25 -11z" />
    <glyph glyph-name="uni03BC" unicode="&#xb5;" horiz-adv-x="297" 
d="M-10 -503q-33 0 -61.5 17.5t-45 46t-16.5 61.5v3q1 41 17 90t40 101t49 100.5t43 86.5q29 63 55 130t26 137q-4 -12 -15 -33t-25 -45t-27.5 -44.5t-21.5 -31.5l-2 -1q-5 0 -5 4q0 3 7 15.5t15.5 25.5t10.5 17q20 33 33.5 65.5t24.5 68.5q3 8 9 17t16 9q9 0 13 -9t5 -20
t1 -18q0 -42 -12.5 -86t-28.5 -87.5t-28 -83.5q46 35 77.5 72.5t62.5 84.5q2 10 5.5 29.5t9.5 38t12 24.5q7 7 18 7q5 0 13 -2t8 -9q0 -16 -5 -29t-14 -26q-10 -35 -16 -72t-6 -74q0 -16 5 -32t25 -16q13 0 25 8.5t20 17t9 8.5q3 0 3 -6v-2q-12 -17 -32.5 -32.5t-43.5 -15.5
q-19 0 -28.5 12.5t-12 29.5t-2.5 32q0 21 1.5 42.5t3.5 42.5q-27 -51 -67 -89t-86 -72q-25 -59 -54.5 -129t-50.5 -141.5t-21 -136.5q0 -19 4.5 -40t17 -35t36.5 -14q22 0 48 11t44 22q-6 -12 -21.5 -22t-33 -16.5t-31.5 -6.5z" />
    <glyph glyph-name="paragraph" unicode="&#xb6;" horiz-adv-x="540" 
d="M-61 -125q-4 0 -15.5 2.5t-11.5 11.5q0 7 8 8.5t11 1.5q50 0 93.5 42.5t81 114.5t69 163.5t58.5 190.5q-21 2 -47 10.5t-44.5 30t-18.5 61.5q0 7 0.5 14t1.5 14q8 48 51.5 86.5t117.5 61t173 22.5q19 29 45.5 54.5t56.5 25.5q5 0 13 -2t8 -13q0 -18 -16 -18
q-20 0 -39 -18.5t-35 -44t-27 -47.5q-24 -50 -44 -103.5t-41 -109.5q-18 -51 -36.5 -107.5t-40 -111t-49 -100.5t-64 -76t-84.5 -37q-13 -19 -26.5 -37t-29.5 -35q-26 -26 -56 -40.5t-63 -14.5zM127 24q50 15 80.5 56t55 106t54.5 152q29 85 50.5 144t39.5 102.5t36 80.5
q-6 0 -22 -1.5t-28 -18.5q-33 -48 -64.5 -123t-64.5 -167.5t-74 -194.5q-15 -39 -30.5 -72.5t-32.5 -63.5z" />
    <glyph glyph-name="periodcentered" unicode="&#xb7;" horiz-adv-x="157" 
d="M89 263q-10 0 -18 12t-8 19q0 18 22 25q5 5 19.5 12t30 13t23.5 6q1 0 4 -2q-4 -4 -9.5 -8.5t-9.5 -9.5q-8 -9 -13.5 -25t-14.5 -29t-26 -13z" />
    <glyph glyph-name="cedilla" unicode="&#xb8;" horiz-adv-x="123" 
d="M7 -198q-4 0 -5.5 3t-1.5 5q0 3 3 4.5t4 1.5q26 4 48 13t22 37q0 13 -7.5 25t-15.5 24.5t-8 25.5q0 23 18.5 44.5t50.5 21.5q9 0 8 -5q-16 -2 -26.5 -16.5t-10.5 -30.5q0 -10 9 -21.5t17.5 -25t8.5 -29.5q0 -26 -19.5 -43.5t-46.5 -25.5t-48 -8z" />
    <glyph glyph-name="uni00B9" unicode="&#xb9;" horiz-adv-x="273" 
d="M53 419q-4 0 -7.5 6t-3.5 12q0 7 6 9l9 3l20 4t20 3q6 30 19 73.5t28.5 88.5t26.5 79q-14 -9 -28.5 -16t-30.5 -13q-2 -1 -5 -1q-8 0 -8 8t5 10q26 11 44.5 25.5t25.5 20.5l20 19q5 11 19 11q8 0 12.5 -4.5t1.5 -11.5q-28 -67 -55 -136.5t-49 -148.5q17 -1 35.5 -3.5
t36.5 -5.5q8 -2 8 -8q0 -10 -10 -8q-8 2 -15.5 2h-15.5q-28 0 -54 -5.5t-53 -12.5h-2z" />
    <glyph glyph-name="ordmasculine" unicode="&#xba;" horiz-adv-x="225" 
d="M108 397q-22 0 -35 13t-13 33q0 22 5.5 43t12.5 41q-4 4 -4.5 8.5t-0.5 10.5q0 14 13.5 29.5t30 27t24.5 13.5q5 7 11.5 9t10.5 2q33 0 42.5 -20t7.5 -49q4 1 15 5.5t13 4.5q9 0 9 -9q0 -1 -1 -2.5t-9 -4.5l-29 -11q-3 -19 -11 -43.5t-20.5 -47.5t-30.5 -38t-41 -15z
M135 538q14 0 26 3.5t25 7.5q0 3 0.5 6.5t0.5 6.5v11q0 9 -2 16.5t-13 7.5q-20 0 -34.5 -19.5t-22.5 -35.5q8 -4 20 -4zM120 413q13 0 23.5 13t18 33t13 40t8.5 34q-18 -7 -37.5 -11.5t-39.5 -2.5q-6 -16 -10.5 -37t-4.5 -38q0 -9 4.5 -20t24.5 -11z" />
    <glyph glyph-name="guillemotright" unicode="&#xbb;" horiz-adv-x="420" 
d="M259 19q-7 0 -7 6q0 3 10 17.5t25.5 35t31.5 41.5t29 37.5t17 21.5q-6 8 -20 27t-29 41t-26 40.5t-11 25.5q0 5 3 9.5t9 3.5l7 -4q23 -34 52.5 -58.5t59.5 -51.5q2 -2 2 -6t-12 -21.5t-29.5 -41t-37 -47.5t-34.5 -42t-20 -23q-4 -4 -8.5 -7.5t-11.5 -3.5zM103 19
q-7 0 -7 6q0 3 10 17.5t25.5 35t31.5 41.5t29 37.5t17 21.5q-6 8 -20 27t-29 41t-26 40.5t-11 25.5q0 5 3 9.5t9 3.5l7 -4q23 -34 52.5 -58.5t59.5 -51.5q2 -2 2 -6t-12 -21.5t-29.5 -41t-37 -47.5t-34.5 -42t-20 -23q-4 -4 -8.5 -7.5t-11.5 -3.5z" />
    <glyph glyph-name="onequarter" unicode="&#xbc;" horiz-adv-x="653" 
d="M371 -5q-5 0 -8 5t-3 12q1 6 20.5 11.5t42.5 6.5l17 1q0 31 10 64t16 47q-9 1 -20 1.5t-23 0.5q-29 0 -60 -3t-50 -11q-1 -1 -4 -1q-13 0 -17 15q-1 2 -1 6q0 11 9 12q2 2 9 3.5t9 1.5q21 12 54.5 33t68 44.5t61 46.5t34.5 39q0 2 4.5 3.5t8.5 1.5q9 0 16.5 -4t5.5 -9
q-6 -14 -13 -29.5t-15 -31.5q-14 -30 -27 -58.5t-21 -48.5q5 -2 19.5 -6.5t27.5 -4.5q15 0 21.5 7.5t6.5 17.5q0 9 -5 19q-3 7 5 7t15 -10.5t8 -23.5q0 -33 -50 -33q-14 0 -30 3.5t-23 5.5q-3 -5 -6 -17q-7 -19 -15.5 -43.5t-11.5 -44.5q8 -1 18 -2.5t19 -3.5q5 -1 10 -1.5
t8 -0.5q7 -2 7 -9q0 -9 -10 -7t-20 3t-19 1q-23 0 -46 -4.5t-52 -11.5h-1zM470 162q5 11 9 24q7 20 15.5 42.5t17.5 42.5q-20 -17 -47 -35.5t-54.5 -36l-49.5 -31.5q7 1 13.5 1h13.5q54 0 82 -7zM79 335q-4 0 -7.5 6t-3.5 12q0 7 6 9l9 3l20 4t20 3q6 30 19 73.5t28.5 88.5
t26.5 79q-14 -9 -28.5 -16t-30.5 -13q-2 -1 -5 -1q-8 0 -8 8t5 10q26 11 44.5 25.5t25.5 20.5l20 19q5 11 19 11q8 0 12.5 -4.5t1.5 -11.5q-28 -67 -55 -136.5t-49 -148.5q17 -1 35.5 -3.5t36.5 -5.5q8 -2 8 -8q0 -10 -10 -8q-8 2 -15.5 2h-15.5q-28 0 -54 -5.5t-53 -12.5
h-2zM67 -41q-7 0 -7 12q0 11 6 21q103 156 205 291t206 274q6 8 14 15t15 14q10 8 24 14t31 6h4q4 0 8 -0.5t5 -3.5q1 -1 -1 -3.5t-3 -3.5q-56 -60 -119.5 -135t-128 -157.5t-126 -166.5t-114.5 -162q-11 -15 -19 -15z" />
    <glyph glyph-name="onehalf" unicode="&#xbd;" horiz-adv-x="684" 
d="M79 335q-4 0 -7.5 6t-3.5 12q0 7 6 9l9 3l20 4t20 3q6 30 19 73.5t28.5 88.5t26.5 79q-14 -9 -28.5 -16t-30.5 -13q-2 -1 -5 -1q-8 0 -8 8t5 10q26 11 44.5 25.5t25.5 20.5l20 19q5 11 19 11q8 0 12.5 -4.5t1.5 -11.5q-28 -67 -55 -136.5t-49 -148.5q17 -1 35.5 -3.5
t36.5 -5.5q8 -2 8 -8q0 -10 -10 -8q-8 2 -15.5 2h-15.5q-28 0 -54 -5.5t-53 -12.5h-2zM67 -41q-7 0 -7 12q0 11 6 21q103 156 205 291t206 274q6 8 14 15t15 14q10 8 24 14t31 6h4q4 0 8 -0.5t5 -3.5q1 -1 -1 -3.5t-3 -3.5q-56 -60 -119.5 -135t-128 -157.5t-126 -166.5
t-114.5 -162q-11 -15 -19 -15zM554 -13q-24 0 -46.5 7.5t-44.5 15.5q-19 8 -37 14t-36 7q-6 -1 -11.5 -5.5t-12.5 -9.5q-8 -6 -17.5 -12t-18.5 -8q-4 -1 -7 -1h-5q-13 0 -13 10q0 8 9 18t19 16q11 5 31 9t30 3q44 26 81 51.5t63 50.5q23 22 36.5 48t13.5 48q0 18 -11 30
t-36 12q-22 0 -49.5 -9.5t-51 -24.5t-32.5 -30q-3 -3 -5 -3q-5 0 -5 8q0 6 2 8q13 20 40.5 39t62.5 32t70 13q32 0 46.5 -14t14.5 -37q0 -30 -22 -67.5t-56 -66.5q-30 -27 -66.5 -51t-71.5 -43q16 -3 29.5 -7.5t27.5 -9.5q19 -6 38 -11.5t44 -5.5q22 0 35.5 8t13.5 19
q0 16 -25 25q-5 2 -5 7q0 10 11 6q40 -11 40 -40q0 -21 -21 -35t-52 -14z" />
    <glyph glyph-name="threequarters" unicode="&#xbe;" horiz-adv-x="758" 
d="M171 324q-57 0 -89 19t-32 56q0 25 17 42.5t42 26.5t49 9q9 0 9 -7v-2q0 -6 -9 -6q-24 0 -47.5 -16.5t-23.5 -45.5q0 -27 22.5 -42.5t62.5 -15.5q41 0 81 13t67 39.5t27 64.5q0 54 -73 54q-29 0 -50 -8q-6 -2 -10 -2q-12 0 -14 12q0 7 5 12.5t12 5.5q19 0 45 4t47 14
q17 8 26.5 21.5t9.5 27.5q0 11 -8 18t-24 7q-8 0 -19 -3q-23 -4 -49 -15.5t-41 -22.5q-4 -2 -6 -2q-5 0 -7 9q0 14 10 21q7 4 17 11.5t17 15.5q3 3 7 3q6 0 6 -7q1 -1 0 -3q16 6 39 12.5t45 6.5q51 0 51 -42q0 -25 -23.5 -47t-49.5 -31q72 -12 72 -69q0 -33 -20 -58.5
t-52 -43t-68.5 -27t-70.5 -9.5zM496 -5q-5 0 -8 5t-3 12q1 6 20.5 11.5t42.5 6.5l17 1q0 31 10 64t16 47q-9 1 -20 1.5t-23 0.5q-29 0 -60 -3t-50 -11q-1 -1 -4 -1q-13 0 -17 15q-1 2 -1 6q0 11 9 12q2 2 9 3.5t9 1.5q21 12 54.5 33t68 44.5t61 46.5t34.5 39q0 2 4.5 3.5
t8.5 1.5q9 0 16.5 -4t5.5 -9q-6 -14 -13 -29.5t-15 -31.5q-14 -30 -27 -58.5t-21 -48.5q5 -2 19.5 -6.5t27.5 -4.5q15 0 21.5 7.5t6.5 17.5q0 9 -5 19q-3 7 5 7t15 -10.5t8 -23.5q0 -33 -50 -33q-14 0 -30 3.5t-23 5.5q-3 -5 -6 -17q-7 -19 -15.5 -43.5t-11.5 -44.5
q8 -1 18 -2.5t19 -3.5q5 -1 10 -1.5t8 -0.5q7 -2 7 -9q0 -9 -10 -7t-20 3t-19 1q-23 0 -46 -4.5t-52 -11.5h-1zM595 162q5 11 9 24q7 20 15.5 42.5t17.5 42.5q-20 -17 -47 -35.5t-54.5 -36l-49.5 -31.5q7 1 13.5 1h13.5q54 0 82 -7zM172 -41q-7 0 -7 12q0 11 6 21
q103 156 205 291t206 274q6 8 14 15t15 14q10 8 24 14t31 6h4q4 0 8 -0.5t5 -3.5q1 -1 -1 -3.5t-3 -3.5q-56 -60 -119.5 -135t-128 -157.5t-126 -166.5t-114.5 -162q-11 -15 -19 -15z" />
    <glyph glyph-name="questiondown" unicode="&#xbf;" horiz-adv-x="330" 
d="M208 288q-2 0 -5 1t-3 4q0 4 4.5 7t6.5 5q10 7 23.5 20t28 24t25.5 11q4 0 9 -8t9 -17.5t4 -13.5q0 -3 -2 -3q-22 -5 -42.5 -11.5t-41.5 -14.5q-4 -1 -7.5 -2.5t-8.5 -1.5zM43 -257q-33 0 -63.5 10.5t-50 33.5t-19.5 61q0 31 19 61t49 58.5t64.5 54t67 46.5t54.5 36
q21 14 31.5 32t17.5 41q2 8 4 15.5t6 14.5q2 5 8 5q10 0 14 -12.5t4 -20.5q0 -13 -4.5 -25.5t-12.5 -23.5q-5 -7 -28.5 -25t-54 -38.5t-57 -39t-38.5 -27.5q-21 -17 -41 -41t-33 -52t-13 -57q0 -30 15.5 -47.5t40.5 -25t51 -7.5q27 0 59 7t61.5 22.5t48 39.5t18.5 57v7.5
t-1 7.5q-2 10 -5 19.5t-11 16.5q-3 2 -11.5 5t-8.5 5q0 7 7.5 10t12.5 3q25 0 42 -23t17 -46q0 -22 -13 -42q-22 -36 -65 -62t-92 -40t-90 -14z" />
    <glyph glyph-name="Agrave" unicode="&#xc0;" horiz-adv-x="594" 
d="M-16 -31q-4 0 -10 1t-6 7q0 3 6.5 13.5t13.5 21.5t9 15q3 5 4.5 10.5t3.5 9.5q2 7 12 7q4 0 6 -1q18 31 39.5 65t39.5 61t24 35q-10 0 -21 -1t-23 -1q-7 0 -18.5 2t-11.5 9q0 1 0.5 1.5t0.5 1.5q8 23 17.5 27.5t31.5 4.5h26.5t26.5 -2q46 67 82 114.5t67.5 84t63.5 68.5
t70 67q-1 5 -2.5 11.5t-1.5 11.5q0 8 13 17.5t19 9.5q4 0 7.5 -1.5t4.5 -8.5q3 -24 6 -65.5t5.5 -92.5t4 -103.5t1.5 -98.5v-34h4q2 0 12.5 -0.5t10.5 -3.5q0 -8 -12.5 -11.5t-15.5 -3.5q0 -34 -1 -64t-3 -63q-1 -16 -2 -32.5t-3 -33.5q-1 -6 -9 -15.5t-17.5 -17t-16.5 -7.5
q-4 0 -4 4q0 2 2.5 25.5t5.5 45.5q1 4 2.5 27.5t3.5 58t2 70.5q-24 0 -103.5 -0.5t-196.5 -0.5q-7 -10 -20 -29.5t-26.5 -40.5t-22.5 -38q-14 -24 -31.5 -52.5t-31.5 -53.5q-2 -4 -9.5 -17t-14.5 -13h-1t-2 1q-3 -2 -11 -2zM456 236q0 20 -0.5 62t-2 91.5t-4 95t-5.5 73.5
q-12 -6 -34.5 -29.5t-52 -57.5t-60.5 -73.5t-59.5 -78t-49.5 -69.5q8 -2 17.5 -5t15.5 -7q14 1 32 0.5t37 -0.5q42 0 83.5 -0.5t82.5 -1.5zM544 709q-6 -1 -26.5 5.5t-44 16.5t-38.5 16q-25 11 -44 20.5t-21 16.5q-1 8 7.5 16t18.5 8q8 0 13.5 -2.5t10.5 -7.5
q11 -8 33 -22.5t44.5 -28t32.5 -21.5q4 -2 9.5 -6t6.5 -8q1 -1 0 -2t-2 -1z" />
    <glyph glyph-name="Aacute" unicode="&#xc1;" horiz-adv-x="594" 
d="M-16 -31q-4 0 -10 1t-6 7q0 3 6.5 13.5t13.5 21.5t9 15q3 5 4.5 10.5t3.5 9.5q2 7 12 7q4 0 6 -1q18 31 39.5 65t39.5 61t24 35q-10 0 -21 -1t-23 -1q-7 0 -18.5 2t-11.5 9q0 1 0.5 1.5t0.5 1.5q8 23 17.5 27.5t31.5 4.5h26.5t26.5 -2q46 67 82 114.5t67.5 84t63.5 68.5
t70 67q-1 5 -2.5 11.5t-1.5 11.5q0 8 13 17.5t19 9.5q4 0 7.5 -1.5t4.5 -8.5q3 -24 6 -65.5t5.5 -92.5t4 -103.5t1.5 -98.5v-34h4q2 0 12.5 -0.5t10.5 -3.5q0 -8 -12.5 -11.5t-15.5 -3.5q0 -34 -1 -64t-3 -63q-1 -16 -2 -32.5t-3 -33.5q-1 -6 -9 -15.5t-17.5 -17t-16.5 -7.5
q-4 0 -4 4q0 2 2.5 25.5t5.5 45.5q1 4 2.5 27.5t3.5 58t2 70.5q-24 0 -103.5 -0.5t-196.5 -0.5q-7 -10 -20 -29.5t-26.5 -40.5t-22.5 -38q-14 -24 -31.5 -52.5t-31.5 -53.5q-2 -4 -9.5 -17t-14.5 -13h-1t-2 1q-3 -2 -11 -2zM456 236q0 20 -0.5 62t-2 91.5t-4 95t-5.5 73.5
q-12 -6 -34.5 -29.5t-52 -57.5t-60.5 -73.5t-59.5 -78t-49.5 -69.5q8 -2 17.5 -5t15.5 -7q14 1 32 0.5t37 -0.5q42 0 83.5 -0.5t82.5 -1.5zM388 709q-1 0 -2 1t0 2q1 4 6.5 8t9.5 6q10 8 32.5 21.5t45 28t32.5 22.5q5 5 11 7.5t13 2.5q10 0 19 -8t7 -16q-1 -7 -20.5 -16.5
t-44.5 -20.5q-15 -6 -38.5 -16t-43.5 -16.5t-27 -5.5z" />
    <glyph glyph-name="Acircumflex" unicode="&#xc2;" horiz-adv-x="594" 
d="M-16 -31q-4 0 -10 1t-6 7q0 3 6.5 13.5t13.5 21.5t9 15q3 5 4.5 10.5t3.5 9.5q2 7 12 7q4 0 6 -1q18 31 39.5 65t39.5 61t24 35q-10 0 -21 -1t-23 -1q-7 0 -18.5 2t-11.5 9q0 1 0.5 1.5t0.5 1.5q8 23 17.5 27.5t31.5 4.5h26.5t26.5 -2q46 67 82 114.5t67.5 84t63.5 68.5
t70 67q-1 5 -2.5 11.5t-1.5 11.5q0 8 13 17.5t19 9.5q4 0 7.5 -1.5t4.5 -8.5q3 -24 6 -65.5t5.5 -92.5t4 -103.5t1.5 -98.5v-34h4q2 0 12.5 -0.5t10.5 -3.5q0 -8 -12.5 -11.5t-15.5 -3.5q0 -34 -1 -64t-3 -63q-1 -16 -2 -32.5t-3 -33.5q-1 -6 -9 -15.5t-17.5 -17t-16.5 -7.5
q-4 0 -4 4q0 2 2.5 25.5t5.5 45.5q1 4 2.5 27.5t3.5 58t2 70.5q-24 0 -103.5 -0.5t-196.5 -0.5q-7 -10 -20 -29.5t-26.5 -40.5t-22.5 -38q-14 -24 -31.5 -52.5t-31.5 -53.5q-2 -4 -9.5 -17t-14.5 -13h-1t-2 1q-3 -2 -11 -2zM456 236q0 20 -0.5 62t-2 91.5t-4 95t-5.5 73.5
q-12 -6 -34.5 -29.5t-52 -57.5t-60.5 -73.5t-59.5 -78t-49.5 -69.5q8 -2 17.5 -5t15.5 -7q14 1 32 0.5t37 -0.5q42 0 83.5 -0.5t82.5 -1.5zM344 703l-1 0.5t-1 1.5q2 5 8.5 10t10.5 7q20 14 44.5 29.5t47 31t34.5 25.5q15 15 32 15q16 0 23 -15q8 -16 25.5 -41t30.5 -45
q2 -2 5 -7t1 -10q-2 -2 -4 -2q-4 0 -15.5 9.5t-26.5 23t-28 26t-19 19.5q-20 -11 -46.5 -24.5t-52 -25.5t-44.5 -20t-24 -8z" />
    <glyph glyph-name="Atilde" unicode="&#xc3;" horiz-adv-x="594" 
d="M-16 -31q-4 0 -10 1t-6 7q0 3 6.5 13.5t13.5 21.5t9 15q3 5 4.5 10.5t3.5 9.5q2 7 12 7q4 0 6 -1q18 31 39.5 65t39.5 61t24 35q-10 0 -21 -1t-23 -1q-7 0 -18.5 2t-11.5 9q0 1 0.5 1.5t0.5 1.5q8 23 17.5 27.5t31.5 4.5h26.5t26.5 -2q46 67 82 114.5t67.5 84t63.5 68.5
t70 67q-1 5 -2.5 11.5t-1.5 11.5q0 8 13 17.5t19 9.5q4 0 7.5 -1.5t4.5 -8.5q3 -24 6 -65.5t5.5 -92.5t4 -103.5t1.5 -98.5v-34h4q2 0 12.5 -0.5t10.5 -3.5q0 -8 -12.5 -11.5t-15.5 -3.5q0 -34 -1 -64t-3 -63q-1 -16 -2 -32.5t-3 -33.5q-1 -6 -9 -15.5t-17.5 -17t-16.5 -7.5
q-4 0 -4 4q0 2 2.5 25.5t5.5 45.5q1 4 2.5 27.5t3.5 58t2 70.5q-24 0 -103.5 -0.5t-196.5 -0.5q-7 -10 -20 -29.5t-26.5 -40.5t-22.5 -38q-14 -24 -31.5 -52.5t-31.5 -53.5q-2 -4 -9.5 -17t-14.5 -13h-1t-2 1q-3 -2 -11 -2zM456 236q0 20 -0.5 62t-2 91.5t-4 95t-5.5 73.5
q-12 -6 -34.5 -29.5t-52 -57.5t-60.5 -73.5t-59.5 -78t-49.5 -69.5q8 -2 17.5 -5t15.5 -7q14 1 32 0.5t37 -0.5q42 0 83.5 -0.5t82.5 -1.5zM552 705q-18 0 -41.5 8t-46.5 15.5t-40 7.5q-13 0 -25 -7t-20.5 -14t-12.5 -7q-3 0 -3 5q2 7 12 20.5t26 25.5t33 12t39 -7t46 -14
t48 -7q16 0 28 11t16 12q4 0 2 -13q-9 -16 -24.5 -32t-36.5 -16z" />
    <glyph glyph-name="Adieresis" unicode="&#xc4;" horiz-adv-x="594" 
d="M529 710q-8 0 -14 10.5t-6 18.5q0 10 12 20t26.5 16.5t22.5 6.5t8 -4q0 -12 -14 -32q-6 -7 -10.5 -21.5t-24.5 -14.5zM410 711q-8 0 -14 10.5t-6 18.5q0 10 12 20t26.5 16.5t22.5 6.5t8 -4q0 -12 -14 -32q-6 -7 -10.5 -21.5t-24.5 -14.5zM-16 -31q-4 0 -10 1t-6 7
q0 3 6.5 13.5t13.5 21.5t9 15q3 5 4.5 10.5t3.5 9.5q2 7 12 7q4 0 6 -1q18 31 39.5 65t39.5 61t24 35q-10 0 -21 -1t-23 -1q-7 0 -18.5 2t-11.5 9q0 1 0.5 1.5t0.5 1.5q8 23 17.5 27.5t31.5 4.5h26.5t26.5 -2q46 67 82 114.5t67.5 84t63.5 68.5t70 67q-1 5 -2.5 11.5
t-1.5 11.5q0 8 13 17.5t19 9.5q4 0 7.5 -1.5t4.5 -8.5q3 -24 6 -65.5t5.5 -92.5t4 -103.5t1.5 -98.5v-34h4q2 0 12.5 -0.5t10.5 -3.5q0 -8 -12.5 -11.5t-15.5 -3.5q0 -34 -1 -64t-3 -63q-1 -16 -2 -32.5t-3 -33.5q-1 -6 -9 -15.5t-17.5 -17t-16.5 -7.5q-4 0 -4 4
q0 2 2.5 25.5t5.5 45.5q1 4 2.5 27.5t3.5 58t2 70.5q-24 0 -103.5 -0.5t-196.5 -0.5q-7 -10 -20 -29.5t-26.5 -40.5t-22.5 -38q-14 -24 -31.5 -52.5t-31.5 -53.5q-2 -4 -9.5 -17t-14.5 -13h-1t-2 1q-3 -2 -11 -2zM456 236q0 20 -0.5 62t-2 91.5t-4 95t-5.5 73.5
q-12 -6 -34.5 -29.5t-52 -57.5t-60.5 -73.5t-59.5 -78t-49.5 -69.5q8 -2 17.5 -5t15.5 -7q14 1 32 0.5t37 -0.5q42 0 83.5 -0.5t82.5 -1.5z" />
    <glyph glyph-name="Aring" unicode="&#xc5;" horiz-adv-x="594" 
d="M-16 -31q-4 0 -10 1t-6 7q0 3 6.5 13.5t13.5 21.5t9 15q3 5 4.5 10.5t3.5 9.5q2 7 12 7q4 0 6 -1q18 31 39.5 65t39.5 61t24 35q-10 0 -21 -1t-23 -1q-7 0 -18.5 2t-11.5 9q0 1 0.5 1.5t0.5 1.5q8 23 17.5 27.5t31.5 4.5h26.5t26.5 -2q46 67 82 114.5t67.5 84t63.5 68.5
t70 67q-1 5 -2.5 11.5t-1.5 11.5q0 8 13 17.5t19 9.5q4 0 7.5 -1.5t4.5 -8.5q3 -24 6 -65.5t5.5 -92.5t4 -103.5t1.5 -98.5v-34h4q2 0 12.5 -0.5t10.5 -3.5q0 -8 -12.5 -11.5t-15.5 -3.5q0 -34 -1 -64t-3 -63q-1 -16 -2 -32.5t-3 -33.5q-1 -6 -9 -15.5t-17.5 -17t-16.5 -7.5
q-4 0 -4 4q0 2 2.5 25.5t5.5 45.5q1 4 2.5 27.5t3.5 58t2 70.5q-24 0 -103.5 -0.5t-196.5 -0.5q-7 -10 -20 -29.5t-26.5 -40.5t-22.5 -38q-14 -24 -31.5 -52.5t-31.5 -53.5q-2 -4 -9.5 -17t-14.5 -13h-1t-2 1q-3 -2 -11 -2zM456 236q0 20 -0.5 62t-2 91.5t-4 95t-5.5 73.5
q-12 -6 -34.5 -29.5t-52 -57.5t-60.5 -73.5t-59.5 -78t-49.5 -69.5q8 -2 17.5 -5t15.5 -7q14 1 32 0.5t37 -0.5q42 0 83.5 -0.5t82.5 -1.5zM474 707q-19 0 -37 8t-18 33t14 45t36 32t45 12q21 0 39 -12.5t18 -38.5q0 -23 -14.5 -41t-36.5 -28t-46 -10zM480 723
q26 0 40.5 20.5t14.5 38.5q0 11 -6 25t-23 14q-18 0 -33.5 -20t-15.5 -43q0 -13 5 -24t18 -11z" />
    <glyph glyph-name="AE" unicode="&#xc6;" horiz-adv-x="913" 
d="M24 -31q-4 0 -10 1t-6 7q0 3 6.5 13.5t13.5 21.5t9 15q3 5 4.5 10.5t3.5 9.5q2 7 12 7q4 0 6 -1q23 43 49.5 82.5t53.5 78.5q-10 0 -21 -1t-23 -1q-7 0 -18.5 2t-11.5 9q0 1 0.5 1.5t0.5 1.5q8 23 17.5 27.5t31.5 4.5h26.5t26.5 -2q24 35 62 76t82.5 82.5t89 78.5
t84 65.5t65.5 43.5q6 0 28 -1t52 -3t61 -4t56.5 -3t36.5 -1h6q14 0 19 4t8 8t8 4q7 0 17.5 -7t10.5 -15q0 -4 -2 -5t-4 -3q-24 -16 -30.5 -43t-13.5 -53q-1 -3 -2.5 -9t-6.5 -6q-4 0 -5.5 6t-1.5 10q0 10 2.5 27.5t5.5 35t6 26.5q-3 -2 -11 -2q-7 0 -14 1t-14 1q-28 2 -57 4
t-58 2q-8 0 -27 -0.5t-26 -5.5q-2 -2 -7.5 -21.5t-12 -49t-13 -62.5t-12.5 -62t-9 -47l-12 -66q1 -2 3 -2q9 -2 20 -2.5t21 -0.5h82h25t40.5 -1t37.5 -3.5t16 -8.5q0 -4 -14 -7t-29 -4t-19 -2q-34 -2 -69 -3.5t-69 -1.5h-52q-8 -44 -18 -87t-10 -75q0 -10 1 -18.5t4 -15.5
q5 -12 24 -17t40.5 -6.5t31.5 -1.5h13.5t12.5 1q37 1 73 3.5t72 7.5q19 3 45.5 9t43.5 6h6.5t4.5 -2q0 -3 -4.5 -6t-6.5 -5q-23 -13 -55.5 -21.5t-65.5 -12t-59 -3.5h-27q-7 0 -30 0.5t-52 2.5t-57.5 4.5t-47.5 6.5t-21 10q-2 8 -2 19q0 29 9 80.5t22 105.5q-19 -1 -38 -1
h-39q-56 0 -113.5 2t-111.5 2q-26 -39 -52.5 -77t-48.5 -79l-31 -58q-2 -4 -9.5 -17t-14.5 -13h-1t-2 1q-3 -2 -11 -2zM254 237q19 1 38 1h38h85.5t86.5 -1l8 27l7 29q6 26 11.5 52t10.5 52q5 40 9.5 80t7.5 80q-26 -14 -62 -41t-76.5 -62t-79 -72t-70 -71.5t-49.5 -60.5
q9 -2 18.5 -5t16.5 -8z" />
    <glyph glyph-name="Ccedilla" unicode="&#xc7;" horiz-adv-x="653" 
d="M305 -21q-90 0 -149 35t-87.5 90t-28.5 113q0 72 25 142.5t73.5 128t118.5 92t161 34.5q65 0 107 -19t62.5 -49.5t20.5 -65.5q0 -38 -13.5 -54t-30.5 -16q-13 0 -19.5 11.5t-6.5 20.5q0 19 7 28t13.5 17.5t6.5 25.5q0 33 -43 55.5t-111 22.5q-63 0 -121 -25t-102.5 -72.5
t-70.5 -115.5t-26 -153q0 -58 23 -109t71 -82.5t123 -31.5q89 0 159.5 45t117.5 115q8 11 15 11q6 0 6 -7q0 -9 -4 -16q-51 -90 -125.5 -130.5t-171.5 -40.5zM224 -219q-4 0 -5.5 3t-1.5 5q0 3 3 4.5t4 1.5q26 4 48 13t22 37q0 13 -7.5 25t-15.5 24.5t-8 25.5
q0 23 18.5 44.5t50.5 21.5q9 0 8 -5q-16 -2 -26.5 -16.5t-10.5 -30.5q0 -10 9 -21.5t17.5 -25t8.5 -29.5q0 -26 -19.5 -43.5t-46.5 -25.5t-48 -8z" />
    <glyph glyph-name="Egrave" unicode="&#xc8;" horiz-adv-x="504" 
d="M196 -15q-45 0 -84.5 5.5t-52.5 15.5q-6 6 -7.5 17.5t-1.5 18.5q0 24 4.5 54.5t10.5 59.5t10.5 49.5t4.5 25.5q0 8 -8 11.5t-8 11.5t9.5 8.5t15.5 1.5q4 13 11 45t15.5 72t15.5 79.5t12 69.5t5 40q0 9 -9.5 9h-19.5t-10 9q0 10 11.5 14t26.5 5.5t26 1.5q56 0 111 -5
t111 -5h5q14 0 19.5 4t8.5 8t8 4q6 0 17 -7.5t11 -14.5q0 -4 -2 -5t-4 -3q-24 -16 -30.5 -43.5t-13.5 -52.5q-1 -3 -2.5 -9t-6.5 -6q-4 0 -5.5 6t-1.5 10q0 10 2.5 27t5.5 34.5t6 26.5q-1 -1 -10 -1q-14 0 -41.5 2t-56 4t-46.5 2q-8 0 -27 -0.5t-26 -5.5q-2 -1 -7.5 -23.5
t-13.5 -57t-16.5 -73t-16 -74t-12 -60t-4.5 -28.5t15 -5t30 -1h101q18 0 41 -0.5t40.5 -3.5t17.5 -9q0 -4 -14 -7t-28.5 -4t-18.5 -2q-34 -2 -69 -3.5t-70 -1.5h-56q-6 -15 -12 -41t-10 -54.5t-4 -53.5q0 -27 6 -42q4 -9 21.5 -13.5t42 -6t49.5 -1.5q47 0 81 2t69 7.5
t85 14.5q10 0 10 -6q0 -7 -10 -10.5t-12 -4.5q-22 -9 -61 -16t-86.5 -11.5t-96.5 -4.5zM372 674q-6 -1 -26.5 5.5t-44 16.5t-38.5 16q-25 11 -44 20.5t-21 16.5q-1 8 7.5 16t18.5 8q8 0 13.5 -2.5t10.5 -7.5q11 -8 33 -22.5t44.5 -28t32.5 -21.5q4 -2 9.5 -6t6.5 -8
q1 -1 0 -2t-2 -1z" />
    <glyph glyph-name="Eacute" unicode="&#xc9;" horiz-adv-x="504" 
d="M196 -15q-45 0 -84.5 5.5t-52.5 15.5q-6 6 -7.5 17.5t-1.5 18.5q0 24 4.5 54.5t10.5 59.5t10.5 49.5t4.5 25.5q0 8 -8 11.5t-8 11.5t9.5 8.5t15.5 1.5q4 13 11 45t15.5 72t15.5 79.5t12 69.5t5 40q0 9 -9.5 9h-19.5t-10 9q0 10 11.5 14t26.5 5.5t26 1.5q56 0 111 -5
t111 -5h5q14 0 19.5 4t8.5 8t8 4q6 0 17 -7.5t11 -14.5q0 -4 -2 -5t-4 -3q-24 -16 -30.5 -43.5t-13.5 -52.5q-1 -3 -2.5 -9t-6.5 -6q-4 0 -5.5 6t-1.5 10q0 10 2.5 27t5.5 34.5t6 26.5q-1 -1 -10 -1q-14 0 -41.5 2t-56 4t-46.5 2q-8 0 -27 -0.5t-26 -5.5q-2 -1 -7.5 -23.5
t-13.5 -57t-16.5 -73t-16 -74t-12 -60t-4.5 -28.5t15 -5t30 -1h101q18 0 41 -0.5t40.5 -3.5t17.5 -9q0 -4 -14 -7t-28.5 -4t-18.5 -2q-34 -2 -69 -3.5t-70 -1.5h-56q-6 -15 -12 -41t-10 -54.5t-4 -53.5q0 -27 6 -42q4 -9 21.5 -13.5t42 -6t49.5 -1.5q47 0 81 2t69 7.5
t85 14.5q10 0 10 -6q0 -7 -10 -10.5t-12 -4.5q-22 -9 -61 -16t-86.5 -11.5t-96.5 -4.5zM216 674q-1 0 -2 1t0 2q1 4 6.5 8t9.5 6q10 8 32.5 21.5t45 28t32.5 22.5q5 5 11 7.5t13 2.5q10 0 19 -8t7 -16q-1 -7 -20.5 -16.5t-44.5 -20.5q-15 -6 -38.5 -16t-43.5 -16.5t-27 -5.5
z" />
    <glyph glyph-name="Ecircumflex" unicode="&#xca;" horiz-adv-x="504" 
d="M196 -15q-45 0 -84.5 5.5t-52.5 15.5q-6 6 -7.5 17.5t-1.5 18.5q0 24 4.5 54.5t10.5 59.5t10.5 49.5t4.5 25.5q0 8 -8 11.5t-8 11.5t9.5 8.5t15.5 1.5q4 13 11 45t15.5 72t15.5 79.5t12 69.5t5 40q0 9 -9.5 9h-19.5t-10 9q0 10 11.5 14t26.5 5.5t26 1.5q56 0 111 -5
t111 -5h5q14 0 19.5 4t8.5 8t8 4q6 0 17 -7.5t11 -14.5q0 -4 -2 -5t-4 -3q-24 -16 -30.5 -43.5t-13.5 -52.5q-1 -3 -2.5 -9t-6.5 -6q-4 0 -5.5 6t-1.5 10q0 10 2.5 27t5.5 34.5t6 26.5q-1 -1 -10 -1q-14 0 -41.5 2t-56 4t-46.5 2q-8 0 -27 -0.5t-26 -5.5q-2 -1 -7.5 -23.5
t-13.5 -57t-16.5 -73t-16 -74t-12 -60t-4.5 -28.5t15 -5t30 -1h101q18 0 41 -0.5t40.5 -3.5t17.5 -9q0 -4 -14 -7t-28.5 -4t-18.5 -2q-34 -2 -69 -3.5t-70 -1.5h-56q-6 -15 -12 -41t-10 -54.5t-4 -53.5q0 -27 6 -42q4 -9 21.5 -13.5t42 -6t49.5 -1.5q47 0 81 2t69 7.5
t85 14.5q10 0 10 -6q0 -7 -10 -10.5t-12 -4.5q-22 -9 -61 -16t-86.5 -11.5t-96.5 -4.5zM172 668l-1 0.5t-1 1.5q2 5 8.5 10t10.5 7q20 14 44.5 29.5t47 31t34.5 25.5q15 15 32 15q16 0 23 -15q8 -16 25.5 -41t30.5 -45q2 -2 5 -7t1 -10q-2 -2 -4 -2q-4 0 -15.5 9.5t-26.5 23
t-28 26t-19 19.5q-20 -11 -46.5 -24.5t-52 -25.5t-44.5 -20t-24 -8z" />
    <glyph glyph-name="Edieresis" unicode="&#xcb;" horiz-adv-x="504" 
d="M357 675q-8 0 -14 10.5t-6 18.5q0 10 12 20t26.5 16.5t22.5 6.5t8 -4q0 -12 -14 -32q-6 -7 -10.5 -21.5t-24.5 -14.5zM238 676q-8 0 -14 10.5t-6 18.5q0 10 12 20t26.5 16.5t22.5 6.5t8 -4q0 -12 -14 -32q-6 -7 -10.5 -21.5t-24.5 -14.5zM196 -15q-45 0 -84.5 5.5
t-52.5 15.5q-6 6 -7.5 17.5t-1.5 18.5q0 24 4.5 54.5t10.5 59.5t10.5 49.5t4.5 25.5q0 8 -8 11.5t-8 11.5t9.5 8.5t15.5 1.5q4 13 11 45t15.5 72t15.5 79.5t12 69.5t5 40q0 9 -9.5 9h-19.5t-10 9q0 10 11.5 14t26.5 5.5t26 1.5q56 0 111 -5t111 -5h5q14 0 19.5 4t8.5 8t8 4
q6 0 17 -7.5t11 -14.5q0 -4 -2 -5t-4 -3q-24 -16 -30.5 -43.5t-13.5 -52.5q-1 -3 -2.5 -9t-6.5 -6q-4 0 -5.5 6t-1.5 10q0 10 2.5 27t5.5 34.5t6 26.5q-1 -1 -10 -1q-14 0 -41.5 2t-56 4t-46.5 2q-8 0 -27 -0.5t-26 -5.5q-2 -1 -7.5 -23.5t-13.5 -57t-16.5 -73t-16 -74
t-12 -60t-4.5 -28.5t15 -5t30 -1h101q18 0 41 -0.5t40.5 -3.5t17.5 -9q0 -4 -14 -7t-28.5 -4t-18.5 -2q-34 -2 -69 -3.5t-70 -1.5h-56q-6 -15 -12 -41t-10 -54.5t-4 -53.5q0 -27 6 -42q4 -9 21.5 -13.5t42 -6t49.5 -1.5q47 0 81 2t69 7.5t85 14.5q10 0 10 -6q0 -7 -10 -10.5
t-12 -4.5q-22 -9 -61 -16t-86.5 -11.5t-96.5 -4.5z" />
    <glyph glyph-name="Igrave" unicode="&#xcc;" horiz-adv-x="368" 
d="M32 -14q-3 0 -14.5 0.5t-21.5 2.5t-10 7t11 7.5t26.5 4t28.5 2t17 0.5q3 0 18.5 1.5t19.5 6.5q3 13 11 49.5t18 87t21 105t21 104.5t17 85.5t9 47.5q6 47 8 60.5t0 20.5q-37 0 -85 -6h-5q-7 0 -16 2t-9 7q0 4 6 5.5t7 2.5q17 6 38.5 9t39.5 5t24 3q9 6 26 11t26 5
t10 -6.5t1 -8.5h26q9 0 30 -1t40.5 -5.5t23.5 -13.5q2 -4 2 -7t-5 -3q-8 0 -17 1t-18 1q-13 0 -27.5 0.5t-28.5 0.5q-7 0 -20.5 -1.5t-15.5 -7.5q-14 -55 -29 -124.5t-29 -140.5t-25.5 -133t-18 -103.5t-6.5 -51.5q0 -3 13 -4t15 -1q20 -2 46 -4t45 -8l2.5 -1t2.5 -3
q0 -4 -9.5 -6t-20 -2.5t-13.5 -0.5q-22 0 -43.5 0.5t-42.5 0.5q-30 0 -60 -1.5t-60 -1.5zM333 674q-6 -1 -26.5 5.5t-44 16.5t-38.5 16q-25 11 -44 20.5t-21 16.5q-1 8 7.5 16t18.5 8q8 0 13.5 -2.5t10.5 -7.5q11 -8 33 -22.5t44.5 -28t32.5 -21.5q4 -2 9.5 -6t6.5 -8
q1 -1 0 -2t-2 -1z" />
    <glyph glyph-name="Iacute" unicode="&#xcd;" horiz-adv-x="368" 
d="M32 -14q-3 0 -14.5 0.5t-21.5 2.5t-10 7t11 7.5t26.5 4t28.5 2t17 0.5q3 0 18.5 1.5t19.5 6.5q3 13 11 49.5t18 87t21 105t21 104.5t17 85.5t9 47.5q6 47 8 60.5t0 20.5q-37 0 -85 -6h-5q-7 0 -16 2t-9 7q0 4 6 5.5t7 2.5q17 6 38.5 9t39.5 5t24 3q9 6 26 11t26 5
t10 -6.5t1 -8.5h26q9 0 30 -1t40.5 -5.5t23.5 -13.5q2 -4 2 -7t-5 -3q-8 0 -17 1t-18 1q-13 0 -27.5 0.5t-28.5 0.5q-7 0 -20.5 -1.5t-15.5 -7.5q-14 -55 -29 -124.5t-29 -140.5t-25.5 -133t-18 -103.5t-6.5 -51.5q0 -3 13 -4t15 -1q20 -2 46 -4t45 -8l2.5 -1t2.5 -3
q0 -4 -9.5 -6t-20 -2.5t-13.5 -0.5q-22 0 -43.5 0.5t-42.5 0.5q-30 0 -60 -1.5t-60 -1.5zM177 674q-1 0 -2 1t0 2q1 4 6.5 8t9.5 6q10 8 32.5 21.5t45 28t32.5 22.5q5 5 11 7.5t13 2.5q10 0 19 -8t7 -16q-1 -7 -20.5 -16.5t-44.5 -20.5q-15 -6 -38.5 -16t-43.5 -16.5
t-27 -5.5z" />
    <glyph glyph-name="Icircumflex" unicode="&#xce;" horiz-adv-x="368" 
d="M32 -14q-3 0 -14.5 0.5t-21.5 2.5t-10 7t11 7.5t26.5 4t28.5 2t17 0.5q3 0 18.5 1.5t19.5 6.5q3 13 11 49.5t18 87t21 105t21 104.5t17 85.5t9 47.5q6 47 8 60.5t0 20.5q-37 0 -85 -6h-5q-7 0 -16 2t-9 7q0 4 6 5.5t7 2.5q17 6 38.5 9t39.5 5t24 3q9 6 26 11t26 5
t10 -6.5t1 -8.5h26q9 0 30 -1t40.5 -5.5t23.5 -13.5q2 -4 2 -7t-5 -3q-8 0 -17 1t-18 1q-13 0 -27.5 0.5t-28.5 0.5q-7 0 -20.5 -1.5t-15.5 -7.5q-14 -55 -29 -124.5t-29 -140.5t-25.5 -133t-18 -103.5t-6.5 -51.5q0 -3 13 -4t15 -1q20 -2 46 -4t45 -8l2.5 -1t2.5 -3
q0 -4 -9.5 -6t-20 -2.5t-13.5 -0.5q-22 0 -43.5 0.5t-42.5 0.5q-30 0 -60 -1.5t-60 -1.5zM133 668l-1 0.5t-1 1.5q2 5 8.5 10t10.5 7q20 14 44.5 29.5t47 31t34.5 25.5q15 15 32 15q16 0 23 -15q8 -16 25.5 -41t30.5 -45q2 -2 5 -7t1 -10q-2 -2 -4 -2q-4 0 -15.5 9.5
t-26.5 23t-28 26t-19 19.5q-20 -11 -46.5 -24.5t-52 -25.5t-44.5 -20t-24 -8z" />
    <glyph glyph-name="Idieresis" unicode="&#xcf;" horiz-adv-x="368" 
d="M318 675q-8 0 -14 10.5t-6 18.5q0 10 12 20t26.5 16.5t22.5 6.5t8 -4q0 -12 -14 -32q-6 -7 -10.5 -21.5t-24.5 -14.5zM199 676q-8 0 -14 10.5t-6 18.5q0 10 12 20t26.5 16.5t22.5 6.5t8 -4q0 -12 -14 -32q-6 -7 -10.5 -21.5t-24.5 -14.5zM32 -14q-3 0 -14.5 0.5
t-21.5 2.5t-10 7t11 7.5t26.5 4t28.5 2t17 0.5q3 0 18.5 1.5t19.5 6.5q3 13 11 49.5t18 87t21 105t21 104.5t17 85.5t9 47.5q6 47 8 60.5t0 20.5q-37 0 -85 -6h-5q-7 0 -16 2t-9 7q0 4 6 5.5t7 2.5q17 6 38.5 9t39.5 5t24 3q9 6 26 11t26 5t10 -6.5t1 -8.5h26q9 0 30 -1
t40.5 -5.5t23.5 -13.5q2 -4 2 -7t-5 -3q-8 0 -17 1t-18 1q-13 0 -27.5 0.5t-28.5 0.5q-7 0 -20.5 -1.5t-15.5 -7.5q-14 -55 -29 -124.5t-29 -140.5t-25.5 -133t-18 -103.5t-6.5 -51.5q0 -3 13 -4t15 -1q20 -2 46 -4t45 -8l2.5 -1t2.5 -3q0 -4 -9.5 -6t-20 -2.5t-13.5 -0.5
q-22 0 -43.5 0.5t-42.5 0.5q-30 0 -60 -1.5t-60 -1.5z" />
    <glyph glyph-name="Eth" unicode="&#xd0;" horiz-adv-x="796" 
d="M176 -74q-17 0 -29 15.5t-18.5 35.5t-8.5 33q-3 29 -3 59q0 23 2 50t6 55q-13 0 -26.5 -0.5t-26.5 -2.5q-6 2 -13 8.5t-9 10.5l2 1q20 2 38.5 2.5t37.5 1.5q10 64 27 130t39 126t46 105q-3 -1 -6 -1.5t-6 -0.5t-8.5 2t-5.5 7q0 8 8.5 13.5t19.5 8.5t16 4q3 5 8 16.5
t12 21.5t14 10q9 0 13.5 -9.5t4.5 -17.5q0 -10 -4 -17h10q53 0 111 -8t113.5 -26.5t102.5 -50.5t78 -80q18 -28 28.5 -59t10.5 -64q0 -63 -30 -115t-80 -91.5t-111 -66.5t-123 -41t-116 -14q-20 0 -46 3t-44 13q-2 1 -11.5 6.5t-9.5 10.5q0 2 3 2.5t4 0.5q12 0 26 -7
q32 -9 62 -9q44 0 97.5 13.5t107.5 37t99 54.5t72 67q26 34 45 76.5t19 85.5q0 48 -23 84t-59.5 61.5t-79 42t-82.5 25.5q-73 16 -152 16q-10 0 -20 -0.5t-20 -1.5q-54 -116 -84 -241q-7 -31 -14.5 -61t-15.5 -60q23 -1 53.5 -2.5t46.5 -6.5q3 -1 3 -3q0 -4 -6 -4
q-26 0 -51 -1l-50 -2q-8 -37 -13.5 -74t-5.5 -75v-14.5t1 -15.5q2 -13 4.5 -24.5t11.5 -22.5q6 -7 12 -8.5t10 -6.5q1 0 1 -2q0 -3 -6 -5.5t-9 -2.5z" />
    <glyph glyph-name="Ntilde" unicode="&#xd1;" horiz-adv-x="664" 
d="M56 -70q-5 0 -7 6t-2 10v4q0 54 10 124.5t26 150.5t35.5 161.5t38.5 156.5q1 1 1 4q0 4 -1 8.5t-1 8.5q0 8 11.5 22t18.5 14q5 0 17 -10t23 -40q13 -35 34.5 -84t49 -104.5t59.5 -111.5t66 -106t68 -86q0 37 2.5 90t8 114t14.5 121.5t22.5 112.5t30.5 86q6 12 13.5 18
t12.5 6q9 0 9 -12q0 -5 -2 -12t-5 -15q-18 -45 -30.5 -108.5t-21 -133t-12.5 -134t-4 -112.5q0 -10 1 -23.5t4 -16.5q3 -2 4 -2.5t1 -6.5t-4 -19t-11 -24t-15 -11q-18 0 -35 18.5t-37 46.5q-25 32 -57 82.5t-65.5 110.5t-64 120t-53.5 110q-12 24 -18.5 34t-10.5 10
q-5 0 -8 -10.5t-6 -24.5q-1 -7 -8 -37.5t-16.5 -73t-18.5 -84.5q-16 -80 -25.5 -165t-9.5 -153q0 -7 -11 -18.5t-21 -11.5zM490 670q-18 0 -41.5 8t-46.5 15.5t-40 7.5q-13 0 -25 -7t-20.5 -14t-12.5 -7q-3 0 -3 5q2 7 12 20.5t26 25.5t33 12t39 -7t46 -14t48 -7q16 0 28 11
t16 12q4 0 2 -13q-9 -16 -24.5 -32t-36.5 -16z" />
    <glyph glyph-name="Ograve" unicode="&#xd2;" horiz-adv-x="730" 
d="M304 -21q-91 0 -149.5 36t-86.5 95.5t-28 127.5q0 66 25.5 132.5t74 122.5t119 89.5t161.5 33.5q92 0 150.5 -36t87 -94.5t28.5 -126.5q0 -66 -25.5 -133.5t-74.5 -123t-120 -89.5t-162 -34zM309 0q77 0 137.5 32t102.5 84.5t64 116t22 125.5q0 63 -23.5 116.5t-73.5 86
t-128 32.5q-76 0 -135 -32t-100 -84t-62 -114.5t-21 -124.5q0 -63 23 -117.5t71 -87.5t123 -33zM516 674q-6 -1 -26.5 5.5t-44 16.5t-38.5 16q-25 11 -44 20.5t-21 16.5q-1 8 7.5 16t18.5 8q8 0 13.5 -2.5t10.5 -7.5q11 -8 33 -22.5t44.5 -28t32.5 -21.5q4 -2 9.5 -6t6.5 -8
q1 -1 0 -2t-2 -1z" />
    <glyph glyph-name="Oacute" unicode="&#xd3;" horiz-adv-x="730" 
d="M304 -21q-91 0 -149.5 36t-86.5 95.5t-28 127.5q0 66 25.5 132.5t74 122.5t119 89.5t161.5 33.5q92 0 150.5 -36t87 -94.5t28.5 -126.5q0 -66 -25.5 -133.5t-74.5 -123t-120 -89.5t-162 -34zM309 0q77 0 137.5 32t102.5 84.5t64 116t22 125.5q0 63 -23.5 116.5t-73.5 86
t-128 32.5q-76 0 -135 -32t-100 -84t-62 -114.5t-21 -124.5q0 -63 23 -117.5t71 -87.5t123 -33zM360 674q-1 0 -2 1t0 2q1 4 6.5 8t9.5 6q10 8 32.5 21.5t45 28t32.5 22.5q5 5 11 7.5t13 2.5q10 0 19 -8t7 -16q-1 -7 -20.5 -16.5t-44.5 -20.5q-15 -6 -38.5 -16t-43.5 -16.5
t-27 -5.5z" />
    <glyph glyph-name="Ocircumflex" unicode="&#xd4;" horiz-adv-x="730" 
d="M304 -21q-91 0 -149.5 36t-86.5 95.5t-28 127.5q0 66 25.5 132.5t74 122.5t119 89.5t161.5 33.5q92 0 150.5 -36t87 -94.5t28.5 -126.5q0 -66 -25.5 -133.5t-74.5 -123t-120 -89.5t-162 -34zM309 0q77 0 137.5 32t102.5 84.5t64 116t22 125.5q0 63 -23.5 116.5t-73.5 86
t-128 32.5q-76 0 -135 -32t-100 -84t-62 -114.5t-21 -124.5q0 -63 23 -117.5t71 -87.5t123 -33zM316 668l-1 0.5t-1 1.5q2 5 8.5 10t10.5 7q20 14 44.5 29.5t47 31t34.5 25.5q15 15 32 15q16 0 23 -15q8 -16 25.5 -41t30.5 -45q2 -2 5 -7t1 -10q-2 -2 -4 -2q-4 0 -15.5 9.5
t-26.5 23t-28 26t-19 19.5q-20 -11 -46.5 -24.5t-52 -25.5t-44.5 -20t-24 -8z" />
    <glyph glyph-name="Otilde" unicode="&#xd5;" horiz-adv-x="730" 
d="M304 -21q-91 0 -149.5 36t-86.5 95.5t-28 127.5q0 66 25.5 132.5t74 122.5t119 89.5t161.5 33.5q92 0 150.5 -36t87 -94.5t28.5 -126.5q0 -66 -25.5 -133.5t-74.5 -123t-120 -89.5t-162 -34zM309 0q77 0 137.5 32t102.5 84.5t64 116t22 125.5q0 63 -23.5 116.5t-73.5 86
t-128 32.5q-76 0 -135 -32t-100 -84t-62 -114.5t-21 -124.5q0 -63 23 -117.5t71 -87.5t123 -33zM524 670q-18 0 -41.5 8t-46.5 15.5t-40 7.5q-13 0 -25 -7t-20.5 -14t-12.5 -7q-3 0 -3 5q2 7 12 20.5t26 25.5t33 12t39 -7t46 -14t48 -7q16 0 28 11t16 12q4 0 2 -13
q-9 -16 -24.5 -32t-36.5 -16z" />
    <glyph glyph-name="Odieresis" unicode="&#xd6;" horiz-adv-x="730" 
d="M501 675q-8 0 -14 10.5t-6 18.5q0 10 12 20t26.5 16.5t22.5 6.5t8 -4q0 -12 -14 -32q-6 -7 -10.5 -21.5t-24.5 -14.5zM382 676q-8 0 -14 10.5t-6 18.5q0 10 12 20t26.5 16.5t22.5 6.5t8 -4q0 -12 -14 -32q-6 -7 -10.5 -21.5t-24.5 -14.5zM304 -21q-91 0 -149.5 36
t-86.5 95.5t-28 127.5q0 66 25.5 132.5t74 122.5t119 89.5t161.5 33.5q92 0 150.5 -36t87 -94.5t28.5 -126.5q0 -66 -25.5 -133.5t-74.5 -123t-120 -89.5t-162 -34zM309 0q77 0 137.5 32t102.5 84.5t64 116t22 125.5q0 63 -23.5 116.5t-73.5 86t-128 32.5q-76 0 -135 -32
t-100 -84t-62 -114.5t-21 -124.5q0 -63 23 -117.5t71 -87.5t123 -33z" />
    <glyph glyph-name="multiply" unicode="&#xd7;" horiz-adv-x="462" 
d="M371 63q-5 0 -10 6q-30 33 -60.5 64t-62.5 62l-22 -20t-21 -18q-19 -16 -41.5 -34.5t-39.5 -38.5q-6 -3 -16 -3q-23 0 -32 9v6q69 65 142 122l4 3l-10 10l-10 10q-17 19 -37.5 40t-40.5 37q-4 7 -4 20q0 19 7 28h6q31 -29 61 -59.5t58 -61.5q27 21 60 45.5t63 44t47 25.5
q6 2 8 -1q0 -1 0.5 -1.5t0.5 -2.5q0 -5 -7 -10q-32 -25 -71.5 -58.5t-77.5 -67.5q18 -20 41 -47.5t42.5 -54t27.5 -45.5q2 -6 -1 -8q-1 -1 -4 -1z" />
    <glyph glyph-name="Oslash" unicode="&#xd8;" horiz-adv-x="726" 
d="M91 -112l-2 1q-2 3 -4.5 10.5t-2.5 21.5q0 18 16.5 54.5t44.5 84t60 98t64 97t56 80.5q42 58 82 110t71 89q14 16 28.5 32.5t30.5 31.5q4 5 9.5 11t9.5 10q12 9 21 9q7 0 13 -4q2 0 5 -2t3 -7q0 -3 -4 -6q-56 -57 -120 -133t-125 -157q-40 -55 -79.5 -112.5t-74.5 -114
t-61.5 -108.5t-40.5 -96zM304 -21q-91 0 -149.5 36t-86.5 95.5t-28 127.5q0 66 25.5 132.5t74 122.5t119 89.5t161.5 33.5q92 0 150.5 -36t87 -94.5t28.5 -126.5q0 -66 -25.5 -133.5t-74.5 -123t-120 -89.5t-162 -34zM309 0q77 0 137.5 32t102.5 84.5t64 116t22 125.5
q0 63 -23.5 116.5t-73.5 86t-128 32.5q-76 0 -135 -32t-100 -84t-62 -114.5t-21 -124.5q0 -63 23 -117.5t71 -87.5t123 -33z" />
    <glyph glyph-name="Ugrave" unicode="&#xd9;" horiz-adv-x="672" 
d="M268 -16q-105 0 -146 53t-41 147q0 41 6.5 89t16.5 101q11 53 24.5 110.5t29.5 117.5q2 8 5.5 10t7.5 2q7 0 18 -2.5t19 -6.5t5 -11q-9 -27 -27 -90t-34 -138q-10 -51 -17 -98.5t-7 -88.5q0 -52 14 -91t47.5 -61t90.5 -22q73 0 121 44t80.5 120.5t57.5 173.5
q17 65 29.5 126t20 105.5t9.5 56.5q1 5 8 6t11 1q8 0 23 -5.5t13 -16.5q-10 -52 -28 -128t-41 -151q-33 -109 -72 -188.5t-96.5 -122t-147.5 -42.5zM481 674q-6 -1 -26.5 5.5t-44 16.5t-38.5 16q-25 11 -44 20.5t-21 16.5q-1 8 7.5 16t18.5 8q8 0 13.5 -2.5t10.5 -7.5
q11 -8 33 -22.5t44.5 -28t32.5 -21.5q4 -2 9.5 -6t6.5 -8q1 -1 0 -2t-2 -1z" />
    <glyph glyph-name="Uacute" unicode="&#xda;" horiz-adv-x="672" 
d="M268 -16q-105 0 -146 53t-41 147q0 41 6.5 89t16.5 101q11 53 24.5 110.5t29.5 117.5q2 8 5.5 10t7.5 2q7 0 18 -2.5t19 -6.5t5 -11q-9 -27 -27 -90t-34 -138q-10 -51 -17 -98.5t-7 -88.5q0 -52 14 -91t47.5 -61t90.5 -22q73 0 121 44t80.5 120.5t57.5 173.5
q17 65 29.5 126t20 105.5t9.5 56.5q1 5 8 6t11 1q8 0 23 -5.5t13 -16.5q-10 -52 -28 -128t-41 -151q-33 -109 -72 -188.5t-96.5 -122t-147.5 -42.5zM325 674q-1 0 -2 1t0 2q1 4 6.5 8t9.5 6q10 8 32.5 21.5t45 28t32.5 22.5q5 5 11 7.5t13 2.5q10 0 19 -8t7 -16
q-1 -7 -20.5 -16.5t-44.5 -20.5q-15 -6 -38.5 -16t-43.5 -16.5t-27 -5.5z" />
    <glyph glyph-name="Ucircumflex" unicode="&#xdb;" horiz-adv-x="672" 
d="M268 -16q-105 0 -146 53t-41 147q0 41 6.5 89t16.5 101q11 53 24.5 110.5t29.5 117.5q2 8 5.5 10t7.5 2q7 0 18 -2.5t19 -6.5t5 -11q-9 -27 -27 -90t-34 -138q-10 -51 -17 -98.5t-7 -88.5q0 -52 14 -91t47.5 -61t90.5 -22q73 0 121 44t80.5 120.5t57.5 173.5
q17 65 29.5 126t20 105.5t9.5 56.5q1 5 8 6t11 1q8 0 23 -5.5t13 -16.5q-10 -52 -28 -128t-41 -151q-33 -109 -72 -188.5t-96.5 -122t-147.5 -42.5zM281 668l-1 0.5t-1 1.5q2 5 8.5 10t10.5 7q20 14 44.5 29.5t47 31t34.5 25.5q15 15 32 15q16 0 23 -15q8 -16 25.5 -41
t30.5 -45q2 -2 5 -7t1 -10q-2 -2 -4 -2q-4 0 -15.5 9.5t-26.5 23t-28 26t-19 19.5q-20 -11 -46.5 -24.5t-52 -25.5t-44.5 -20t-24 -8z" />
    <glyph glyph-name="Udieresis" unicode="&#xdc;" horiz-adv-x="672" 
d="M466 675q-8 0 -14 10.5t-6 18.5q0 10 12 20t26.5 16.5t22.5 6.5t8 -4q0 -12 -14 -32q-6 -7 -10.5 -21.5t-24.5 -14.5zM347 676q-8 0 -14 10.5t-6 18.5q0 10 12 20t26.5 16.5t22.5 6.5t8 -4q0 -12 -14 -32q-6 -7 -10.5 -21.5t-24.5 -14.5zM268 -16q-105 0 -146 53t-41 147
q0 41 6.5 89t16.5 101q11 53 24.5 110.5t29.5 117.5q2 8 5.5 10t7.5 2q7 0 18 -2.5t19 -6.5t5 -11q-9 -27 -27 -90t-34 -138q-10 -51 -17 -98.5t-7 -88.5q0 -52 14 -91t47.5 -61t90.5 -22q73 0 121 44t80.5 120.5t57.5 173.5q17 65 29.5 126t20 105.5t9.5 56.5q1 5 8 6t11 1
q8 0 23 -5.5t13 -16.5q-10 -52 -28 -128t-41 -151q-33 -109 -72 -188.5t-96.5 -122t-147.5 -42.5z" />
    <glyph glyph-name="Yacute" unicode="&#xdd;" horiz-adv-x="500" 
d="M155 -22q-7 0 -7 7v3q7 32 14 64.5t14 63.5q5 23 9 45.5t8 44.5q2 8 4 18t3 20q1 3 1 6.5v6.5q0 10 -2.5 22.5t-8.5 27.5q-12 30 -28 66l-32 72t-30.5 67t-23.5 50q-4 9 -8.5 15.5t-10.5 6.5q-7 0 -7 6t6 12q9 6 18.5 10t17.5 4q20 0 28 -22q5 -11 18.5 -43t31 -73.5
t34.5 -79.5q10 -24 18 -41t16 -36q3 -8 6 -8q4 0 13 11q23 25 52.5 58t59.5 67t56 63t43 46q24 24 43.5 37t35.5 17q4 2 10 2q15 0 15 -10q0 -5 -10 -13q-7 -6 -16 -13t-14 -12q-9 -6 -38 -33t-70 -69q-37 -38 -77 -82t-76 -86q-7 -9 -14 -23.5t-13 -38.5
q-6 -29 -12.5 -65.5t-9.5 -54.5l-14 -96q-2 -13 -13 -22t-22.5 -13.5t-17.5 -4.5zM225 674q-1 0 -2 1t0 2q1 4 6.5 8t9.5 6q10 8 32.5 21.5t45 28t32.5 22.5q5 5 11 7.5t13 2.5q10 0 19 -8t7 -16q-1 -7 -20.5 -16.5t-44.5 -20.5q-15 -6 -38.5 -16t-43.5 -16.5t-27 -5.5z" />
    <glyph glyph-name="Thorn" unicode="&#xde;" horiz-adv-x="479" 
d="M86 -118q-26 0 -37 18.5t-13.5 44t-2.5 44.5q0 58 12.5 118t32 116t41 104t39.5 81q-7 -1 -12 -2.5t-8 -1.5q-10 0 -0.5 8t28.5 13q2 2 12.5 22.5t23.5 47t23 47t11 23.5q10 9 23 12.5t26 3.5q4 0 12.5 -1t8.5 -8q0 -1 -8.5 -16t-20.5 -35.5t-24.5 -41t-21.5 -35
t-10 -16.5h13q29 0 68.5 -4t77 -16t62.5 -36t25 -64q0 -41 -22 -74t-58.5 -57.5t-79 -40.5t-85 -24t-75.5 -8q-6 0 -20 1.5t-14 11.5t10 12.5t17 2.5q29 2 58.5 2.5t57.5 5.5q26 5 56.5 17t57.5 30.5t44.5 43.5t17.5 56q0 35 -24.5 58t-61 37t-74 20.5t-64.5 7.5
q-35 -52 -63.5 -112t-49 -120t-31.5 -114.5t-11 -95.5q0 -9 1.5 -24.5t7.5 -28.5t20 -13q12 0 20.5 7t14.5 14t11 7q3 0 3 -1q0 -5 -9 -12t-9 -17q0 -1 5 -5.5t6 -6.5q0 -3 -9 -4t-18 -1.5t-11 -0.5z" />
    <glyph glyph-name="germandbls" unicode="&#xdf;" horiz-adv-x="413" 
d="M-126 -222q-34 0 -57.5 23.5t-23.5 57.5q0 11 3 25.5t12 14.5q2 0 2.5 -5t0.5 -7q3 -16 6.5 -38t14.5 -38.5t35 -16.5q36 0 64.5 25t50 62.5t36.5 77t24 67.5q4 14 13 44t19.5 67t21.5 74t19.5 67t12.5 45q-14 -1 -28 -3t-28 -2q-6 0 -12.5 9.5t-8.5 13.5l1 2q20 2 41 4
t42 2q3 11 13 44.5t27.5 76.5t43 84t58.5 68t73 27q42 0 65.5 -17t33.5 -44t10 -59q0 -41 -11.5 -88t-31.5 -81q0 -4 -1.5 -10.5t-3.5 -14.5q-3 -9 -9 -9q-7 0 -16 4.5t-23 4.5q-3 0 -6 -0.5t-7 -1.5q-18 -4 -44.5 -18.5t-47.5 -34.5t-21 -40q0 -25 18.5 -42t43.5 -30
t43.5 -27t18.5 -33q0 -14 -7 -26.5t-16 -22.5q10 1 20.5 1.5t20.5 0.5q9 0 9 -5t-3 -6.5t-8 -2.5q-15 -2 -30.5 -4t-30.5 -5q-28 -25 -55 -34.5t-65 -9.5q-18 0 -18 15q0 12 16.5 20.5t40 14.5t44.5 9t30 4q5 5 8 11.5t3 13.5q0 8 -4.5 13.5t-11.5 9.5q-18 11 -45 29
t-47.5 40.5t-20.5 46.5q0 14 7 22q18 23 45 53t62.5 53t76.5 25h12t9 -1q9 26 12.5 62t3.5 97q0 47 -16.5 74.5t-31.5 27.5q-26 0 -54 -30.5t-56 -81.5t-54.5 -114t-50.5 -128.5t-44 -124.5t-34 -103t-21 -63q-13 -32 -28 -63.5t-32 -60.5q-19 -34 -50 -60.5t-73 -26.5z" />
    <glyph glyph-name="agrave" unicode="&#xe0;" horiz-adv-x="363" 
d="M287 -7q-28 0 -42 20t-18.5 46.5t-4.5 47.5t2.5 41.5t5.5 40.5q-10 -13 -28 -36.5t-41 -51t-47 -52t-46.5 -40t-38.5 -15.5q-14 0 -17.5 13t-3.5 23q0 45 18 95t37 90q5 11 15 30t23.5 39t28.5 33t30 11q11 7 21.5 12.5t23.5 5.5q8 0 26.5 -5t26.5 -7q4 8 12 12t16 4
t11 -1q4 2 6 2q6 0 8 -8.5t2 -13.5q0 -13 -3 -23t-8 -22q-4 -10 -6.5 -18.5t-11.5 -15.5q-7 -36 -10.5 -72.5t-3.5 -73.5q0 -13 1.5 -31t9 -32t23.5 -14q25 0 44.5 18.5t32.5 35.5q2 3 5 6.5t7 5.5l3 -6q0 -10 -10 -24t-22 -26.5t-20 -18.5q-12 -10 -26.5 -17.5t-30.5 -7.5z
M63 35q6 0 13 5t11 9q47 41 83.5 92t63.5 106q3 5 6 11t4 12q2 8 4 17.5t3 17.5q-1 5 -11 9t-21.5 6.5t-16.5 2.5q-19 0 -33.5 -15.5t-24.5 -29.5q-12 -18 -27.5 -47t-30 -61.5t-24 -62.5t-9.5 -51q0 -5 1.5 -13t8.5 -8zM316 420q-6 0 -24.5 11t-39 25.5t-35.5 23.5
q-9 7 -25.5 19t-16.5 19q0 8 9.5 13.5t16.5 5.5q9 0 15 -4.5t11 -11.5q9 -10 24.5 -26t31 -31t23.5 -25q3 -2 8 -7t5 -10q0 -2 -3 -2z" />
    <glyph glyph-name="aacute" unicode="&#xe1;" horiz-adv-x="363" 
d="M287 -7q-28 0 -42 20t-18.5 46.5t-4.5 47.5t2.5 41.5t5.5 40.5q-10 -13 -28 -36.5t-41 -51t-47 -52t-46.5 -40t-38.5 -15.5q-14 0 -17.5 13t-3.5 23q0 45 18 95t37 90q5 11 15 30t23.5 39t28.5 33t30 11q11 7 21.5 12.5t23.5 5.5q8 0 26.5 -5t26.5 -7q4 8 12 12t16 4
t11 -1q4 2 6 2q6 0 8 -8.5t2 -13.5q0 -13 -3 -23t-8 -22q-4 -10 -6.5 -18.5t-11.5 -15.5q-7 -36 -10.5 -72.5t-3.5 -73.5q0 -13 1.5 -31t9 -32t23.5 -14q25 0 44.5 18.5t32.5 35.5q2 3 5 6.5t7 5.5l3 -6q0 -10 -10 -24t-22 -26.5t-20 -18.5q-12 -10 -26.5 -17.5t-30.5 -7.5z
M63 35q6 0 13 5t11 9q47 41 83.5 92t63.5 106q3 5 6 11t4 12q2 8 4 17.5t3 17.5q-1 5 -11 9t-21.5 6.5t-16.5 2.5q-19 0 -33.5 -15.5t-24.5 -29.5q-12 -18 -27.5 -47t-30 -61.5t-24 -62.5t-9.5 -51q0 -5 1.5 -13t8.5 -8zM210 420q-3 0 -3 2q0 5 5 10t8 7q9 10 24 25l31 31
t24 26q5 7 11 11.5t15 4.5q8 0 17 -5.5t9 -13.5q0 -7 -16.5 -19t-25.5 -19q-14 -9 -35 -23.5t-39 -25.5t-25 -11z" />
    <glyph glyph-name="acircumflex" unicode="&#xe2;" horiz-adv-x="363" 
d="M287 -7q-28 0 -42 20t-18.5 46.5t-4.5 47.5t2.5 41.5t5.5 40.5q-10 -13 -28 -36.5t-41 -51t-47 -52t-46.5 -40t-38.5 -15.5q-14 0 -17.5 13t-3.5 23q0 45 18 95t37 90q5 11 15 30t23.5 39t28.5 33t30 11q11 7 21.5 12.5t23.5 5.5q8 0 26.5 -5t26.5 -7q4 8 12 12t16 4
t11 -1q4 2 6 2q6 0 8 -8.5t2 -13.5q0 -13 -3 -23t-8 -22q-4 -10 -6.5 -18.5t-11.5 -15.5q-7 -36 -10.5 -72.5t-3.5 -73.5q0 -13 1.5 -31t9 -32t23.5 -14q25 0 44.5 18.5t32.5 35.5q2 3 5 6.5t7 5.5l3 -6q0 -10 -10 -24t-22 -26.5t-20 -18.5q-12 -10 -26.5 -17.5t-30.5 -7.5z
M63 35q6 0 13 5t11 9q47 41 83.5 92t63.5 106q3 5 6 11t4 12q2 8 4 17.5t3 17.5q-1 5 -11 9t-21.5 6.5t-16.5 2.5q-19 0 -33.5 -15.5t-24.5 -29.5q-12 -18 -27.5 -47t-30 -61.5t-24 -62.5t-9.5 -51q0 -5 1.5 -13t8.5 -8zM142 413l-1 0.5t-1 1.5q2 5 8.5 10t10.5 7
q12 10 32.5 26t41 33t32.5 27q15 15 32 15q16 0 23 -15l13.5 -27t17.5 -33t15 -26q2 -2 5 -7t1 -10q-2 -2 -4 -2q-5 0 -20.5 16t-32 34.5t-25.5 27.5q-27 -15 -59 -33t-57 -31.5t-32 -13.5z" />
    <glyph glyph-name="atilde" unicode="&#xe3;" horiz-adv-x="363" 
d="M287 -7q-28 0 -42 20t-18.5 46.5t-4.5 47.5t2.5 41.5t5.5 40.5q-10 -13 -28 -36.5t-41 -51t-47 -52t-46.5 -40t-38.5 -15.5q-14 0 -17.5 13t-3.5 23q0 45 18 95t37 90q5 11 15 30t23.5 39t28.5 33t30 11q11 7 21.5 12.5t23.5 5.5q8 0 26.5 -5t26.5 -7q4 8 12 12t16 4
t11 -1q4 2 6 2q6 0 8 -8.5t2 -13.5q0 -13 -3 -23t-8 -22q-4 -10 -6.5 -18.5t-11.5 -15.5q-7 -36 -10.5 -72.5t-3.5 -73.5q0 -13 1.5 -31t9 -32t23.5 -14q25 0 44.5 18.5t32.5 35.5q2 3 5 6.5t7 5.5l3 -6q0 -10 -10 -24t-22 -26.5t-20 -18.5q-12 -10 -26.5 -17.5t-30.5 -7.5z
M63 35q6 0 13 5t11 9q47 41 83.5 92t63.5 106q3 5 6 11t4 12q2 8 4 17.5t3 17.5q-1 5 -11 9t-21.5 6.5t-16.5 2.5q-19 0 -33.5 -15.5t-24.5 -29.5q-12 -18 -27.5 -47t-30 -61.5t-24 -62.5t-9.5 -51q0 -5 1.5 -13t8.5 -8zM310 415q-19 0 -32 8t-26 15.5t-30 7.5q-13 0 -25 -7
t-20.5 -14t-12.5 -7q-3 0 -3 5q2 7 12 20.5t26 25.5t33 12t29 -7t26 -14t38 -7q16 0 28 11t16 12q4 0 2 -13q-9 -16 -24.5 -32t-36.5 -16z" />
    <glyph glyph-name="adieresis" unicode="&#xe4;" horiz-adv-x="363" 
d="M307 419q-8 0 -14 10.5t-6 18.5q0 10 12 20t26.5 16.5t22.5 6.5t8 -4q0 -12 -14 -32q-6 -7 -10.5 -21.5t-24.5 -14.5zM188 420q-8 0 -14 10.5t-6 18.5q0 10 12 20t26.5 16.5t22.5 6.5t8 -4q0 -12 -14 -32q-6 -7 -10.5 -21.5t-24.5 -14.5zM287 -7q-28 0 -42 20t-18.5 46.5
t-4.5 47.5t2.5 41.5t5.5 40.5q-10 -13 -28 -36.5t-41 -51t-47 -52t-46.5 -40t-38.5 -15.5q-14 0 -17.5 13t-3.5 23q0 45 18 95t37 90q5 11 15 30t23.5 39t28.5 33t30 11q11 7 21.5 12.5t23.5 5.5q8 0 26.5 -5t26.5 -7q4 8 12 12t16 4t11 -1q4 2 6 2q6 0 8 -8.5t2 -13.5
q0 -13 -3 -23t-8 -22q-4 -10 -6.5 -18.5t-11.5 -15.5q-7 -36 -10.5 -72.5t-3.5 -73.5q0 -13 1.5 -31t9 -32t23.5 -14q25 0 44.5 18.5t32.5 35.5q2 3 5 6.5t7 5.5l3 -6q0 -10 -10 -24t-22 -26.5t-20 -18.5q-12 -10 -26.5 -17.5t-30.5 -7.5zM63 35q6 0 13 5t11 9
q47 41 83.5 92t63.5 106q3 5 6 11t4 12q2 8 4 17.5t3 17.5q-1 5 -11 9t-21.5 6.5t-16.5 2.5q-19 0 -33.5 -15.5t-24.5 -29.5q-12 -18 -27.5 -47t-30 -61.5t-24 -62.5t-9.5 -51q0 -5 1.5 -13t8.5 -8z" />
    <glyph glyph-name="aring" unicode="&#xe5;" horiz-adv-x="363" 
d="M287 -7q-28 0 -42 20t-18.5 46.5t-4.5 47.5t2.5 41.5t5.5 40.5q-10 -13 -28 -36.5t-41 -51t-47 -52t-46.5 -40t-38.5 -15.5q-14 0 -17.5 13t-3.5 23q0 45 18 95t37 90q5 11 15 30t23.5 39t28.5 33t30 11q11 7 21.5 12.5t23.5 5.5q8 0 26.5 -5t26.5 -7q4 8 12 12t16 4
t11 -1q4 2 6 2q6 0 8 -8.5t2 -13.5q0 -13 -3 -23t-8 -22q-4 -10 -6.5 -18.5t-11.5 -15.5q-7 -36 -10.5 -72.5t-3.5 -73.5q0 -13 1.5 -31t9 -32t23.5 -14q25 0 44.5 18.5t32.5 35.5q2 3 5 6.5t7 5.5l3 -6q0 -10 -10 -24t-22 -26.5t-20 -18.5q-12 -10 -26.5 -17.5t-30.5 -7.5z
M63 35q6 0 13 5t11 9q47 41 83.5 92t63.5 106q3 5 6 11t4 12q2 8 4 17.5t3 17.5q-1 5 -11 9t-21.5 6.5t-16.5 2.5q-19 0 -33.5 -15.5t-24.5 -29.5q-12 -18 -27.5 -47t-30 -61.5t-24 -62.5t-9.5 -51q0 -5 1.5 -13t8.5 -8zM252 417q-19 0 -37 8t-18 33t14 45t36 32t45 12
q21 0 39 -12.5t18 -38.5q0 -23 -14.5 -41t-36.5 -28t-46 -10zM258 433q26 0 40.5 20.5t14.5 38.5q0 11 -6 25t-23 14q-18 0 -33.5 -20t-15.5 -43q0 -13 5 -24t18 -11z" />
    <glyph glyph-name="ae" unicode="&#xe6;" horiz-adv-x="500" 
d="M423 221q-5 0 -5 5q0 3 1 5q6 16 9.5 30.5t3.5 30.5q0 6 -0.5 16.5t-4 19.5t-12.5 9q-4 0 -7 -0.5t-7 -0.5q-10 0 -10 8q0 4 9.5 7t20.5 5t15 2q25 0 31.5 -18.5t6.5 -38.5q0 -19 -6.5 -40t-23.5 -32q-4 -3 -10 -5.5t-11 -2.5zM29 -6q-14 0 -17.5 13t-3.5 23q0 45 18 95
t37 90q5 11 15 30t23.5 39t28.5 33t30 11q11 7 21.5 12.5t23.5 5.5q8 0 26.5 -5t26.5 -7q4 8 12 12t16 4t11 -1q4 2 6 2q6 0 8 -8.5t2 -13.5q0 -9 -2 -17t-5 -16q14 20 30.5 33.5t35.5 13.5q9 0 9 -8q0 -3 -4 -7.5t-6 -6.5q-13 -12 -25 -33.5t-22 -44t-17 -39.5q28 4 55.5 6
t55.5 2q3 0 15 -0.5t27 -2t25.5 -4.5t10.5 -8q0 -4 -4.5 -5t-6.5 -1q-13 0 -25 2t-25 2q-34 0 -69 -5t-69 -12q-10 -26 -19.5 -59t-9.5 -62q0 -16 6 -30.5t25 -14.5q27 0 51.5 21.5t45.5 49t35 45.5h1q4 0 4.5 -4t0.5 -6q0 -17 -8 -31.5t-20 -26.5q-27 -25 -61.5 -46
t-73.5 -21q-29 0 -40.5 14t-11.5 41v8v2q0 14 2.5 43.5t10.5 65.5q2 8 3 13t1 9t-2 4q-3 0 -7 -7q-13 -23 -38 -55.5t-55 -63.5t-59 -52t-49 -21zM63 35q6 0 13 5t11 9q47 41 83.5 92t63.5 106q3 5 6 11t4 12q2 8 4 17.5t3 17.5q-1 5 -11 9t-21.5 6.5t-16.5 2.5
q-19 0 -33.5 -15.5t-24.5 -29.5q-12 -18 -27.5 -47t-30 -61.5t-24 -62.5t-9.5 -51q0 -5 1.5 -13t8.5 -8z" />
    <glyph glyph-name="ccedilla" unicode="&#xe7;" horiz-adv-x="262" 
d="M75 -7q-28 0 -40 14t-12 41q0 7 0.5 13.5t1.5 13.5q2 17 8.5 46t17 62.5t24 65t30 53t35.5 26.5q24 6 48 18t49 12q24 0 30 -16t6 -36q0 -23 -18 -33q-4 -3 -9.5 -5.5t-11.5 -2.5q-7 0 -7 6t2 12t2 13q0 11 -4.5 26.5t-19.5 15.5q-11 0 -24 -9.5t-21 -16.5
q-15 -13 -31.5 -46.5t-30.5 -73.5t-22.5 -77t-8.5 -58q0 -16 6 -30.5t25 -14.5q27 0 51.5 21.5t45.5 49t35 45.5h1q4 0 4.5 -4t0.5 -6q0 -17 -8 -32t-20 -26q-27 -25 -61.5 -46t-73.5 -21zM6 -198q-4 0 -5.5 3t-1.5 5q0 3 3 4.5t4 1.5q26 4 48 13t22 37q0 13 -7.5 25
t-15.5 24.5t-8 25.5q0 23 18.5 44.5t50.5 21.5q9 0 8 -5q-16 -2 -26.5 -16.5t-10.5 -30.5q0 -10 9 -21.5t17.5 -25t8.5 -29.5q0 -26 -19.5 -43.5t-46.5 -25.5t-48 -8z" />
    <glyph glyph-name="egrave" unicode="&#xe8;" horiz-adv-x="315" 
d="M241 221q-5 0 -5 5q0 3 1 5q6 16 9.5 30.5t3.5 30.5q0 6 -0.5 16.5t-4 19.5t-12.5 9q-4 0 -7 -0.5t-7 -0.5q-10 0 -10 8q0 4 9.5 7t20.5 5t15 2q25 0 31.5 -18.5t6.5 -38.5q0 -19 -6.5 -40t-23.5 -32q-4 -3 -10 -5.5t-11 -2.5zM92 -7q-29 0 -40.5 14t-11.5 41q0 30 7 60
t17 58l-9 -3q-5 3 -5 10q0 9 8.5 17.5t17.5 9.5q6 15 17 39t25.5 48t32.5 40t39 16q9 0 9 -8q0 -3 -4 -7.5t-6 -6.5q-13 -12 -25 -33.5t-22 -44t-17 -39.5q28 4 55.5 6t55.5 2q3 0 15 -0.5t27 -2t25.5 -4.5t10.5 -8q0 -4 -4.5 -5t-6.5 -1q-13 0 -25 2t-25 2q-34 0 -69 -5
t-69 -12q-10 -26 -19.5 -59t-9.5 -62q0 -16 6 -30.5t25 -14.5q27 0 51.5 21.5t45.5 49t35 45.5h1q4 0 4.5 -4t0.5 -6q0 -17 -8 -31.5t-20 -26.5q-27 -25 -61.5 -46t-73.5 -21zM292 420q-6 0 -24.5 11t-39 25.5t-35.5 23.5q-9 7 -25.5 19t-16.5 19q0 8 9.5 13.5t16.5 5.5
q9 0 15 -4.5t11 -11.5q9 -10 24.5 -26t31 -31t23.5 -25q3 -2 8 -7t5 -10q0 -2 -3 -2z" />
    <glyph glyph-name="eacute" unicode="&#xe9;" horiz-adv-x="315" 
d="M241 221q-5 0 -5 5q0 3 1 5q6 16 9.5 30.5t3.5 30.5q0 6 -0.5 16.5t-4 19.5t-12.5 9q-4 0 -7 -0.5t-7 -0.5q-10 0 -10 8q0 4 9.5 7t20.5 5t15 2q25 0 31.5 -18.5t6.5 -38.5q0 -19 -6.5 -40t-23.5 -32q-4 -3 -10 -5.5t-11 -2.5zM92 -7q-29 0 -40.5 14t-11.5 41q0 30 7 60
t17 58l-9 -3q-5 3 -5 10q0 9 8.5 17.5t17.5 9.5q6 15 17 39t25.5 48t32.5 40t39 16q9 0 9 -8q0 -3 -4 -7.5t-6 -6.5q-13 -12 -25 -33.5t-22 -44t-17 -39.5q28 4 55.5 6t55.5 2q3 0 15 -0.5t27 -2t25.5 -4.5t10.5 -8q0 -4 -4.5 -5t-6.5 -1q-13 0 -25 2t-25 2q-34 0 -69 -5
t-69 -12q-10 -26 -19.5 -59t-9.5 -62q0 -16 6 -30.5t25 -14.5q27 0 51.5 21.5t45.5 49t35 45.5h1q4 0 4.5 -4t0.5 -6q0 -17 -8 -31.5t-20 -26.5q-27 -25 -61.5 -46t-73.5 -21zM186 420q-3 0 -3 2q0 5 5 10t8 7q9 10 24 25l31 31t24 26q5 7 11 11.5t15 4.5q8 0 17 -5.5
t9 -13.5q0 -7 -16.5 -19t-25.5 -19q-14 -9 -35 -23.5t-39 -25.5t-25 -11z" />
    <glyph glyph-name="ecircumflex" unicode="&#xea;" horiz-adv-x="315" 
d="M241 221q-5 0 -5 5q0 3 1 5q6 16 9.5 30.5t3.5 30.5q0 6 -0.5 16.5t-4 19.5t-12.5 9q-4 0 -7 -0.5t-7 -0.5q-10 0 -10 8q0 4 9.5 7t20.5 5t15 2q25 0 31.5 -18.5t6.5 -38.5q0 -19 -6.5 -40t-23.5 -32q-4 -3 -10 -5.5t-11 -2.5zM92 -7q-29 0 -40.5 14t-11.5 41q0 30 7 60
t17 58l-9 -3q-5 3 -5 10q0 9 8.5 17.5t17.5 9.5q6 15 17 39t25.5 48t32.5 40t39 16q9 0 9 -8q0 -3 -4 -7.5t-6 -6.5q-13 -12 -25 -33.5t-22 -44t-17 -39.5q28 4 55.5 6t55.5 2q3 0 15 -0.5t27 -2t25.5 -4.5t10.5 -8q0 -4 -4.5 -5t-6.5 -1q-13 0 -25 2t-25 2q-34 0 -69 -5
t-69 -12q-10 -26 -19.5 -59t-9.5 -62q0 -16 6 -30.5t25 -14.5q27 0 51.5 21.5t45.5 49t35 45.5h1q4 0 4.5 -4t0.5 -6q0 -17 -8 -31.5t-20 -26.5q-27 -25 -61.5 -46t-73.5 -21zM118 413l-1 0.5t-1 1.5q2 5 8.5 10t10.5 7q12 10 32.5 26t41 33t32.5 27q15 15 32 15
q16 0 23 -15l13.5 -27t17.5 -33t15 -26q2 -2 5 -7t1 -10q-2 -2 -4 -2q-5 0 -20.5 16t-32 34.5t-25.5 27.5q-27 -15 -59 -33t-57 -31.5t-32 -13.5z" />
    <glyph glyph-name="edieresis" unicode="&#xeb;" horiz-adv-x="315" 
d="M283 419q-8 0 -14 10.5t-6 18.5q0 10 12 20t26.5 16.5t22.5 6.5t8 -4q0 -12 -14 -32q-6 -7 -10.5 -21.5t-24.5 -14.5zM164 420q-8 0 -14 10.5t-6 18.5q0 10 12 20t26.5 16.5t22.5 6.5t8 -4q0 -12 -14 -32q-6 -7 -10.5 -21.5t-24.5 -14.5zM241 221q-5 0 -5 5q0 3 1 5
q6 16 9.5 30.5t3.5 30.5q0 6 -0.5 16.5t-4 19.5t-12.5 9q-4 0 -7 -0.5t-7 -0.5q-10 0 -10 8q0 4 9.5 7t20.5 5t15 2q25 0 31.5 -18.5t6.5 -38.5q0 -19 -6.5 -40t-23.5 -32q-4 -3 -10 -5.5t-11 -2.5zM92 -7q-29 0 -40.5 14t-11.5 41q0 30 7 60t17 58l-9 -3q-5 3 -5 10
q0 9 8.5 17.5t17.5 9.5q6 15 17 39t25.5 48t32.5 40t39 16q9 0 9 -8q0 -3 -4 -7.5t-6 -6.5q-13 -12 -25 -33.5t-22 -44t-17 -39.5q28 4 55.5 6t55.5 2q3 0 15 -0.5t27 -2t25.5 -4.5t10.5 -8q0 -4 -4.5 -5t-6.5 -1q-13 0 -25 2t-25 2q-34 0 -69 -5t-69 -12q-10 -26 -19.5 -59
t-9.5 -62q0 -16 6 -30.5t25 -14.5q27 0 51.5 21.5t45.5 49t35 45.5h1q4 0 4.5 -4t0.5 -6q0 -17 -8 -31.5t-20 -26.5q-27 -25 -61.5 -46t-73.5 -21z" />
    <glyph glyph-name="igrave" unicode="&#xec;" horiz-adv-x="184" 
d="M37 -7q-15 0 -15 16q0 17 6 44.5t14 55.5t12 44q1 4 6 21.5l11 38.5t10.5 37.5t4.5 19.5q0 5 -5.5 9t-5.5 9q0 3 1 6t2 5q3 5 15 13t25.5 14.5t18.5 6.5q3 0 4 -1q1 -2 1 -7q0 -9 -4.5 -27t-11 -39.5t-12.5 -39.5l-9 -27q-5 -15 -14 -43t-16 -56t-7 -44q0 -2 1 -8.5
t5 -6.5q5 0 18.5 8.5t28.5 16.5t23 8q4 0 5 -2q0 -4 -13 -13.5t-27.5 -19t-19.5 -14.5q-10 -9 -24 -17t-28 -8zM200 402q-6 0 -24.5 11t-39 25.5t-35.5 23.5q-9 7 -25.5 19t-16.5 19q0 8 9.5 13.5t16.5 5.5q9 0 15 -4.5t11 -11.5q9 -10 24.5 -26t31 -31t23.5 -25q3 -2 8 -7
t5 -10q0 -2 -3 -2z" />
    <glyph glyph-name="iacute" unicode="&#xed;" horiz-adv-x="184" 
d="M37 -7q-15 0 -15 16q0 17 6 44.5t14 55.5t12 44q1 4 6 21.5l11 38.5t10.5 37.5t4.5 19.5q0 5 -5.5 9t-5.5 9q0 3 1 6t2 5q3 5 15 13t25.5 14.5t18.5 6.5q3 0 4 -1q1 -2 1 -7q0 -9 -4.5 -27t-11 -39.5t-12.5 -39.5l-9 -27q-5 -15 -14 -43t-16 -56t-7 -44q0 -2 1 -8.5
t5 -6.5q5 0 18.5 8.5t28.5 16.5t23 8q4 0 5 -2q0 -4 -13 -13.5t-27.5 -19t-19.5 -14.5q-10 -9 -24 -17t-28 -8zM94 402q-3 0 -3 2q0 5 5 10t8 7q9 10 24 25l31 31t24 26q5 7 11 11.5t15 4.5q8 0 17 -5.5t9 -13.5q0 -7 -16.5 -19t-25.5 -19q-14 -9 -35 -23.5t-39 -25.5
t-25 -11z" />
    <glyph glyph-name="icircumflex" unicode="&#xee;" horiz-adv-x="184" 
d="M37 -7q-15 0 -15 16q0 17 6 44.5t14 55.5t12 44q1 4 6 21.5l11 38.5t10.5 37.5t4.5 19.5q0 5 -5.5 9t-5.5 9q0 3 1 6t2 5q3 5 15 13t25.5 14.5t18.5 6.5q3 0 4 -1q1 -2 1 -7q0 -9 -4.5 -27t-11 -39.5t-12.5 -39.5l-9 -27q-5 -15 -14 -43t-16 -56t-7 -44q0 -2 1 -8.5
t5 -6.5q5 0 18.5 8.5t28.5 16.5t23 8q4 0 5 -2q0 -4 -13 -13.5t-27.5 -19t-19.5 -14.5q-10 -9 -24 -17t-28 -8zM26 395l-1 0.5t-1 1.5q2 5 8.5 10t10.5 7q12 10 32.5 26t41 33t32.5 27q15 15 32 15q16 0 23 -15l13.5 -27t17.5 -33t15 -26q2 -2 5 -7t1 -10q-2 -2 -4 -2
q-5 0 -20.5 16t-32 34.5t-25.5 27.5q-27 -15 -59 -33t-57 -31.5t-32 -13.5z" />
    <glyph glyph-name="idieresis" unicode="&#xef;" horiz-adv-x="184" 
d="M191 401q-8 0 -14 10.5t-6 18.5q0 10 12 20t26.5 16.5t22.5 6.5t8 -4q0 -12 -14 -32q-6 -7 -10.5 -21.5t-24.5 -14.5zM72 402q-8 0 -14 10.5t-6 18.5q0 10 12 20t26.5 16.5t22.5 6.5t8 -4q0 -12 -14 -32q-6 -7 -10.5 -21.5t-24.5 -14.5zM37 -7q-15 0 -15 16q0 17 6 44.5
t14 55.5t12 44q1 4 6 21.5l11 38.5t10.5 37.5t4.5 19.5q0 5 -5.5 9t-5.5 9q0 3 1 6t2 5q3 5 15 13t25.5 14.5t18.5 6.5q3 0 4 -1q1 -2 1 -7q0 -9 -4.5 -27t-11 -39.5t-12.5 -39.5l-9 -27q-5 -15 -14 -43t-16 -56t-7 -44q0 -2 1 -8.5t5 -6.5q5 0 18.5 8.5t28.5 16.5t23 8
q4 0 5 -2q0 -4 -13 -13.5t-27.5 -19t-19.5 -14.5q-10 -9 -24 -17t-28 -8z" />
    <glyph glyph-name="eth" unicode="&#xf0;" horiz-adv-x="302" 
d="M24 -5q-19 0 -24 17.5t-5 32.5q0 44 16.5 89.5t35.5 83.5q9 18 23.5 42.5t33 45.5t38.5 26t28 13t26 8q15 0 29.5 -3.5t28.5 -7.5q6 18 8.5 36t2.5 34q0 44 -16 77q-1 -1 -3 -2l-4 -2q-12 -5 -26 -11.5t-25 -14.5h-1q-6 0 -14.5 5t-11.5 9l1 2q17 10 35 19.5t37 16.5
q-25 40 -68 72q-4 4 0.5 10.5t12.5 12t13 6.5h4q7 0 13.5 -4t11.5 -9q16 -17 28 -35.5t22 -37.5q20 8 43 15t38 6q4 0 4 -2q2 -4 -3 -7q-19 -7 -37 -15.5t-36 -17.5q17 -43 17 -87t-17 -90q5 -1 11.5 -5.5t6.5 -10.5q0 -4 -5 -4.5t-7 -0.5q-4 0 -7 0.5t-6 0.5l-71 -123
q-7 -14 -23 -37t-37 -49.5t-43 -50t-42.5 -38.5t-35.5 -15zM45 35q6 0 13 5t11 9q47 41 83.5 92t63.5 106q5 10 11.5 26t6.5 27q0 8 -5 10q-9 5 -21.5 9t-23.5 4q-19 0 -33.5 -15.5t-24.5 -29.5q-12 -18 -27.5 -47t-30 -61.5t-24 -62.5t-9.5 -51q0 -5 1.5 -13t8.5 -8z" />
    <glyph glyph-name="ntilde" unicode="&#xf1;" horiz-adv-x="392" 
d="M15 -18q-8 0 -8 6l13 38q5 13 6.5 25.5t5.5 25.5q6 26 13 52t15 51q3 9 8 26t9.5 34.5t4.5 26.5q0 5 -6.5 4t-7.5 2q7 18 12 37t12 37q3 8 16 15.5t21 7.5q14 0 14 -18q0 -16 -8 -49t-20.5 -72t-24 -75.5t-19.5 -59.5q32 30 64 66t58.5 72.5t41.5 66.5q0 11 14.5 15
t22.5 2q4 2 6 2q9 0 11.5 -13.5t2.5 -19.5q0 -11 -2.5 -30.5t-14.5 -25.5q-1 -8 -1 -16.5v-16.5q0 -12 1.5 -39.5t6.5 -57.5t16 -51.5t30 -21.5q18 0 31.5 10t23.5 23t16 23t9 10q5 0 5 -6q0 -14 -14.5 -34t-24.5 -30q-11 -12 -26 -21t-32 -9q-30 0 -47 21.5t-25.5 53
t-11 64t-2.5 53.5q0 19 0.5 37t1.5 36q-16 -28 -37 -54t-41 -51q-30 -34 -59 -74q-5 -7 -9.5 -16.5t-11.5 -16.5l-2 -2q-7 -19 -9 -29t-20 -22q-6 -4 -13 -8t-15 -4zM275 415q-19 0 -32 8t-26 15.5t-30 7.5q-13 0 -25 -7t-20.5 -14t-12.5 -7q-3 0 -3 5q2 7 12 20.5t26 25.5
t33 12t29 -7t26 -14t38 -7q16 0 28 11t16 12q4 0 2 -13q-9 -16 -24.5 -32t-36.5 -16z" />
    <glyph glyph-name="ograve" unicode="&#xf2;" horiz-adv-x="305" 
d="M93 -10q-37 0 -50 21.5t-13 55.5q0 36 11 69t24 66q-7 5 -12.5 13t-5.5 23q0 17 20 43.5t45 46.5q11 9 29 19.5t37 18t31 7.5q42 0 56 -34t10 -81q4 2 14.5 6t20.5 7.5t12 3.5q5 0 10 -5t5 -10q0 -3 -3 -5l-63 -24q-6 -31 -19.5 -72t-36 -79.5t-53 -64t-69.5 -25.5z
M141 225q25 0 48 5.5t50 14.5q1 5 1.5 11t0.5 11q0 12 -2.5 27t-10 26.5t-22.5 11.5q-17 0 -33 -13t-29.5 -31t-23 -35t-13.5 -25q18 -3 34 -3zM102 17q28 0 49.5 18.5t37.5 48.5t27.5 65t18.5 69q-30 -10 -68.5 -19.5t-70.5 -5.5q-10 -27 -17.5 -61t-7.5 -63q0 -16 5.5 -34
t25.5 -18zM286 438q-6 0 -24.5 11t-39 25.5t-35.5 23.5q-9 7 -25.5 19t-16.5 19q0 8 9.5 13.5t16.5 5.5q9 0 15 -4.5t11 -11.5q9 -10 24.5 -26t31 -31t23.5 -25q3 -2 8 -7t5 -10q0 -2 -3 -2z" />
    <glyph glyph-name="oacute" unicode="&#xf3;" horiz-adv-x="305" 
d="M93 -10q-37 0 -50 21.5t-13 55.5q0 36 11 69t24 66q-7 5 -12.5 13t-5.5 23q0 17 20 43.5t45 46.5q11 9 29 19.5t37 18t31 7.5q42 0 56 -34t10 -81q4 2 14.5 6t20.5 7.5t12 3.5q5 0 10 -5t5 -10q0 -3 -3 -5l-63 -24q-6 -31 -19.5 -72t-36 -79.5t-53 -64t-69.5 -25.5z
M141 225q25 0 48 5.5t50 14.5q1 5 1.5 11t0.5 11q0 12 -2.5 27t-10 26.5t-22.5 11.5q-17 0 -33 -13t-29.5 -31t-23 -35t-13.5 -25q18 -3 34 -3zM102 17q28 0 49.5 18.5t37.5 48.5t27.5 65t18.5 69q-30 -10 -68.5 -19.5t-70.5 -5.5q-10 -27 -17.5 -61t-7.5 -63q0 -16 5.5 -34
t25.5 -18zM180 438q-3 0 -3 2q0 5 5 10t8 7q9 10 24 25l31 31t24 26q5 7 11 11.5t15 4.5q8 0 17 -5.5t9 -13.5q0 -7 -16.5 -19t-25.5 -19q-14 -9 -35 -23.5t-39 -25.5t-25 -11z" />
    <glyph glyph-name="ocircumflex" unicode="&#xf4;" horiz-adv-x="305" 
d="M93 -10q-37 0 -50 21.5t-13 55.5q0 36 11 69t24 66q-7 5 -12.5 13t-5.5 23q0 17 20 43.5t45 46.5q11 9 29 19.5t37 18t31 7.5q42 0 56 -34t10 -81q4 2 14.5 6t20.5 7.5t12 3.5q5 0 10 -5t5 -10q0 -3 -3 -5l-63 -24q-6 -31 -19.5 -72t-36 -79.5t-53 -64t-69.5 -25.5z
M141 225q25 0 48 5.5t50 14.5q1 5 1.5 11t0.5 11q0 12 -2.5 27t-10 26.5t-22.5 11.5q-17 0 -33 -13t-29.5 -31t-23 -35t-13.5 -25q18 -3 34 -3zM102 17q28 0 49.5 18.5t37.5 48.5t27.5 65t18.5 69q-30 -10 -68.5 -19.5t-70.5 -5.5q-10 -27 -17.5 -61t-7.5 -63q0 -16 5.5 -34
t25.5 -18zM112 431l-1 0.5t-1 1.5q2 5 8.5 10t10.5 7q12 10 32.5 26t41 33t32.5 27q15 15 32 15q16 0 23 -15l13.5 -27t17.5 -33t15 -26q2 -2 5 -7t1 -10q-2 -2 -4 -2q-5 0 -20.5 16t-32 34.5t-25.5 27.5q-27 -15 -59 -33t-57 -31.5t-32 -13.5z" />
    <glyph glyph-name="otilde" unicode="&#xf5;" horiz-adv-x="305" 
d="M93 -10q-37 0 -50 21.5t-13 55.5q0 36 11 69t24 66q-7 5 -12.5 13t-5.5 23q0 17 20 43.5t45 46.5q11 9 29 19.5t37 18t31 7.5q42 0 56 -34t10 -81q4 2 14.5 6t20.5 7.5t12 3.5q5 0 10 -5t5 -10q0 -3 -3 -5l-63 -24q-6 -31 -19.5 -72t-36 -79.5t-53 -64t-69.5 -25.5z
M141 225q25 0 48 5.5t50 14.5q1 5 1.5 11t0.5 11q0 12 -2.5 27t-10 26.5t-22.5 11.5q-17 0 -33 -13t-29.5 -31t-23 -35t-13.5 -25q18 -3 34 -3zM102 17q28 0 49.5 18.5t37.5 48.5t27.5 65t18.5 69q-30 -10 -68.5 -19.5t-70.5 -5.5q-10 -27 -17.5 -61t-7.5 -63q0 -16 5.5 -34
t25.5 -18zM280 433q-19 0 -32 8t-26 15.5t-30 7.5q-13 0 -25 -7t-20.5 -14t-12.5 -7q-3 0 -3 5q2 7 12 20.5t26 25.5t33 12t29 -7t26 -14t38 -7q16 0 28 11t16 12q4 0 2 -13q-9 -16 -24.5 -32t-36.5 -16z" />
    <glyph glyph-name="odieresis" unicode="&#xf6;" horiz-adv-x="305" 
d="M277 437q-8 0 -14 10.5t-6 18.5q0 10 12 20t26.5 16.5t22.5 6.5t8 -4q0 -12 -14 -32q-6 -7 -10.5 -21.5t-24.5 -14.5zM158 438q-8 0 -14 10.5t-6 18.5q0 10 12 20t26.5 16.5t22.5 6.5t8 -4q0 -12 -14 -32q-6 -7 -10.5 -21.5t-24.5 -14.5zM93 -10q-37 0 -50 21.5t-13 55.5
q0 36 11 69t24 66q-7 5 -12.5 13t-5.5 23q0 17 20 43.5t45 46.5q11 9 29 19.5t37 18t31 7.5q42 0 56 -34t10 -81q4 2 14.5 6t20.5 7.5t12 3.5q5 0 10 -5t5 -10q0 -3 -3 -5l-63 -24q-6 -31 -19.5 -72t-36 -79.5t-53 -64t-69.5 -25.5zM141 225q25 0 48 5.5t50 14.5q1 5 1.5 11
t0.5 11q0 12 -2.5 27t-10 26.5t-22.5 11.5q-17 0 -33 -13t-29.5 -31t-23 -35t-13.5 -25q18 -3 34 -3zM102 17q28 0 49.5 18.5t37.5 48.5t27.5 65t18.5 69q-30 -10 -68.5 -19.5t-70.5 -5.5q-10 -27 -17.5 -61t-7.5 -63q0 -16 5.5 -34t25.5 -18z" />
    <glyph glyph-name="divide" unicode="&#xf7;" horiz-adv-x="406" 
d="M250 255q-7 0 -12.5 11t-5.5 18q0 19 20 27q4 4 12 11.5t16.5 14t13.5 6.5q4 0 4 -6q0 -7 -6.5 -24.5t-8.5 -24.5q-4 -10 -11.5 -21.5t-21.5 -11.5zM98 187q-9 2 -20 12t-13 17l3 3q40 4 80 5.5t79 1.5q22 0 55.5 -1t66.5 -3.5t52 -9.5q5 -1 5 -5q0 -6 -10 -6
q-52 0 -102.5 -2.5t-102.5 -5.5q-22 -1 -46.5 -1.5t-46.5 -4.5zM161 52q-9 0 -14 12t-5 19q0 9 6.5 15.5t13.5 9.5q5 5 17.5 12t25.5 13t19 6q1 0 3 -2q-4 -4 -8.5 -9t-8.5 -10q-7 -9 -13 -25t-14 -28.5t-22 -12.5z" />
    <glyph glyph-name="oslash" unicode="&#xf8;" horiz-adv-x="259" 
d="M3 -148q-3 0 -5 7.5t-2 17.5q0 17 11 49t30 74q-13 10 -18.5 27.5t-5.5 39.5q0 36 8.5 71.5t21.5 68.5q-7 5 -12.5 13t-5.5 18q0 18 13.5 37.5t34.5 37.5t42.5 31.5t36.5 19.5q4 5 10.5 7t12.5 2q35 0 56 -16q20 32 37 56.5t30 38.5q6 8 14 8q4 0 9.5 -2.5t5.5 -7.5
l-9.5 -12t-21.5 -27t-20 -27q-7 -11 -14.5 -22.5t-14.5 -23.5q9 -15 12 -36t3 -44q0 -51 -16 -98.5t-42.5 -86t-59.5 -61t-68 -22.5h-8.5t-8.5 1q-15 -36 -26.5 -70t-19.5 -66q-3 -3 -10 -3zM57 43q32 65 72 138.5t78 136.5q-8 5 -18 5q-23 0 -45 -23t-39 -53.5t-26 -53.5
q-10 -27 -17.5 -61t-7.5 -63q0 -14 3 -26zM85 17q21 0 37 9t28 25q17 22 34 59t28.5 79t11.5 78q0 16 -3 29q-43 -69 -81.5 -139t-67.5 -137q5 -3 13 -3z" />
    <glyph glyph-name="ugrave" unicode="&#xf9;" horiz-adv-x="343" 
d="M228 -10q-8 0 -15.5 6t-7.5 15q0 31 7.5 69t17.5 76.5t17 69.5q-8 -15 -27 -43t-44 -60.5t-51.5 -62t-50 -48.5t-39.5 -19q-8 0 -11.5 6t-3.5 13q0 12 7 34.5t16.5 49t19 50.5t13.5 40l16 56h-2q-3 0 -6.5 2t-3.5 6q0 1 0.5 2t0.5 2q5 20 7 42.5t12.5 38.5t37.5 16
q17 0 17 -17q0 -14 -8 -45.5t-19.5 -68.5t-22.5 -69.5t-16 -49.5q-2 -7 -8 -24.5t-6 -24.5l1 -2q1 0 3 2q40 25 74.5 69t63 93t49.5 89q-1 5 -1 9v8q0 22 18.5 30t36.5 8q6 0 13 -2t7 -10q0 -4 -1.5 -7.5t-3.5 -7.5q-18 -35 -31.5 -71t-25.5 -74q-5 -17 -13 -43.5t-13.5 -53
t-5.5 -44.5q0 -7 2.5 -15.5t11.5 -8.5q8 0 21 9.5t27.5 22.5t26 22.5t15.5 9.5q3 0 3 -5q0 -3 -2 -9.5t-8 -11.5q-11 -10 -31 -26.5t-42.5 -29.5t-41.5 -13zM302 420q-6 0 -24.5 11t-39 25.5t-35.5 23.5q-9 7 -25.5 19t-16.5 19q0 8 9.5 13.5t16.5 5.5q9 0 15 -4.5t11 -11.5
q9 -10 24.5 -26t31 -31t23.5 -25q3 -2 8 -7t5 -10q0 -2 -3 -2z" />
    <glyph glyph-name="uacute" unicode="&#xfa;" horiz-adv-x="343" 
d="M228 -10q-8 0 -15.5 6t-7.5 15q0 31 7.5 69t17.5 76.5t17 69.5q-8 -15 -27 -43t-44 -60.5t-51.5 -62t-50 -48.5t-39.5 -19q-8 0 -11.5 6t-3.5 13q0 12 7 34.5t16.5 49t19 50.5t13.5 40l16 56h-2q-3 0 -6.5 2t-3.5 6q0 1 0.5 2t0.5 2q5 20 7 42.5t12.5 38.5t37.5 16
q17 0 17 -17q0 -14 -8 -45.5t-19.5 -68.5t-22.5 -69.5t-16 -49.5q-2 -7 -8 -24.5t-6 -24.5l1 -2q1 0 3 2q40 25 74.5 69t63 93t49.5 89q-1 5 -1 9v8q0 22 18.5 30t36.5 8q6 0 13 -2t7 -10q0 -4 -1.5 -7.5t-3.5 -7.5q-18 -35 -31.5 -71t-25.5 -74q-5 -17 -13 -43.5t-13.5 -53
t-5.5 -44.5q0 -7 2.5 -15.5t11.5 -8.5q8 0 21 9.5t27.5 22.5t26 22.5t15.5 9.5q3 0 3 -5q0 -3 -2 -9.5t-8 -11.5q-11 -10 -31 -26.5t-42.5 -29.5t-41.5 -13zM196 420q-3 0 -3 2q0 5 5 10t8 7q9 10 24 25l31 31t24 26q5 7 11 11.5t15 4.5q8 0 17 -5.5t9 -13.5q0 -7 -16.5 -19
t-25.5 -19q-14 -9 -35 -23.5t-39 -25.5t-25 -11z" />
    <glyph glyph-name="ucircumflex" unicode="&#xfb;" horiz-adv-x="343" 
d="M228 -10q-8 0 -15.5 6t-7.5 15q0 31 7.5 69t17.5 76.5t17 69.5q-8 -15 -27 -43t-44 -60.5t-51.5 -62t-50 -48.5t-39.5 -19q-8 0 -11.5 6t-3.5 13q0 12 7 34.5t16.5 49t19 50.5t13.5 40l16 56h-2q-3 0 -6.5 2t-3.5 6q0 1 0.5 2t0.5 2q5 20 7 42.5t12.5 38.5t37.5 16
q17 0 17 -17q0 -14 -8 -45.5t-19.5 -68.5t-22.5 -69.5t-16 -49.5q-2 -7 -8 -24.5t-6 -24.5l1 -2q1 0 3 2q40 25 74.5 69t63 93t49.5 89q-1 5 -1 9v8q0 22 18.5 30t36.5 8q6 0 13 -2t7 -10q0 -4 -1.5 -7.5t-3.5 -7.5q-18 -35 -31.5 -71t-25.5 -74q-5 -17 -13 -43.5t-13.5 -53
t-5.5 -44.5q0 -7 2.5 -15.5t11.5 -8.5q8 0 21 9.5t27.5 22.5t26 22.5t15.5 9.5q3 0 3 -5q0 -3 -2 -9.5t-8 -11.5q-11 -10 -31 -26.5t-42.5 -29.5t-41.5 -13zM128 413l-1 0.5t-1 1.5q2 5 8.5 10t10.5 7q12 10 32.5 26t41 33t32.5 27q15 15 32 15q16 0 23 -15l13.5 -27
t17.5 -33t15 -26q2 -2 5 -7t1 -10q-2 -2 -4 -2q-5 0 -20.5 16t-32 34.5t-25.5 27.5q-27 -15 -59 -33t-57 -31.5t-32 -13.5z" />
    <glyph glyph-name="udieresis" unicode="&#xfc;" horiz-adv-x="343" 
d="M293 419q-8 0 -14 10.5t-6 18.5q0 10 12 20t26.5 16.5t22.5 6.5t8 -4q0 -12 -14 -32q-6 -7 -10.5 -21.5t-24.5 -14.5zM174 420q-8 0 -14 10.5t-6 18.5q0 10 12 20t26.5 16.5t22.5 6.5t8 -4q0 -12 -14 -32q-6 -7 -10.5 -21.5t-24.5 -14.5zM228 -10q-8 0 -15.5 6t-7.5 15
q0 31 7.5 69t17.5 76.5t17 69.5q-8 -15 -27 -43t-44 -60.5t-51.5 -62t-50 -48.5t-39.5 -19q-8 0 -11.5 6t-3.5 13q0 12 7 34.5t16.5 49t19 50.5t13.5 40l16 56h-2q-3 0 -6.5 2t-3.5 6q0 1 0.5 2t0.5 2q5 20 7 42.5t12.5 38.5t37.5 16q17 0 17 -17q0 -14 -8 -45.5
t-19.5 -68.5t-22.5 -69.5t-16 -49.5q-2 -7 -8 -24.5t-6 -24.5l1 -2q1 0 3 2q40 25 74.5 69t63 93t49.5 89q-1 5 -1 9v8q0 22 18.5 30t36.5 8q6 0 13 -2t7 -10q0 -4 -1.5 -7.5t-3.5 -7.5q-18 -35 -31.5 -71t-25.5 -74q-5 -17 -13 -43.5t-13.5 -53t-5.5 -44.5q0 -7 2.5 -15.5
t11.5 -8.5q8 0 21 9.5t27.5 22.5t26 22.5t15.5 9.5q3 0 3 -5q0 -3 -2 -9.5t-8 -11.5q-11 -10 -31 -26.5t-42.5 -29.5t-41.5 -13z" />
    <glyph glyph-name="yacute" unicode="&#xfd;" horiz-adv-x="359" 
d="M-7 -332q-43 0 -76 21t-50 61q-7 17 -12 36t-5 38q0 6 2.5 21t10.5 15q6 0 7 -9t1 -13q0 -24 11 -48.5t24 -44.5q15 -23 37 -42t51 -19q39 0 72 27t60.5 71.5t49.5 98.5t38 109t26.5 102.5t14.5 77.5l8 56q-7 -16 -26.5 -44.5t-45 -61t-53 -61.5t-52.5 -47.5t-43 -18.5
q-10 0 -13.5 5t-3.5 15q0 12 6.5 34t15.5 47t18 47t13 33q2 5 7.5 20.5t12 33.5t11.5 32t5 16q0 3 -7 3t-7 3l6 18q5 14 9.5 28.5t9.5 27.5q3 8 17.5 15t23.5 7q16 0 16 -18q0 -14 -4 -33t-10 -33l-73 -173q-4 -10 -11.5 -29.5t-7.5 -30.5q0 -4 2 -7.5t6 -3.5q9 0 20.5 8
t22.5 18.5t16 15.5q47 47 78.5 100t60.5 111q-1 5 -1 9v8q0 22 19.5 30.5t37.5 8.5q7 0 13.5 -3t6.5 -11q0 -4 -7.5 -24t-18 -46t-19.5 -49t-12 -33q-14 -52 -27.5 -111.5t-31 -120.5t-43.5 -116t-64.5 -98.5t-93.5 -68.5q-21 -10 -49 -10zM228 430q-3 0 -3 2q0 5 5 10t8 7
q9 10 24 25l31 31t24 26q5 7 11 11.5t15 4.5q8 0 17 -5.5t9 -13.5q0 -7 -16.5 -19t-25.5 -19q-14 -9 -35 -23.5t-39 -25.5t-25 -11z" />
    <glyph glyph-name="thorn" unicode="&#xfe;" horiz-adv-x="531" 
d="M107 -250q-24 0 -37.5 13.5t-19.5 35t-7.5 44.5t-1.5 41q0 72 14.5 145t37 139.5t46.5 121t43 88.5q-13 -4 -20 -4q-12 0 -1.5 8.5t30.5 13.5q1 2 11.5 22.5t25.5 50.5l30 60l25.5 51t11.5 24q12 11 28.5 15.5t32.5 4.5q5 0 15.5 -1.5t10.5 -9.5q0 -2 -13 -23.5
t-32.5 -52.5l-39 -62t-33.5 -52.5t-15 -23.5h14q31 0 73 -4t82.5 -16.5t67 -37.5t26.5 -66q0 -43 -23.5 -77t-62 -59t-84.5 -42t-91 -25t-80 -8q-7 0 -22 1.5t-15 11.5q0 11 11 13.5t18 2.5l62 2t62 6q28 5 60.5 17.5t61 31.5t47 44.5t18.5 58.5q0 36 -26 60t-64.5 38.5
t-78.5 21t-69 7.5q-38 -54 -69 -123t-53.5 -141t-35 -139.5t-12.5 -118.5q0 -11 1.5 -31t9.5 -36t25 -16q15 0 25.5 9t18.5 18t14 9q4 0 4 -2q0 -7 -11.5 -15.5t-11.5 -20.5q0 -1 6.5 -7t7.5 -8q0 -3 -11 -5t-23 -2.5t-14 -0.5z" />
    <glyph glyph-name="ydieresis" unicode="&#xff;" horiz-adv-x="359" 
d="M325 429q-8 0 -14 10.5t-6 18.5q0 10 12 20t26.5 16.5t22.5 6.5t8 -4q0 -12 -14 -32q-6 -7 -10.5 -21.5t-24.5 -14.5zM206 430q-8 0 -14 10.5t-6 18.5q0 10 12 20t26.5 16.5t22.5 6.5t8 -4q0 -12 -14 -32q-6 -7 -10.5 -21.5t-24.5 -14.5zM-7 -332q-43 0 -76 21t-50 61
q-7 17 -12 36t-5 38q0 6 2.5 21t10.5 15q6 0 7 -9t1 -13q0 -24 11 -48.5t24 -44.5q15 -23 37 -42t51 -19q39 0 72 27t60.5 71.5t49.5 98.5t38 109t26.5 102.5t14.5 77.5l8 56q-7 -16 -26.5 -44.5t-45 -61t-53 -61.5t-52.5 -47.5t-43 -18.5q-10 0 -13.5 5t-3.5 15
q0 12 6.5 34t15.5 47t18 47t13 33q2 5 7.5 20.5t12 33.5t11.5 32t5 16q0 3 -7 3t-7 3l6 18q5 14 9.5 28.5t9.5 27.5q3 8 17.5 15t23.5 7q16 0 16 -18q0 -14 -4 -33t-10 -33l-73 -173q-4 -10 -11.5 -29.5t-7.5 -30.5q0 -4 2 -7.5t6 -3.5q9 0 20.5 8t22.5 18.5t16 15.5
q47 47 78.5 100t60.5 111q-1 5 -1 9v8q0 22 19.5 30.5t37.5 8.5q7 0 13.5 -3t6.5 -11q0 -4 -7.5 -24t-18 -46t-19.5 -49t-12 -33q-14 -52 -27.5 -111.5t-31 -120.5t-43.5 -116t-64.5 -98.5t-93.5 -68.5q-21 -10 -49 -10z" />
    <glyph glyph-name="Amacron" unicode="&#x100;" horiz-adv-x="594" 
d="M-16 -31q-4 0 -10 1t-6 7q0 3 6.5 13.5t13.5 21.5t9 15q3 5 4.5 10.5t3.5 9.5q2 7 12 7q4 0 6 -1q18 31 39.5 65t39.5 61t24 35q-10 0 -21 -1t-23 -1q-7 0 -18.5 2t-11.5 9q0 1 0.5 1.5t0.5 1.5q8 23 17.5 27.5t31.5 4.5h26.5t26.5 -2q46 67 82 114.5t67.5 84t63.5 68.5
t70 67q-1 5 -2.5 11.5t-1.5 11.5q0 8 13 17.5t19 9.5q4 0 7.5 -1.5t4.5 -8.5q3 -24 6 -65.5t5.5 -92.5t4 -103.5t1.5 -98.5v-34h4q2 0 12.5 -0.5t10.5 -3.5q0 -8 -12.5 -11.5t-15.5 -3.5q0 -34 -1 -64t-3 -63q-1 -16 -2 -32.5t-3 -33.5q-1 -6 -9 -15.5t-17.5 -17t-16.5 -7.5
q-4 0 -4 4q0 2 2.5 25.5t5.5 45.5q1 4 2.5 27.5t3.5 58t2 70.5q-24 0 -103.5 -0.5t-196.5 -0.5q-7 -10 -20 -29.5t-26.5 -40.5t-22.5 -38q-14 -24 -31.5 -52.5t-31.5 -53.5q-2 -4 -9.5 -17t-14.5 -13h-1t-2 1q-3 -2 -11 -2zM456 236q0 20 -0.5 62t-2 91.5t-4 95t-5.5 73.5
q-12 -6 -34.5 -29.5t-52 -57.5t-60.5 -73.5t-59.5 -78t-49.5 -69.5q8 -2 17.5 -5t15.5 -7q14 1 32 0.5t37 -0.5q42 0 83.5 -0.5t82.5 -1.5zM364 706q-6 0 -10 8t-4 15l1 2q11 4 35 5.5t48.5 2.5t36.5 1t31.5 -1t40 -2t32.5 -3q16 -1 16 -7q0 -8 -18 -11q-17 -2 -45.5 -4
t-60 -3.5t-59.5 -2t-44 -0.5z" />
    <glyph glyph-name="amacron" unicode="&#x101;" horiz-adv-x="363" 
d="M287 -7q-28 0 -42 20t-18.5 46.5t-4.5 47.5t2.5 41.5t5.5 40.5q-10 -13 -28 -36.5t-41 -51t-47 -52t-46.5 -40t-38.5 -15.5q-14 0 -17.5 13t-3.5 23q0 45 18 95t37 90q5 11 15 30t23.5 39t28.5 33t30 11q11 7 21.5 12.5t23.5 5.5q8 0 26.5 -5t26.5 -7q4 8 12 12t16 4
t11 -1q4 2 6 2q6 0 8 -8.5t2 -13.5q0 -13 -3 -23t-8 -22q-4 -10 -6.5 -18.5t-11.5 -15.5q-7 -36 -10.5 -72.5t-3.5 -73.5q0 -13 1.5 -31t9 -32t23.5 -14q25 0 44.5 18.5t32.5 35.5q2 3 5 6.5t7 5.5l3 -6q0 -10 -10 -24t-22 -26.5t-20 -18.5q-12 -10 -26.5 -17.5t-30.5 -7.5z
M63 35q6 0 13 5t11 9q47 41 83.5 92t63.5 106q3 5 6 11t4 12q2 8 4 17.5t3 17.5q-1 5 -11 9t-21.5 6.5t-16.5 2.5q-19 0 -33.5 -15.5t-24.5 -29.5q-12 -18 -27.5 -47t-30 -61.5t-24 -62.5t-9.5 -51q0 -5 1.5 -13t8.5 -8zM162 416q-6 0 -10 8t-4 15l1 2q11 4 30 5.5t38.5 2.5
t31.5 1q17 0 46 -2t48 -4q16 -1 16 -7q0 -8 -18 -11q-22 -3 -56 -5t-67.5 -3.5t-55.5 -1.5z" />
    <glyph glyph-name="Abreve" unicode="&#x102;" horiz-adv-x="594" 
d="M-16 -31q-4 0 -10 1t-6 7q0 3 6.5 13.5t13.5 21.5t9 15q3 5 4.5 10.5t3.5 9.5q2 7 12 7q4 0 6 -1q18 31 39.5 65t39.5 61t24 35q-10 0 -21 -1t-23 -1q-7 0 -18.5 2t-11.5 9q0 1 0.5 1.5t0.5 1.5q8 23 17.5 27.5t31.5 4.5h26.5t26.5 -2q46 67 82 114.5t67.5 84t63.5 68.5
t70 67q-1 5 -2.5 11.5t-1.5 11.5q0 8 13 17.5t19 9.5q4 0 7.5 -1.5t4.5 -8.5q3 -24 6 -65.5t5.5 -92.5t4 -103.5t1.5 -98.5v-34h4q2 0 12.5 -0.5t10.5 -3.5q0 -8 -12.5 -11.5t-15.5 -3.5q0 -34 -1 -64t-3 -63q-1 -16 -2 -32.5t-3 -33.5q-1 -6 -9 -15.5t-17.5 -17t-16.5 -7.5
q-4 0 -4 4q0 2 2.5 25.5t5.5 45.5q1 4 2.5 27.5t3.5 58t2 70.5q-24 0 -103.5 -0.5t-196.5 -0.5q-7 -10 -20 -29.5t-26.5 -40.5t-22.5 -38q-14 -24 -31.5 -52.5t-31.5 -53.5q-2 -4 -9.5 -17t-14.5 -13h-1t-2 1q-3 -2 -11 -2zM456 236q0 20 -0.5 62t-2 91.5t-4 95t-5.5 73.5
q-12 -6 -34.5 -29.5t-52 -57.5t-60.5 -73.5t-59.5 -78t-49.5 -69.5q8 -2 17.5 -5t15.5 -7q14 1 32 0.5t37 -0.5q42 0 83.5 -0.5t82.5 -1.5zM483 710q-85 0 -88 60v9.5t1 7.5q2 11 6 14t8 3q6 0 10 -11q4 -17 20 -31.5t52 -14.5q24 0 50.5 8t62.5 39q6 6 15 6q8 0 0 -9
q-9 -11 -28 -30.5t-46.5 -35t-62.5 -15.5z" />
    <glyph glyph-name="abreve" unicode="&#x103;" horiz-adv-x="363" 
d="M287 -7q-28 0 -42 20t-18.5 46.5t-4.5 47.5t2.5 41.5t5.5 40.5q-10 -13 -28 -36.5t-41 -51t-47 -52t-46.5 -40t-38.5 -15.5q-14 0 -17.5 13t-3.5 23q0 45 18 95t37 90q5 11 15 30t23.5 39t28.5 33t30 11q11 7 21.5 12.5t23.5 5.5q8 0 26.5 -5t26.5 -7q4 8 12 12t16 4
t11 -1q4 2 6 2q6 0 8 -8.5t2 -13.5q0 -13 -3 -23t-8 -22q-4 -10 -6.5 -18.5t-11.5 -15.5q-7 -36 -10.5 -72.5t-3.5 -73.5q0 -13 1.5 -31t9 -32t23.5 -14q25 0 44.5 18.5t32.5 35.5q2 3 5 6.5t7 5.5l3 -6q0 -10 -10 -24t-22 -26.5t-20 -18.5q-12 -10 -26.5 -17.5t-30.5 -7.5z
M63 35q6 0 13 5t11 9q47 41 83.5 92t63.5 106q3 5 6 11t4 12q2 8 4 17.5t3 17.5q-1 5 -11 9t-21.5 6.5t-16.5 2.5q-19 0 -33.5 -15.5t-24.5 -29.5q-12 -18 -27.5 -47t-30 -61.5t-24 -62.5t-9.5 -51q0 -5 1.5 -13t8.5 -8zM252 420q-27 0 -46.5 14.5t-21.5 45.5v9.5t1 7.5
q2 11 6 14t8 3q6 0 10 -11q4 -17 14 -31.5t38 -14.5q17 0 29.5 2t29.5 12t44 33q6 6 15 6q8 0 0 -9q-9 -11 -27.5 -30.5t-44 -35t-55.5 -15.5z" />
    <glyph glyph-name="Aogonek" unicode="&#x104;" horiz-adv-x="594" 
d="M-16 -31q-4 0 -10 1t-6 7q0 3 6.5 13.5t13.5 21.5t9 15q3 5 4.5 10.5t3.5 9.5q2 7 12 7q4 0 6 -1q18 31 39.5 65t39.5 61t24 35q-10 0 -21 -1t-23 -1q-7 0 -18.5 2t-11.5 9q0 1 0.5 1.5t0.5 1.5q8 23 17.5 27.5t31.5 4.5h26.5t26.5 -2q46 67 82 114.5t67.5 84t63.5 68.5
t70 67q-1 5 -2.5 11.5t-1.5 11.5q0 8 13 17.5t19 9.5q4 0 7.5 -1.5t4.5 -8.5q3 -24 6 -65.5t5.5 -92.5t4 -103.5t1.5 -98.5v-34h4q2 0 12.5 -0.5t10.5 -3.5q0 -8 -12.5 -11.5t-15.5 -3.5q0 -34 -1 -64t-3 -63q-1 -16 -2 -32.5t-3 -33.5q-1 -6 -9 -15.5t-17.5 -17t-16.5 -7.5
q-4 0 -4 4q0 2 2.5 25.5t5.5 45.5q1 4 2.5 27.5t3.5 58t2 70.5q-24 0 -103.5 -0.5t-196.5 -0.5q-7 -10 -20 -29.5t-26.5 -40.5t-22.5 -38q-14 -24 -31.5 -52.5t-31.5 -53.5q-2 -4 -9.5 -17t-14.5 -13h-1t-2 1q-3 -2 -11 -2zM456 236q0 20 -0.5 62t-2 91.5t-4 95t-5.5 73.5
q-12 -6 -34.5 -29.5t-52 -57.5t-60.5 -73.5t-59.5 -78t-49.5 -69.5q8 -2 17.5 -5t15.5 -7q14 1 32 0.5t37 -0.5q42 0 83.5 -0.5t82.5 -1.5zM446 -147q-18 0 -38.5 8t-20.5 30q0 11 7 30t18 39.5t23.5 35t24.5 14.5l11 -3q-13 -13 -27 -40t-14 -47q0 -17 11.5 -25.5
t25.5 -8.5q18 0 38 4t36 14q1 1 1.5 1h0.5q3 0 5 -3.5t2 -6.5q0 -9 -18 -19t-42.5 -16.5t-43.5 -6.5z" />
    <glyph glyph-name="aogonek" unicode="&#x105;" horiz-adv-x="363" 
d="M287 -7q-28 0 -42 20t-18.5 46.5t-4.5 47.5t2.5 41.5t5.5 40.5q-10 -13 -28 -36.5t-41 -51t-47 -52t-46.5 -40t-38.5 -15.5q-14 0 -17.5 13t-3.5 23q0 45 18 95t37 90q5 11 15 30t23.5 39t28.5 33t30 11q11 7 21.5 12.5t23.5 5.5q8 0 26.5 -5t26.5 -7q4 8 12 12t16 4
t11 -1q4 2 6 2q6 0 8 -8.5t2 -13.5q0 -13 -3 -23t-8 -22q-4 -10 -6.5 -18.5t-11.5 -15.5q-7 -36 -10.5 -72.5t-3.5 -73.5q0 -13 1.5 -31t9 -32t23.5 -14q25 0 44.5 18.5t32.5 35.5q2 3 5 6.5t7 5.5l3 -6q0 -10 -10 -24t-22 -26.5t-20 -18.5q-12 -10 -26.5 -17.5t-30.5 -7.5z
M63 35q6 0 13 5t11 9q47 41 83.5 92t63.5 106q3 5 6 11t4 12q2 8 4 17.5t3 17.5q-1 5 -11 9t-21.5 6.5t-16.5 2.5q-19 0 -33.5 -15.5t-24.5 -29.5q-12 -18 -27.5 -47t-30 -61.5t-24 -62.5t-9.5 -51q0 -5 1.5 -13t8.5 -8zM281 -147q-18 0 -38.5 8t-20.5 30q0 11 7 30t18 39.5
t23.5 35t24.5 14.5l11 -3q-13 -13 -27 -40t-14 -47q0 -17 11.5 -25.5t25.5 -8.5q18 0 38 4t36 14q1 1 1.5 1h0.5q3 0 5 -3.5t2 -6.5q0 -9 -18 -19t-42.5 -16.5t-43.5 -6.5z" />
    <glyph glyph-name="Cacute" unicode="&#x106;" horiz-adv-x="653" 
d="M305 -21q-90 0 -149 35t-87.5 90t-28.5 113q0 72 25 142.5t73.5 128t118.5 92t161 34.5q65 0 107 -19t62.5 -49.5t20.5 -65.5q0 -38 -13.5 -54t-30.5 -16q-13 0 -19.5 11.5t-6.5 20.5q0 19 7 28t13.5 17.5t6.5 25.5q0 33 -43 55.5t-111 22.5q-63 0 -121 -25t-102.5 -72.5
t-70.5 -115.5t-26 -153q0 -58 23 -109t71 -82.5t123 -31.5q89 0 159.5 45t117.5 115q8 11 15 11q6 0 6 -7q0 -9 -4 -16q-51 -90 -125.5 -130.5t-171.5 -40.5zM344 674q-1 0 -2 1t0 2q1 4 6.5 8t9.5 6q10 8 32.5 21.5t45 28t32.5 22.5q5 5 11 7.5t13 2.5q10 0 19 -8t7 -16
q-1 -7 -20.5 -16.5t-44.5 -20.5q-15 -6 -38.5 -16t-43.5 -16.5t-27 -5.5z" />
    <glyph glyph-name="cacute" unicode="&#x107;" horiz-adv-x="262" 
d="M75 -7q-28 0 -40 14t-12 41q0 7 0.5 13.5t1.5 13.5q2 17 8.5 46t17 62.5t24 65t30 53t35.5 26.5q24 6 48 18t49 12q24 0 30 -16t6 -36q0 -23 -18 -33q-4 -3 -9.5 -5.5t-11.5 -2.5q-7 0 -7 6t2 12t2 13q0 11 -4.5 26.5t-19.5 15.5q-11 0 -24 -9.5t-21 -16.5
q-15 -13 -31.5 -46.5t-30.5 -73.5t-22.5 -77t-8.5 -58q0 -16 6 -30.5t25 -14.5q27 0 51.5 21.5t45.5 49t35 45.5h1q4 0 4.5 -4t0.5 -6q0 -17 -8 -32t-20 -26q-27 -25 -61.5 -46t-73.5 -21zM158 420q-3 0 -3 2q0 5 5 10t8 7q9 10 24 25l31 31t24 26q5 7 11 11.5t15 4.5
q8 0 17 -5.5t9 -13.5q0 -7 -16.5 -19t-25.5 -19q-14 -9 -35 -23.5t-39 -25.5t-25 -11z" />
    <glyph glyph-name="Ccircumflex" unicode="&#x108;" horiz-adv-x="653" 
d="M305 -21q-90 0 -149 35t-87.5 90t-28.5 113q0 72 25 142.5t73.5 128t118.5 92t161 34.5q65 0 107 -19t62.5 -49.5t20.5 -65.5q0 -38 -13.5 -54t-30.5 -16q-13 0 -19.5 11.5t-6.5 20.5q0 19 7 28t13.5 17.5t6.5 25.5q0 33 -43 55.5t-111 22.5q-63 0 -121 -25t-102.5 -72.5
t-70.5 -115.5t-26 -153q0 -58 23 -109t71 -82.5t123 -31.5q89 0 159.5 45t117.5 115q8 11 15 11q6 0 6 -7q0 -9 -4 -16q-51 -90 -125.5 -130.5t-171.5 -40.5zM300 668l-1 0.5t-1 1.5q2 5 8.5 10t10.5 7q20 14 44.5 29.5t47 31t34.5 25.5q15 15 32 15q16 0 23 -15
q8 -16 25.5 -41t30.5 -45q2 -2 5 -7t1 -10q-2 -2 -4 -2q-4 0 -15.5 9.5t-26.5 23t-28 26t-19 19.5q-20 -11 -46.5 -24.5t-52 -25.5t-44.5 -20t-24 -8z" />
    <glyph glyph-name="ccircumflex" unicode="&#x109;" horiz-adv-x="262" 
d="M75 -7q-28 0 -40 14t-12 41q0 7 0.5 13.5t1.5 13.5q2 17 8.5 46t17 62.5t24 65t30 53t35.5 26.5q24 6 48 18t49 12q24 0 30 -16t6 -36q0 -23 -18 -33q-4 -3 -9.5 -5.5t-11.5 -2.5q-7 0 -7 6t2 12t2 13q0 11 -4.5 26.5t-19.5 15.5q-11 0 -24 -9.5t-21 -16.5
q-15 -13 -31.5 -46.5t-30.5 -73.5t-22.5 -77t-8.5 -58q0 -16 6 -30.5t25 -14.5q27 0 51.5 21.5t45.5 49t35 45.5h1q4 0 4.5 -4t0.5 -6q0 -17 -8 -32t-20 -26q-27 -25 -61.5 -46t-73.5 -21zM90 413l-1 0.5t-1 1.5q2 5 8.5 10t10.5 7q12 10 32.5 26t41 33t32.5 27q15 15 32 15
q16 0 23 -15l13.5 -27t17.5 -33t15 -26q2 -2 5 -7t1 -10q-2 -2 -4 -2q-5 0 -20.5 16t-32 34.5t-25.5 27.5q-27 -15 -59 -33t-57 -31.5t-32 -13.5z" />
    <glyph glyph-name="Cdotaccent" unicode="&#x10a;" horiz-adv-x="653" 
d="M305 -21q-90 0 -149 35t-87.5 90t-28.5 113q0 72 25 142.5t73.5 128t118.5 92t161 34.5q65 0 107 -19t62.5 -49.5t20.5 -65.5q0 -38 -13.5 -54t-30.5 -16q-13 0 -19.5 11.5t-6.5 20.5q0 19 7 28t13.5 17.5t6.5 25.5q0 33 -43 55.5t-111 22.5q-63 0 -121 -25t-102.5 -72.5
t-70.5 -115.5t-26 -153q0 -58 23 -109t71 -82.5t123 -31.5q89 0 159.5 45t117.5 115q8 11 15 11q6 0 6 -7q0 -9 -4 -16q-51 -90 -125.5 -130.5t-171.5 -40.5zM427 675q-7 0 -12.5 9.5t-5.5 16.5q0 9 10.5 18t24 15t20.5 6t7 -4q0 -11 -13 -27q-5 -7 -9 -20.5t-22 -13.5z" />
    <glyph glyph-name="cdotaccent" unicode="&#x10b;" horiz-adv-x="262" 
d="M75 -7q-28 0 -40 14t-12 41q0 7 0.5 13.5t1.5 13.5q2 17 8.5 46t17 62.5t24 65t30 53t35.5 26.5q24 6 48 18t49 12q24 0 30 -16t6 -36q0 -23 -18 -33q-4 -3 -9.5 -5.5t-11.5 -2.5q-7 0 -7 6t2 12t2 13q0 11 -4.5 26.5t-19.5 15.5q-11 0 -24 -9.5t-21 -16.5
q-15 -13 -31.5 -46.5t-30.5 -73.5t-22.5 -77t-8.5 -58q0 -16 6 -30.5t25 -14.5q27 0 51.5 21.5t45.5 49t35 45.5h1q4 0 4.5 -4t0.5 -6q0 -17 -8 -32t-20 -26q-27 -25 -61.5 -46t-73.5 -21zM200 420q-7 0 -12.5 9.5t-5.5 16.5q0 9 10.5 18t24 15t20.5 6t7 -4q0 -10 -12 -28
q-6 -7 -10 -20t-22 -13z" />
    <glyph glyph-name="Ccaron" unicode="&#x10c;" horiz-adv-x="653" 
d="M607 795l1 -0.5t1 -1.5q-1 -4 -8 -9.5t-11 -7.5q-20 -13 -44.5 -29t-46.5 -31t-35 -26q-15 -15 -32 -15q-16 0 -23 15q-7 16 -25 41t-31 45q-1 2 -4 7.5t-2 9.5q2 2 4 2q4 0 15.5 -9.5t26.5 -23t28 -26t19 -19.5q20 11 46.5 24.5t52 25.5t44.5 20t24 8zM305 -21
q-90 0 -149 35t-87.5 90t-28.5 113q0 72 25 142.5t73.5 128t118.5 92t161 34.5q65 0 107 -19t62.5 -49.5t20.5 -65.5q0 -38 -13.5 -54t-30.5 -16q-13 0 -19.5 11.5t-6.5 20.5q0 19 7 28t13.5 17.5t6.5 25.5q0 33 -43 55.5t-111 22.5q-63 0 -121 -25t-102.5 -72.5
t-70.5 -115.5t-26 -153q0 -58 23 -109t71 -82.5t123 -31.5q89 0 159.5 45t117.5 115q8 11 15 11q6 0 6 -7q0 -9 -4 -16q-51 -90 -125.5 -130.5t-171.5 -40.5z" />
    <glyph glyph-name="ccaron" unicode="&#x10d;" horiz-adv-x="262" 
d="M357 533l1 -0.5t1 -1.5q-1 -4 -8 -9.5t-11 -7.5q-12 -9 -32.5 -25.5t-40.5 -33t-33 -27.5q-15 -15 -32 -15q-16 0 -23 15q-5 11 -13.5 27.5t-17.5 33t-15 25.5q-1 2 -4 7.5t-2 9.5q2 2 4 2q5 0 20.5 -15.5t32.5 -34.5t25 -28q27 15 59 33.5t57 31.5t32 13zM75 -7
q-28 0 -40 14t-12 41q0 7 0.5 13.5t1.5 13.5q2 17 8.5 46t17 62.5t24 65t30 53t35.5 26.5q24 6 48 18t49 12q24 0 30 -16t6 -36q0 -23 -18 -33q-4 -3 -9.5 -5.5t-11.5 -2.5q-7 0 -7 6t2 12t2 13q0 11 -4.5 26.5t-19.5 15.5q-11 0 -24 -9.5t-21 -16.5q-15 -13 -31.5 -46.5
t-30.5 -73.5t-22.5 -77t-8.5 -58q0 -16 6 -30.5t25 -14.5q27 0 51.5 21.5t45.5 49t35 45.5h1q4 0 4.5 -4t0.5 -6q0 -17 -8 -32t-20 -26q-27 -25 -61.5 -46t-73.5 -21z" />
    <glyph glyph-name="Dcaron" unicode="&#x10e;" horiz-adv-x="728" 
d="M631 795l1 -0.5t1 -1.5q-1 -4 -8 -9.5t-11 -7.5q-20 -13 -44.5 -29t-46.5 -31t-35 -26q-15 -15 -32 -15q-16 0 -23 15q-7 16 -25 41t-31 45q-1 2 -4 7.5t-2 9.5q2 2 4 2q4 0 15.5 -9.5t26.5 -23t28 -26t19 -19.5q20 11 46.5 24.5t52 25.5t44.5 20t24 8zM109 -74
q-17 0 -29 15.5t-18.5 35.5t-8.5 33q-3 29 -3 59q0 53 10.5 118.5t28.5 134t40.5 130.5t46.5 108q-6 -2 -11 -2q-4 0 -9 2t-5 7q0 8 8.5 13.5t19.5 8.5t16 4q3 5 7.5 15.5t11 19.5t13.5 9q10 0 15 -7.5t5 -15.5q0 -4 -0.5 -8.5t-1.5 -8.5h19q49 0 104 -8.5t108.5 -28
t100 -52t77.5 -80.5q18 -28 28 -59t10 -64q0 -63 -30 -115t-80 -91.5t-110.5 -66.5t-122.5 -41t-116 -14q-20 0 -46 3t-44 13q-2 1 -11.5 6.5t-9.5 10.5q0 2 3 2.5t4 0.5q12 0 26 -7q32 -9 62 -9q44 0 97.5 13.5t107.5 37t99 54.5t71 67q26 34 45.5 76.5t19.5 85.5
q0 48 -23 84t-59.5 61.5t-79.5 42t-83 25.5q-37 8 -74 11t-75 3q-10 0 -20 -0.5t-21 -1.5q-18 -40 -37 -94t-37 -114.5t-32.5 -120t-23 -111.5t-8.5 -88v-14.5t1 -15.5q2 -13 4.5 -24.5t10.5 -22.5q6 -7 12 -8.5t11 -6.5q1 0 1 -2q0 -3 -6 -5.5t-9 -2.5z" />
    <glyph glyph-name="dcaron" unicode="&#x10f;" horiz-adv-x="315" 
d="M37 -5q-19 0 -24 17.5t-5 32.5q0 44 16.5 89.5t35.5 83.5q9 18 23.5 42.5t33 45.5t38.5 26t28 13t26 8q15 0 29.5 -3.5t28.5 -7.5q13 43 30.5 85t21.5 86q-4 3 -7 6.5t-6 7.5q8 19 13.5 37.5t11.5 37.5q3 8 15.5 15t20.5 7q14 0 14 -18q0 -13 -6 -36t-13.5 -45.5
t-12.5 -35.5l-28 -80t-25 -81q5 -1 11.5 -5.5t6.5 -10.5q0 -4 -5 -4.5t-7 -0.5q-4 0 -7 0.5t-6 0.5q-6 -17 -15 -51t-17.5 -73t-14 -73t-5.5 -52q0 -8 3 -18t13 -10q11 0 25 11t28 25l25 25t15 11q2 0 2 -2q0 -7 -4 -14t-9 -12q-13 -13 -33.5 -30.5t-43 -31t-42.5 -13.5
q-15 0 -18.5 12t-3.5 24q0 21 3.5 48t9.5 54t11 47q-7 -14 -23 -37t-37 -49.5t-43 -50t-42.5 -38.5t-35.5 -15zM58 35q6 0 13 5t11 9q47 41 83.5 92t63.5 106q5 10 11.5 26t6.5 27q0 8 -5 10q-9 5 -21.5 9t-23.5 4q-19 0 -33.5 -15.5t-24.5 -29.5q-12 -18 -27.5 -47
t-30 -61.5t-24 -62.5t-9.5 -51q0 -5 1.5 -13t8.5 -8zM424 486q-1 0 -2 2q0 5 7.5 19.5t18 34.5t18 41t7.5 39q0 4 -0.5 7t-0.5 6q3 3 12 5q6 0 19 -6t13 -14q0 -2 -1 -4q-8 -27 -30.5 -59t-42.5 -53q-1 -3 -7.5 -9.5l-8.5 -8.5h-2z" />
    <glyph glyph-name="Dcroat" unicode="&#x110;" horiz-adv-x="796" 
d="M176 -74q-17 0 -29 15.5t-18.5 35.5t-8.5 33q-3 29 -3 59q0 23 2 50t6 55q-13 0 -26.5 -0.5t-26.5 -2.5q-6 2 -13 8.5t-9 10.5l2 1q20 2 38.5 2.5t37.5 1.5q10 64 27 130t39 126t46 105q-3 -1 -6 -1.5t-6 -0.5t-8.5 2t-5.5 7q0 8 8.5 13.5t19.5 8.5t16 4q3 5 8 16.5
t12 21.5t14 10q9 0 13.5 -9.5t4.5 -17.5q0 -10 -4 -17h10q53 0 111 -8t113.5 -26.5t102.5 -50.5t78 -80q18 -28 28.5 -59t10.5 -64q0 -63 -30 -115t-80 -91.5t-111 -66.5t-123 -41t-116 -14q-20 0 -46 3t-44 13q-2 1 -11.5 6.5t-9.5 10.5q0 2 3 2.5t4 0.5q12 0 26 -7
q32 -9 62 -9q44 0 97.5 13.5t107.5 37t99 54.5t72 67q26 34 45 76.5t19 85.5q0 48 -23 84t-59.5 61.5t-79 42t-82.5 25.5q-73 16 -152 16q-10 0 -20 -0.5t-20 -1.5q-54 -116 -84 -241q-7 -31 -14.5 -61t-15.5 -60q23 -1 53.5 -2.5t46.5 -6.5q3 -1 3 -3q0 -4 -6 -4
q-26 0 -51 -1l-50 -2q-8 -37 -13.5 -74t-5.5 -75v-14.5t1 -15.5q2 -13 4.5 -24.5t11.5 -22.5q6 -7 12 -8.5t10 -6.5q1 0 1 -2q0 -3 -6 -5.5t-9 -2.5z" />
    <glyph glyph-name="dcroat" unicode="&#x111;" horiz-adv-x="315" 
d="M37 -5q-19 0 -24 17.5t-5 32.5q0 44 16.5 89.5t35.5 83.5q9 18 23.5 42.5t33 45.5t38.5 26t28 13t26 8q15 0 29.5 -3.5t28.5 -7.5q13 43 30.5 85t21.5 86q-4 3 -7 6.5t-6 7.5q8 19 13.5 37.5t11.5 37.5q3 8 15.5 15t20.5 7q14 0 14 -18q0 -13 -6 -36t-13.5 -45.5
t-12.5 -35.5l-28 -80t-25 -81q5 -1 11.5 -5.5t6.5 -10.5q0 -4 -5 -4.5t-7 -0.5q-4 0 -7 0.5t-6 0.5q-6 -17 -15 -51t-17.5 -73t-14 -73t-5.5 -52q0 -8 3 -18t13 -10q11 0 25 11t28 25l25 25t15 11q2 0 2 -2q0 -7 -4 -14t-9 -12q-13 -13 -33.5 -30.5t-43 -31t-42.5 -13.5
q-15 0 -18.5 12t-3.5 24q0 21 3.5 48t9.5 54t11 47q-7 -14 -23 -37t-37 -49.5t-43 -50t-42.5 -38.5t-35.5 -15zM58 35q6 0 13 5t11 9q47 41 83.5 92t63.5 106q5 10 11.5 26t6.5 27q0 8 -5 10q-9 5 -21.5 9t-23.5 4q-19 0 -33.5 -15.5t-24.5 -29.5q-12 -18 -27.5 -47
t-30 -61.5t-24 -62.5t-9.5 -51q0 -5 1.5 -13t8.5 -8zM221 437q-6 0 -10 8t-4 15l1 2q11 4 30 5.5t38.5 2.5t31.5 1q17 0 46 -2t48 -4q16 -1 16 -7q0 -8 -18 -11q-22 -3 -56 -5.5t-67.5 -3.5t-55.5 -1z" />
    <glyph glyph-name="Emacron" unicode="&#x112;" horiz-adv-x="504" 
d="M196 -15q-45 0 -84.5 5.5t-52.5 15.5q-6 6 -7.5 17.5t-1.5 18.5q0 24 4.5 54.5t10.5 59.5t10.5 49.5t4.5 25.5q0 8 -8 11.5t-8 11.5t9.5 8.5t15.5 1.5q4 13 11 45t15.5 72t15.5 79.5t12 69.5t5 40q0 9 -9.5 9h-19.5t-10 9q0 10 11.5 14t26.5 5.5t26 1.5q56 0 111 -5
t111 -5h5q14 0 19.5 4t8.5 8t8 4q6 0 17 -7.5t11 -14.5q0 -4 -2 -5t-4 -3q-24 -16 -30.5 -43.5t-13.5 -52.5q-1 -3 -2.5 -9t-6.5 -6q-4 0 -5.5 6t-1.5 10q0 10 2.5 27t5.5 34.5t6 26.5q-1 -1 -10 -1q-14 0 -41.5 2t-56 4t-46.5 2q-8 0 -27 -0.5t-26 -5.5q-2 -1 -7.5 -23.5
t-13.5 -57t-16.5 -73t-16 -74t-12 -60t-4.5 -28.5t15 -5t30 -1h101q18 0 41 -0.5t40.5 -3.5t17.5 -9q0 -4 -14 -7t-28.5 -4t-18.5 -2q-34 -2 -69 -3.5t-70 -1.5h-56q-6 -15 -12 -41t-10 -54.5t-4 -53.5q0 -27 6 -42q4 -9 21.5 -13.5t42 -6t49.5 -1.5q47 0 81 2t69 7.5
t85 14.5q10 0 10 -6q0 -7 -10 -10.5t-12 -4.5q-22 -9 -61 -16t-86.5 -11.5t-96.5 -4.5zM192 671q-6 0 -10 8t-4 15l1 2q11 4 35 5.5t48.5 2.5t36.5 1t31.5 -1t40 -2t32.5 -3q16 -1 16 -7q0 -8 -18 -11q-17 -2 -45.5 -4t-60 -3.5t-59.5 -2t-44 -0.5z" />
    <glyph glyph-name="emacron" unicode="&#x113;" horiz-adv-x="315" 
d="M241 221q-5 0 -5 5q0 3 1 5q6 16 9.5 30.5t3.5 30.5q0 6 -0.5 16.5t-4 19.5t-12.5 9q-4 0 -7 -0.5t-7 -0.5q-10 0 -10 8q0 4 9.5 7t20.5 5t15 2q25 0 31.5 -18.5t6.5 -38.5q0 -19 -6.5 -40t-23.5 -32q-4 -3 -10 -5.5t-11 -2.5zM92 -7q-29 0 -40.5 14t-11.5 41q0 30 7 60
t17 58l-9 -3q-5 3 -5 10q0 9 8.5 17.5t17.5 9.5q6 15 17 39t25.5 48t32.5 40t39 16q9 0 9 -8q0 -3 -4 -7.5t-6 -6.5q-13 -12 -25 -33.5t-22 -44t-17 -39.5q28 4 55.5 6t55.5 2q3 0 15 -0.5t27 -2t25.5 -4.5t10.5 -8q0 -4 -4.5 -5t-6.5 -1q-13 0 -25 2t-25 2q-34 0 -69 -5
t-69 -12q-10 -26 -19.5 -59t-9.5 -62q0 -16 6 -30.5t25 -14.5q27 0 51.5 21.5t45.5 49t35 45.5h1q4 0 4.5 -4t0.5 -6q0 -17 -8 -31.5t-20 -26.5q-27 -25 -61.5 -46t-73.5 -21zM138 416q-6 0 -10 8t-4 15l1 2q11 4 30 5.5t38.5 2.5t31.5 1q17 0 46 -2t48 -4q16 -1 16 -7
q0 -8 -18 -11q-22 -3 -56 -5t-67.5 -3.5t-55.5 -1.5z" />
    <glyph glyph-name="Ebreve" unicode="&#x114;" horiz-adv-x="504" 
d="M196 -15q-45 0 -84.5 5.5t-52.5 15.5q-6 6 -7.5 17.5t-1.5 18.5q0 24 4.5 54.5t10.5 59.5t10.5 49.5t4.5 25.5q0 8 -8 11.5t-8 11.5t9.5 8.5t15.5 1.5q4 13 11 45t15.5 72t15.5 79.5t12 69.5t5 40q0 9 -9.5 9h-19.5t-10 9q0 10 11.5 14t26.5 5.5t26 1.5q56 0 111 -5
t111 -5h5q14 0 19.5 4t8.5 8t8 4q6 0 17 -7.5t11 -14.5q0 -4 -2 -5t-4 -3q-24 -16 -30.5 -43.5t-13.5 -52.5q-1 -3 -2.5 -9t-6.5 -6q-4 0 -5.5 6t-1.5 10q0 10 2.5 27t5.5 34.5t6 26.5q-1 -1 -10 -1q-14 0 -41.5 2t-56 4t-46.5 2q-8 0 -27 -0.5t-26 -5.5q-2 -1 -7.5 -23.5
t-13.5 -57t-16.5 -73t-16 -74t-12 -60t-4.5 -28.5t15 -5t30 -1h101q18 0 41 -0.5t40.5 -3.5t17.5 -9q0 -4 -14 -7t-28.5 -4t-18.5 -2q-34 -2 -69 -3.5t-70 -1.5h-56q-6 -15 -12 -41t-10 -54.5t-4 -53.5q0 -27 6 -42q4 -9 21.5 -13.5t42 -6t49.5 -1.5q47 0 81 2t69 7.5
t85 14.5q10 0 10 -6q0 -7 -10 -10.5t-12 -4.5q-22 -9 -61 -16t-86.5 -11.5t-96.5 -4.5zM311 675q-85 0 -88 60v9.5t1 7.5q2 11 6 14t8 3q6 0 10 -11q4 -17 20 -31.5t52 -14.5q24 0 50.5 8t62.5 39q6 6 15 6q8 0 0 -9q-9 -11 -28 -30.5t-46.5 -35t-62.5 -15.5z" />
    <glyph glyph-name="ebreve" unicode="&#x115;" horiz-adv-x="315" 
d="M241 221q-5 0 -5 5q0 3 1 5q6 16 9.5 30.5t3.5 30.5q0 6 -0.5 16.5t-4 19.5t-12.5 9q-4 0 -7 -0.5t-7 -0.5q-10 0 -10 8q0 4 9.5 7t20.5 5t15 2q25 0 31.5 -18.5t6.5 -38.5q0 -19 -6.5 -40t-23.5 -32q-4 -3 -10 -5.5t-11 -2.5zM92 -7q-29 0 -40.5 14t-11.5 41q0 30 7 60
t17 58l-9 -3q-5 3 -5 10q0 9 8.5 17.5t17.5 9.5q6 15 17 39t25.5 48t32.5 40t39 16q9 0 9 -8q0 -3 -4 -7.5t-6 -6.5q-13 -12 -25 -33.5t-22 -44t-17 -39.5q28 4 55.5 6t55.5 2q3 0 15 -0.5t27 -2t25.5 -4.5t10.5 -8q0 -4 -4.5 -5t-6.5 -1q-13 0 -25 2t-25 2q-34 0 -69 -5
t-69 -12q-10 -26 -19.5 -59t-9.5 -62q0 -16 6 -30.5t25 -14.5q27 0 51.5 21.5t45.5 49t35 45.5h1q4 0 4.5 -4t0.5 -6q0 -17 -8 -31.5t-20 -26.5q-27 -25 -61.5 -46t-73.5 -21zM228 420q-27 0 -46.5 14.5t-21.5 45.5v9.5t1 7.5q2 11 6 14t8 3q6 0 10 -11q4 -17 14 -31.5
t38 -14.5q17 0 29.5 2t29.5 12t44 33q6 6 15 6q8 0 0 -9q-9 -11 -27.5 -30.5t-44 -35t-55.5 -15.5z" />
    <glyph glyph-name="Edotaccent" unicode="&#x116;" horiz-adv-x="504" 
d="M196 -15q-45 0 -84.5 5.5t-52.5 15.5q-6 6 -7.5 17.5t-1.5 18.5q0 24 4.5 54.5t10.5 59.5t10.5 49.5t4.5 25.5q0 8 -8 11.5t-8 11.5t9.5 8.5t15.5 1.5q4 13 11 45t15.5 72t15.5 79.5t12 69.5t5 40q0 9 -9.5 9h-19.5t-10 9q0 10 11.5 14t26.5 5.5t26 1.5q56 0 111 -5
t111 -5h5q14 0 19.5 4t8.5 8t8 4q6 0 17 -7.5t11 -14.5q0 -4 -2 -5t-4 -3q-24 -16 -30.5 -43.5t-13.5 -52.5q-1 -3 -2.5 -9t-6.5 -6q-4 0 -5.5 6t-1.5 10q0 10 2.5 27t5.5 34.5t6 26.5q-1 -1 -10 -1q-14 0 -41.5 2t-56 4t-46.5 2q-8 0 -27 -0.5t-26 -5.5q-2 -1 -7.5 -23.5
t-13.5 -57t-16.5 -73t-16 -74t-12 -60t-4.5 -28.5t15 -5t30 -1h101q18 0 41 -0.5t40.5 -3.5t17.5 -9q0 -4 -14 -7t-28.5 -4t-18.5 -2q-34 -2 -69 -3.5t-70 -1.5h-56q-6 -15 -12 -41t-10 -54.5t-4 -53.5q0 -27 6 -42q4 -9 21.5 -13.5t42 -6t49.5 -1.5q47 0 81 2t69 7.5
t85 14.5q10 0 10 -6q0 -7 -10 -10.5t-12 -4.5q-22 -9 -61 -16t-86.5 -11.5t-96.5 -4.5zM299 675q-7 0 -12.5 9.5t-5.5 16.5q0 9 10.5 18t24 15t20.5 6t7 -4q0 -11 -13 -27q-5 -7 -9 -20.5t-22 -13.5z" />
    <glyph glyph-name="edotaccent" unicode="&#x117;" horiz-adv-x="315" 
d="M241 221q-5 0 -5 5q0 3 1 5q6 16 9.5 30.5t3.5 30.5q0 6 -0.5 16.5t-4 19.5t-12.5 9q-4 0 -7 -0.5t-7 -0.5q-10 0 -10 8q0 4 9.5 7t20.5 5t15 2q25 0 31.5 -18.5t6.5 -38.5q0 -19 -6.5 -40t-23.5 -32q-4 -3 -10 -5.5t-11 -2.5zM92 -7q-29 0 -40.5 14t-11.5 41q0 30 7 60
t17 58l-9 -3q-5 3 -5 10q0 9 8.5 17.5t17.5 9.5q6 15 17 39t25.5 48t32.5 40t39 16q9 0 9 -8q0 -3 -4 -7.5t-6 -6.5q-13 -12 -25 -33.5t-22 -44t-17 -39.5q28 4 55.5 6t55.5 2q3 0 15 -0.5t27 -2t25.5 -4.5t10.5 -8q0 -4 -4.5 -5t-6.5 -1q-13 0 -25 2t-25 2q-34 0 -69 -5
t-69 -12q-10 -26 -19.5 -59t-9.5 -62q0 -16 6 -30.5t25 -14.5q27 0 51.5 21.5t45.5 49t35 45.5h1q4 0 4.5 -4t0.5 -6q0 -17 -8 -31.5t-20 -26.5q-27 -25 -61.5 -46t-73.5 -21zM228 420q-7 0 -12.5 9.5t-5.5 16.5q0 9 10.5 18t24 15t20.5 6t7 -4q0 -10 -12 -28q-6 -7 -10 -20
t-22 -13z" />
    <glyph glyph-name="Eogonek" unicode="&#x118;" horiz-adv-x="504" 
d="M196 -15q-45 0 -84.5 5.5t-52.5 15.5q-6 6 -7.5 17.5t-1.5 18.5q0 24 4.5 54.5t10.5 59.5t10.5 49.5t4.5 25.5q0 8 -8 11.5t-8 11.5t9.5 8.5t15.5 1.5q4 13 11 45t15.5 72t15.5 79.5t12 69.5t5 40q0 9 -9.5 9h-19.5t-10 9q0 10 11.5 14t26.5 5.5t26 1.5q56 0 111 -5
t111 -5h5q14 0 19.5 4t8.5 8t8 4q6 0 17 -7.5t11 -14.5q0 -4 -2 -5t-4 -3q-24 -16 -30.5 -43.5t-13.5 -52.5q-1 -3 -2.5 -9t-6.5 -6q-4 0 -5.5 6t-1.5 10q0 10 2.5 27t5.5 34.5t6 26.5q-1 -1 -10 -1q-14 0 -41.5 2t-56 4t-46.5 2q-8 0 -27 -0.5t-26 -5.5q-2 -1 -7.5 -23.5
t-13.5 -57t-16.5 -73t-16 -74t-12 -60t-4.5 -28.5t15 -5t30 -1h101q18 0 41 -0.5t40.5 -3.5t17.5 -9q0 -4 -14 -7t-28.5 -4t-18.5 -2q-34 -2 -69 -3.5t-70 -1.5h-56q-6 -15 -12 -41t-10 -54.5t-4 -53.5q0 -27 6 -42q4 -9 21.5 -13.5t42 -6t49.5 -1.5q47 0 81 2t69 7.5
t85 14.5q10 0 10 -6q0 -7 -10 -10.5t-12 -4.5q-22 -9 -61 -16t-86.5 -11.5t-96.5 -4.5zM350 -147q-18 0 -38.5 8t-20.5 30q0 11 7 30t18 39.5t23.5 35t24.5 14.5l11 -3q-13 -13 -27 -40t-14 -47q0 -17 11.5 -25.5t25.5 -8.5q18 0 38 4t36 14q1 1 1.5 1h0.5q3 0 5 -3.5
t2 -6.5q0 -9 -18 -19t-42.5 -16.5t-43.5 -6.5z" />
    <glyph glyph-name="eogonek" unicode="&#x119;" horiz-adv-x="315" 
d="M241 221q-5 0 -5 5q0 3 1 5q6 16 9.5 30.5t3.5 30.5q0 6 -0.5 16.5t-4 19.5t-12.5 9q-4 0 -7 -0.5t-7 -0.5q-10 0 -10 8q0 4 9.5 7t20.5 5t15 2q25 0 31.5 -18.5t6.5 -38.5q0 -19 -6.5 -40t-23.5 -32q-4 -3 -10 -5.5t-11 -2.5zM92 -7q-29 0 -40.5 14t-11.5 41q0 30 7 60
t17 58l-9 -3q-5 3 -5 10q0 9 8.5 17.5t17.5 9.5q6 15 17 39t25.5 48t32.5 40t39 16q9 0 9 -8q0 -3 -4 -7.5t-6 -6.5q-13 -12 -25 -33.5t-22 -44t-17 -39.5q28 4 55.5 6t55.5 2q3 0 15 -0.5t27 -2t25.5 -4.5t10.5 -8q0 -4 -4.5 -5t-6.5 -1q-13 0 -25 2t-25 2q-34 0 -69 -5
t-69 -12q-10 -26 -19.5 -59t-9.5 -62q0 -16 6 -30.5t25 -14.5q27 0 51.5 21.5t45.5 49t35 45.5h1q4 0 4.5 -4t0.5 -6q0 -17 -8 -31.5t-20 -26.5q-27 -25 -61.5 -46t-73.5 -21zM166 -122q-18 0 -38.5 8t-20.5 30q0 11 7 30t18 39.5t23.5 35t24.5 14.5l11 -3q-13 -13 -27 -40
t-14 -47q0 -17 11.5 -25.5t25.5 -8.5q18 0 38 4t36 14q1 1 1.5 1h0.5q3 0 5 -3.5t2 -6.5q0 -9 -18 -19t-42.5 -16.5t-43.5 -6.5z" />
    <glyph glyph-name="Ecaron" unicode="&#x11a;" horiz-adv-x="504" 
d="M479 795l1 -0.5t1 -1.5q-1 -4 -8 -9.5t-11 -7.5q-20 -13 -44.5 -29t-46.5 -31t-35 -26q-15 -15 -32 -15q-16 0 -23 15q-7 16 -25 41t-31 45q-1 2 -4 7.5t-2 9.5q2 2 4 2q4 0 15.5 -9.5t26.5 -23t28 -26t19 -19.5q20 11 46.5 24.5t52 25.5t44.5 20t24 8zM196 -15
q-45 0 -84.5 5.5t-52.5 15.5q-6 6 -7.5 17.5t-1.5 18.5q0 24 4.5 54.5t10.5 59.5t10.5 49.5t4.5 25.5q0 8 -8 11.5t-8 11.5t9.5 8.5t15.5 1.5q4 13 11 45t15.5 72t15.5 79.5t12 69.5t5 40q0 9 -9.5 9h-19.5t-10 9q0 10 11.5 14t26.5 5.5t26 1.5q56 0 111 -5t111 -5h5
q14 0 19.5 4t8.5 8t8 4q6 0 17 -7.5t11 -14.5q0 -4 -2 -5t-4 -3q-24 -16 -30.5 -43.5t-13.5 -52.5q-1 -3 -2.5 -9t-6.5 -6q-4 0 -5.5 6t-1.5 10q0 10 2.5 27t5.5 34.5t6 26.5q-1 -1 -10 -1q-14 0 -41.5 2t-56 4t-46.5 2q-8 0 -27 -0.5t-26 -5.5q-2 -1 -7.5 -23.5t-13.5 -57
t-16.5 -73t-16 -74t-12 -60t-4.5 -28.5t15 -5t30 -1h101q18 0 41 -0.5t40.5 -3.5t17.5 -9q0 -4 -14 -7t-28.5 -4t-18.5 -2q-34 -2 -69 -3.5t-70 -1.5h-56q-6 -15 -12 -41t-10 -54.5t-4 -53.5q0 -27 6 -42q4 -9 21.5 -13.5t42 -6t49.5 -1.5q47 0 81 2t69 7.5t85 14.5
q10 0 10 -6q0 -7 -10 -10.5t-12 -4.5q-22 -9 -61 -16t-86.5 -11.5t-96.5 -4.5z" />
    <glyph glyph-name="ecaron" unicode="&#x11b;" horiz-adv-x="315" 
d="M385 533l1 -0.5t1 -1.5q-1 -4 -8 -9.5t-11 -7.5q-12 -9 -32.5 -25.5t-40.5 -33t-33 -27.5q-15 -15 -32 -15q-16 0 -23 15q-5 11 -13.5 27.5t-17.5 33t-15 25.5q-1 2 -4 7.5t-2 9.5q2 2 4 2q5 0 20.5 -15.5t32.5 -34.5t25 -28q27 15 59 33.5t57 31.5t32 13zM241 221
q-5 0 -5 5q0 3 1 5q6 16 9.5 30.5t3.5 30.5q0 6 -0.5 16.5t-4 19.5t-12.5 9q-4 0 -7 -0.5t-7 -0.5q-10 0 -10 8q0 4 9.5 7t20.5 5t15 2q25 0 31.5 -18.5t6.5 -38.5q0 -19 -6.5 -40t-23.5 -32q-4 -3 -10 -5.5t-11 -2.5zM92 -7q-29 0 -40.5 14t-11.5 41q0 30 7 60t17 58l-9 -3
q-5 3 -5 10q0 9 8.5 17.5t17.5 9.5q6 15 17 39t25.5 48t32.5 40t39 16q9 0 9 -8q0 -3 -4 -7.5t-6 -6.5q-13 -12 -25 -33.5t-22 -44t-17 -39.5q28 4 55.5 6t55.5 2q3 0 15 -0.5t27 -2t25.5 -4.5t10.5 -8q0 -4 -4.5 -5t-6.5 -1q-13 0 -25 2t-25 2q-34 0 -69 -5t-69 -12
q-10 -26 -19.5 -59t-9.5 -62q0 -16 6 -30.5t25 -14.5q27 0 51.5 21.5t45.5 49t35 45.5h1q4 0 4.5 -4t0.5 -6q0 -17 -8 -31.5t-20 -26.5q-27 -25 -61.5 -46t-73.5 -21z" />
    <glyph glyph-name="Gcircumflex" unicode="&#x11c;" horiz-adv-x="731" 
d="M540 -47q-6 0 -7 5t-1 8q0 13 5 37.5t12 51t13 48t8 29.5q-49 -68 -120.5 -109t-164.5 -41q-76 0 -128.5 35.5t-79.5 92t-27 119.5q0 68 25 136t73.5 124.5t118.5 90.5t161 34q41 0 84.5 -12t83.5 -42q3 11 3.5 20t0.5 16v12t-1 9v1q0 6 9 6q8 0 11.5 -10t3.5 -25
q0 -11 -1.5 -23.5t-3.5 -23.5q7 -9 13.5 -20.5t6.5 -24.5q0 -2 -0.5 -6.5t-4.5 -4.5q-7 0 -12 11.5t-10 15.5q-1 -9 -4.5 -27t-7.5 -39t-8.5 -38.5t-8.5 -24.5q-4 -8 -15 -8q-7 0 -15 2.5t-8 11.5q0 12 6 32t10 31q5 16 14.5 41t12.5 40q-33 29 -80.5 43t-85.5 14
q-63 0 -121 -25t-102.5 -72.5t-70.5 -115.5t-26 -153q0 -58 23 -107t68.5 -79t114.5 -30q47 0 94.5 19.5t89 52.5t70.5 75.5t40 87.5q-31 -2 -66 -6.5t-66 -8t-52 -3.5q-9 0 -17 3.5t-8 12.5q0 12 11.5 22t15.5 8q6 -2 20 -4t33 -2q28 0 72 2t92.5 4.5t87.5 4.5
q2 0 5.5 -0.5t3.5 -2.5q0 -6 -12.5 -9.5t-29 -6.5t-30.5 -6.5t-17 -8.5q-4 -7 -7 -16.5t-6 -17.5q-8 -20 -20 -52.5t-21.5 -66t-9.5 -55.5q0 -16 5 -20t10 -4.5t5 -8.5q0 -11 -9.5 -20.5t-19.5 -14.5q-5 -3 -15.5 -8.5t-15.5 -5.5zM316 668l-1 0.5t-1 1.5q2 5 8.5 10t10.5 7
q20 14 44.5 29.5t47 31t34.5 25.5q15 15 32 15q16 0 23 -15q8 -16 25.5 -41t30.5 -45q2 -2 5 -7t1 -10q-2 -2 -4 -2q-4 0 -15.5 9.5t-26.5 23t-28 26t-19 19.5q-20 -11 -46.5 -24.5t-52 -25.5t-44.5 -20t-24 -8z" />
    <glyph glyph-name="gcircumflex" unicode="&#x11d;" horiz-adv-x="301" 
d="M-46 -332q-43 0 -76 21t-50 61q-7 17 -12 36t-5 38q0 6 2.5 21t10.5 15q6 0 7 -9t1 -13q0 -25 11 -49t24 -44q15 -23 37 -42t51 -19q39 0 72 27t60.5 71.5t49 98.5t37 109t26.5 102.5t16 77.5q-11 -17 -33.5 -46t-50 -59t-54.5 -50.5t-47 -20.5q-15 0 -18.5 10.5
t-3.5 23.5q0 30 9 63.5t22.5 66.5t26.5 59q5 11 15.5 31t24.5 40.5t30 34.5t31 12l4 2q5 5 11 7t13 2q18 0 36 -6.5t34 -6.5q5 0 14 7.5t18.5 14.5t16.5 7q4 0 4 -6q0 -12 -6 -23q-17 -31 -28 -68t-21 -72q-13 -47 -24.5 -95t-24.5 -96q-16 -59 -38 -120t-60 -111
q-30 -40 -73.5 -71.5t-89.5 -31.5zM59 34q5 0 17 10.5t28 26.5t31.5 33t25.5 30q13 16 29.5 40t31.5 49.5t24.5 48t9.5 35.5q0 7 -2 8.5t-6 1.5q-10 0 -20.5 2t-21.5 2q-13 0 -28 -5q-12 -4 -27 -25.5t-27 -45t-18 -34.5q-10 -20 -22.5 -48t-21.5 -56.5t-9 -51.5
q0 -2 1 -11.5t5 -9.5zM130 413l-1 0.5t-1 1.5q2 5 8.5 10t10.5 7q12 10 32.5 26t41 33t32.5 27q15 15 32 15q16 0 23 -15l13.5 -27t17.5 -33t15 -26q2 -2 5 -7t1 -10q-2 -2 -4 -2q-5 0 -20.5 16t-32 34.5t-25.5 27.5q-27 -15 -59 -33t-57 -31.5t-32 -13.5z" />
    <glyph glyph-name="Gbreve" unicode="&#x11e;" horiz-adv-x="731" 
d="M540 -47q-6 0 -7 5t-1 8q0 13 5 37.5t12 51t13 48t8 29.5q-49 -68 -120.5 -109t-164.5 -41q-76 0 -128.5 35.5t-79.5 92t-27 119.5q0 68 25 136t73.5 124.5t118.5 90.5t161 34q41 0 84.5 -12t83.5 -42q3 11 3.5 20t0.5 16v12t-1 9v1q0 6 9 6q8 0 11.5 -10t3.5 -25
q0 -11 -1.5 -23.5t-3.5 -23.5q7 -9 13.5 -20.5t6.5 -24.5q0 -2 -0.5 -6.5t-4.5 -4.5q-7 0 -12 11.5t-10 15.5q-1 -9 -4.5 -27t-7.5 -39t-8.5 -38.5t-8.5 -24.5q-4 -8 -15 -8q-7 0 -15 2.5t-8 11.5q0 12 6 32t10 31q5 16 14.5 41t12.5 40q-33 29 -80.5 43t-85.5 14
q-63 0 -121 -25t-102.5 -72.5t-70.5 -115.5t-26 -153q0 -58 23 -107t68.5 -79t114.5 -30q47 0 94.5 19.5t89 52.5t70.5 75.5t40 87.5q-31 -2 -66 -6.5t-66 -8t-52 -3.5q-9 0 -17 3.5t-8 12.5q0 12 11.5 22t15.5 8q6 -2 20 -4t33 -2q28 0 72 2t92.5 4.5t87.5 4.5
q2 0 5.5 -0.5t3.5 -2.5q0 -6 -12.5 -9.5t-29 -6.5t-30.5 -6.5t-17 -8.5q-4 -7 -7 -16.5t-6 -17.5q-8 -20 -20 -52.5t-21.5 -66t-9.5 -55.5q0 -16 5 -20t10 -4.5t5 -8.5q0 -11 -9.5 -20.5t-19.5 -14.5q-5 -3 -15.5 -8.5t-15.5 -5.5zM455 675q-85 0 -88 60v9.5t1 7.5
q2 11 6 14t8 3q6 0 10 -11q4 -17 20 -31.5t52 -14.5q24 0 50.5 8t62.5 39q6 6 15 6q8 0 0 -9q-9 -11 -28 -30.5t-46.5 -35t-62.5 -15.5z" />
    <glyph glyph-name="gbreve" unicode="&#x11f;" horiz-adv-x="301" 
d="M-46 -332q-43 0 -76 21t-50 61q-7 17 -12 36t-5 38q0 6 2.5 21t10.5 15q6 0 7 -9t1 -13q0 -25 11 -49t24 -44q15 -23 37 -42t51 -19q39 0 72 27t60.5 71.5t49 98.5t37 109t26.5 102.5t16 77.5q-11 -17 -33.5 -46t-50 -59t-54.5 -50.5t-47 -20.5q-15 0 -18.5 10.5
t-3.5 23.5q0 30 9 63.5t22.5 66.5t26.5 59q5 11 15.5 31t24.5 40.5t30 34.5t31 12l4 2q5 5 11 7t13 2q18 0 36 -6.5t34 -6.5q5 0 14 7.5t18.5 14.5t16.5 7q4 0 4 -6q0 -12 -6 -23q-17 -31 -28 -68t-21 -72q-13 -47 -24.5 -95t-24.5 -96q-16 -59 -38 -120t-60 -111
q-30 -40 -73.5 -71.5t-89.5 -31.5zM59 34q5 0 17 10.5t28 26.5t31.5 33t25.5 30q13 16 29.5 40t31.5 49.5t24.5 48t9.5 35.5q0 7 -2 8.5t-6 1.5q-10 0 -20.5 2t-21.5 2q-13 0 -28 -5q-12 -4 -27 -25.5t-27 -45t-18 -34.5q-10 -20 -22.5 -48t-21.5 -56.5t-9 -51.5
q0 -2 1 -11.5t5 -9.5zM240 420q-27 0 -46.5 14.5t-21.5 45.5v9.5t1 7.5q2 11 6 14t8 3q6 0 10 -11q4 -17 14 -31.5t38 -14.5q17 0 29.5 2t29.5 12t44 33q6 6 15 6q8 0 0 -9q-9 -11 -27.5 -30.5t-44 -35t-55.5 -15.5z" />
    <glyph glyph-name="Gdotaccent" unicode="&#x120;" horiz-adv-x="731" 
d="M540 -47q-6 0 -7 5t-1 8q0 13 5 37.5t12 51t13 48t8 29.5q-49 -68 -120.5 -109t-164.5 -41q-76 0 -128.5 35.5t-79.5 92t-27 119.5q0 68 25 136t73.5 124.5t118.5 90.5t161 34q41 0 84.5 -12t83.5 -42q3 11 3.5 20t0.5 16v12t-1 9v1q0 6 9 6q8 0 11.5 -10t3.5 -25
q0 -11 -1.5 -23.5t-3.5 -23.5q7 -9 13.5 -20.5t6.5 -24.5q0 -2 -0.5 -6.5t-4.5 -4.5q-7 0 -12 11.5t-10 15.5q-1 -9 -4.5 -27t-7.5 -39t-8.5 -38.5t-8.5 -24.5q-4 -8 -15 -8q-7 0 -15 2.5t-8 11.5q0 12 6 32t10 31q5 16 14.5 41t12.5 40q-33 29 -80.5 43t-85.5 14
q-63 0 -121 -25t-102.5 -72.5t-70.5 -115.5t-26 -153q0 -58 23 -107t68.5 -79t114.5 -30q47 0 94.5 19.5t89 52.5t70.5 75.5t40 87.5q-31 -2 -66 -6.5t-66 -8t-52 -3.5q-9 0 -17 3.5t-8 12.5q0 12 11.5 22t15.5 8q6 -2 20 -4t33 -2q28 0 72 2t92.5 4.5t87.5 4.5
q2 0 5.5 -0.5t3.5 -2.5q0 -6 -12.5 -9.5t-29 -6.5t-30.5 -6.5t-17 -8.5q-4 -7 -7 -16.5t-6 -17.5q-8 -20 -20 -52.5t-21.5 -66t-9.5 -55.5q0 -16 5 -20t10 -4.5t5 -8.5q0 -11 -9.5 -20.5t-19.5 -14.5q-5 -3 -15.5 -8.5t-15.5 -5.5zM443 675q-7 0 -12.5 9.5t-5.5 16.5
q0 9 10.5 18t24 15t20.5 6t7 -4q0 -11 -13 -27q-5 -7 -9 -20.5t-22 -13.5z" />
    <glyph glyph-name="gdotaccent" unicode="&#x121;" horiz-adv-x="301" 
d="M-46 -332q-43 0 -76 21t-50 61q-7 17 -12 36t-5 38q0 6 2.5 21t10.5 15q6 0 7 -9t1 -13q0 -25 11 -49t24 -44q15 -23 37 -42t51 -19q39 0 72 27t60.5 71.5t49 98.5t37 109t26.5 102.5t16 77.5q-11 -17 -33.5 -46t-50 -59t-54.5 -50.5t-47 -20.5q-15 0 -18.5 10.5
t-3.5 23.5q0 30 9 63.5t22.5 66.5t26.5 59q5 11 15.5 31t24.5 40.5t30 34.5t31 12l4 2q5 5 11 7t13 2q18 0 36 -6.5t34 -6.5q5 0 14 7.5t18.5 14.5t16.5 7q4 0 4 -6q0 -12 -6 -23q-17 -31 -28 -68t-21 -72q-13 -47 -24.5 -95t-24.5 -96q-16 -59 -38 -120t-60 -111
q-30 -40 -73.5 -71.5t-89.5 -31.5zM59 34q5 0 17 10.5t28 26.5t31.5 33t25.5 30q13 16 29.5 40t31.5 49.5t24.5 48t9.5 35.5q0 7 -2 8.5t-6 1.5q-10 0 -20.5 2t-21.5 2q-13 0 -28 -5q-12 -4 -27 -25.5t-27 -45t-18 -34.5q-10 -20 -22.5 -48t-21.5 -56.5t-9 -51.5
q0 -2 1 -11.5t5 -9.5zM240 420q-7 0 -12.5 9.5t-5.5 16.5q0 9 10.5 18t24 15t20.5 6t7 -4q0 -10 -12 -28q-6 -7 -10 -20t-22 -13z" />
    <glyph glyph-name="uni0122" unicode="&#x122;" horiz-adv-x="731" 
d="M540 -47q-6 0 -7 5t-1 8q0 13 5 37.5t12 51t13 48t8 29.5q-49 -68 -120.5 -109t-164.5 -41q-76 0 -128.5 35.5t-79.5 92t-27 119.5q0 68 25 136t73.5 124.5t118.5 90.5t161 34q41 0 84.5 -12t83.5 -42q3 11 3.5 20t0.5 16v12t-1 9v1q0 6 9 6q8 0 11.5 -10t3.5 -25
q0 -11 -1.5 -23.5t-3.5 -23.5q7 -9 13.5 -20.5t6.5 -24.5q0 -2 -0.5 -6.5t-4.5 -4.5q-7 0 -12 11.5t-10 15.5q-1 -9 -4.5 -27t-7.5 -39t-8.5 -38.5t-8.5 -24.5q-4 -8 -15 -8q-7 0 -15 2.5t-8 11.5q0 12 6 32t10 31q5 16 14.5 41t12.5 40q-33 29 -80.5 43t-85.5 14
q-63 0 -121 -25t-102.5 -72.5t-70.5 -115.5t-26 -153q0 -58 23 -107t68.5 -79t114.5 -30q47 0 94.5 19.5t89 52.5t70.5 75.5t40 87.5q-31 -2 -66 -6.5t-66 -8t-52 -3.5q-9 0 -17 3.5t-8 12.5q0 12 11.5 22t15.5 8q6 -2 20 -4t33 -2q28 0 72 2t92.5 4.5t87.5 4.5
q2 0 5.5 -0.5t3.5 -2.5q0 -6 -12.5 -9.5t-29 -6.5t-30.5 -6.5t-17 -8.5q-4 -7 -7 -16.5t-6 -17.5q-8 -20 -20 -52.5t-21.5 -66t-9.5 -55.5q0 -16 5 -20t10 -4.5t5 -8.5q0 -11 -9.5 -20.5t-19.5 -14.5q-5 -3 -15.5 -8.5t-15.5 -5.5zM206 -262q-5 0 -6.5 4t-1.5 7
q8 11 14.5 19.5t14.5 20.5q14 19 24 41t10 37q-1 8 -5 15t-5 14q0 8 8.5 16.5t23.5 8.5q17 0 22.5 -7t5.5 -21q0 -19 -12 -41.5t-29 -44t-32 -37.5q-4 -3 -13 -13.5t-18 -18.5h-1z" />
    <glyph glyph-name="uni0123" unicode="&#x123;" horiz-adv-x="301" 
d="M-46 -332q-43 0 -76 21t-50 61q-7 17 -12 36t-5 38q0 6 2.5 21t10.5 15q6 0 7 -9t1 -13q0 -25 11 -49t24 -44q15 -23 37 -42t51 -19q39 0 72 27t60.5 71.5t49 98.5t37 109t26.5 102.5t16 77.5q-11 -17 -33.5 -46t-50 -59t-54.5 -50.5t-47 -20.5q-15 0 -18.5 10.5
t-3.5 23.5q0 30 9 63.5t22.5 66.5t26.5 59q5 11 15.5 31t24.5 40.5t30 34.5t31 12l4 2q5 5 11 7t13 2q18 0 36 -6.5t34 -6.5q5 0 14 7.5t18.5 14.5t16.5 7q4 0 4 -6q0 -12 -6 -23q-17 -31 -28 -68t-21 -72q-13 -47 -24.5 -95t-24.5 -96q-16 -59 -38 -120t-60 -111
q-30 -40 -73.5 -71.5t-89.5 -31.5zM59 34q5 0 17 10.5t28 26.5t31.5 33t25.5 30q13 16 29.5 40t31.5 49.5t24.5 48t9.5 35.5q0 7 -2 8.5t-6 1.5q-10 0 -20.5 2t-21.5 2q-13 0 -28 -5q-12 -4 -27 -25.5t-27 -45t-18 -34.5q-10 -20 -22.5 -48t-21.5 -56.5t-9 -51.5
q0 -2 1 -11.5t5 -9.5zM240 417q-19 0 -25 7.5t-6 19.5q0 20 13.5 42.5t32 43.5t33.5 36q4 3 13.5 13.5t19.5 17.5q6 0 7 -4.5t1 -7.5q-9 -10 -15.5 -18.5t-15.5 -19.5q-15 -18 -26 -40t-11 -37q0 -7 4 -14t4 -15q0 -7 -7.5 -15.5t-21.5 -8.5z" />
    <glyph glyph-name="Hcircumflex" unicode="&#x124;" horiz-adv-x="713" 
d="M56 -22q-6 0 -6 7v3q11 55 23 109t22 109q-6 1 -19.5 4.5t-13.5 11.5q0 6 8 8t17 2.5t12 0.5q9 44 16.5 78t14 68t14 73.5t17.5 93.5q2 8 0 18t-2 19q0 5 1 7q2 7 12 10.5t22 4.5t18 1q3 0 7.5 -1.5t4.5 -6.5q0 -2 -2 -6q-4 -11 -11 -38.5t-15 -63.5q-10 -46 -21.5 -98.5
t-20 -96t-11.5 -64.5q49 -1 99 -1.5t98 -0.5q51 0 99.5 1t99.5 3q11 55 21.5 102.5t19.5 99.5q6 29 11 57.5t8 56.5v5q0 5 -0.5 11.5t-0.5 12.5q0 8 1 11q2 6 14 10t25 5.5t18 1.5t6 -3t1 -8q0 -3 -1 -5q-3 -13 -11 -46t-18.5 -77t-20.5 -89.5t-18 -83.5t-11 -60
q6 0 20.5 -0.5t27.5 -3t13 -8.5q0 -4 -14.5 -7t-30 -5t-20.5 -3q-7 -26 -14 -65t-11.5 -75t-7.5 -54q-1 -10 -18 -22.5t-26 -12.5q-4 0 -8 1t-4 6q0 6 3.5 20.5l7 29t4.5 20.5q5 25 9.5 45.5t9 44.5t10.5 59q-2 0 -23.5 0.5t-53 1t-64.5 0.5h-59h-74.5t-75.5 -2
q-8 0 -23.5 -0.5t-23.5 -2.5q-2 -4 -6.5 -28.5t-9.5 -56t-9 -59.5t-6 -39q-4 -20 -22.5 -30t-27.5 -10zM300 668l-1 0.5t-1 1.5q2 5 8.5 10t10.5 7q20 14 44.5 29.5t47 31t34.5 25.5q15 15 32 15q16 0 23 -15q8 -16 25.5 -41t30.5 -45q2 -2 5 -7t1 -10q-2 -2 -4 -2
q-4 0 -15.5 9.5t-26.5 23t-28 26t-19 19.5q-20 -11 -46.5 -24.5t-52 -25.5t-44.5 -20t-24 -8z" />
    <glyph glyph-name="hcircumflex" unicode="&#x125;" horiz-adv-x="366" 
d="M22 -27q-2 0 -5 1.5t-2 4.5q2 15 5 36.5t16 32.5q27 119 57 237q11 45 26.5 96.5t38.5 101t56.5 89t79.5 60.5q30 14 62 14q12 0 26.5 -4.5t25.5 -13.5t11 -23q0 -3 -2 -9q-3 -2 -11 -9t-15.5 -12.5t-9.5 -6.5q-2 2 -2 3q0 3 2.5 6t2.5 7q0 10 -10.5 18.5t-24.5 14
t-23 5.5q-33 0 -61 -27.5t-50.5 -71t-39.5 -92.5t-29 -91.5t-19 -68.5q-24 -91 -45 -183q35 46 73 95.5t63 101.5q0 13 7.5 18.5t17.5 5.5q5 0 13 -2q2 1 5 1q10 0 12.5 -12.5t2.5 -19.5q0 -11 -2.5 -30.5t-14.5 -25.5q-1 -12 -1.5 -24t-0.5 -25q0 -11 1.5 -31.5t7 -42
t15.5 -36t26 -14.5q18 0 34 14.5t29 33.5t22 33.5t12 14.5t3 -6t-4 -14q-10 -20 -25.5 -45.5t-36.5 -44t-47 -18.5t-42.5 18t-25.5 44.5t-12.5 54.5t-3.5 47q0 17 1 34t3 33q-28 -49 -63.5 -96t-71.5 -91v-10q0 -22 -3 -45q-7 -7 -25 -19t-29 -12zM233 703l-1 0.5t-1 1.5
q2 5 8.5 10t10.5 7q12 10 32.5 26t41 33t32.5 27q15 15 32 15q16 0 23 -15l13.5 -27t17.5 -33t15 -26q2 -2 5 -7t1 -10q-2 -2 -4 -2q-5 0 -20.5 16t-32 34.5t-25.5 27.5q-27 -15 -59 -33t-57 -31.5t-32 -13.5z" />
    <glyph glyph-name="Hbar" unicode="&#x126;" horiz-adv-x="713" 
d="M56 -22q-6 0 -6 7v3q11 55 23 109t22 109q-6 1 -19.5 4.5t-13.5 11.5q0 6 8 8t17 2.5t12 0.5q9 44 16.5 78t14 67.5t14.5 74.5q-14 -1 -28 -1q-7 0 -14 -1t-13 -1q-19 0 -19 16q0 21 20 26.5t36 5.5q3 0 7.5 -1t4.5 -5q0 -3 -3 -6h15q5 27 11 60q2 8 0 18t-2 19q0 5 1 7
q2 7 12 10.5t22 4.5t18 1q3 0 7.5 -1.5t4.5 -6.5q0 -2 -2 -6q-4 -11 -11 -38.5t-15 -63.5l-1 -4h395q3 16 5 31.5t4 31.5v5q0 5 -0.5 11.5t-0.5 12.5q0 8 1 11q2 6 14 10t25 5.5t18 1.5t6 -3t1 -8q0 -3 -1 -5q-3 -11 -10 -39t-15 -65h25t27 -2t12 -7t-14 -7.5t-17 -2.5
q-18 -2 -38 -3q-10 -42 -20 -87.5t-18 -83.5t-11 -59q6 0 20.5 -0.5t27.5 -3t13 -8.5q0 -4 -14.5 -7t-30 -5t-20.5 -3q-7 -26 -14 -65t-11.5 -75t-7.5 -54q-1 -10 -18 -22.5t-26 -12.5q-4 0 -8 1t-4 6q0 6 3.5 20.5l7 29t4.5 20.5q5 25 9.5 45.5t9 44.5t10.5 59
q-2 0 -23.5 0.5t-53 1t-64.5 0.5h-59h-74.5t-75.5 -2q-8 0 -23.5 -0.5t-23.5 -2.5q-2 -4 -6.5 -28.5t-9.5 -56t-9 -59.5t-6 -39q-4 -20 -22.5 -30t-27.5 -10zM143 231q49 -1 99 -1.5t98 -0.5q51 0 99.5 1t99.5 3q11 55 21.5 102.5t19.5 99.5q3 15 6 27q-20 0 -40 -0.5
t-40 -0.5q-79 -2 -159 -3.5t-159 -3.5q-10 -43 -19.5 -88t-16.5 -81t-9 -54z" />
    <glyph glyph-name="hbar" unicode="&#x127;" horiz-adv-x="366" 
d="M22 -27q-2 0 -5 1.5t-2 4.5q2 15 5 36.5t16 32.5q27 119 57 237q11 45 26.5 96.5t38.5 101t56.5 89t79.5 60.5q30 14 62 14q12 0 26.5 -4.5t25.5 -13.5t11 -23q0 -3 -2 -9q-3 -2 -11 -9t-15.5 -12.5t-9.5 -6.5q-2 2 -2 3q0 3 2.5 6t2.5 7q0 10 -10.5 18.5t-24.5 14
t-23 5.5q-33 0 -61 -27.5t-50.5 -71t-39.5 -92.5t-29 -91.5t-19 -68.5q-24 -91 -45 -183q35 46 73 95.5t63 101.5q0 13 7.5 18.5t17.5 5.5q5 0 13 -2q2 1 5 1q10 0 12.5 -12.5t2.5 -19.5q0 -11 -2.5 -30.5t-14.5 -25.5q-1 -12 -1.5 -24t-0.5 -25q0 -11 1.5 -31.5t7 -42
t15.5 -36t26 -14.5q18 0 34 14.5t29 33.5t22 33.5t12 14.5t3 -6t-4 -14q-10 -20 -25.5 -45.5t-36.5 -44t-47 -18.5t-42.5 18t-25.5 44.5t-12.5 54.5t-3.5 47q0 17 1 34t3 33q-28 -49 -63.5 -96t-71.5 -91v-10q0 -22 -3 -45q-7 -7 -25 -19t-29 -12zM39 313q-6 0 -10 8t-4 15
l1 2q11 4 30 5.5t38.5 2.5t31.5 1q17 0 46 -2t48 -4q16 -1 16 -7q0 -8 -18 -11q-22 -3 -56 -5.5t-67.5 -3.5t-55.5 -1z" />
    <glyph glyph-name="Itilde" unicode="&#x128;" horiz-adv-x="368" 
d="M32 -14q-3 0 -14.5 0.5t-21.5 2.5t-10 7t11 7.5t26.5 4t28.5 2t17 0.5q3 0 18.5 1.5t19.5 6.5q3 13 11 49.5t18 87t21 105t21 104.5t17 85.5t9 47.5q6 47 8 60.5t0 20.5q-37 0 -85 -6h-5q-7 0 -16 2t-9 7q0 4 6 5.5t7 2.5q17 6 38.5 9t39.5 5t24 3q9 6 26 11t26 5
t10 -6.5t1 -8.5h26q9 0 30 -1t40.5 -5.5t23.5 -13.5q2 -4 2 -7t-5 -3q-8 0 -17 1t-18 1q-13 0 -27.5 0.5t-28.5 0.5q-7 0 -20.5 -1.5t-15.5 -7.5q-14 -55 -29 -124.5t-29 -140.5t-25.5 -133t-18 -103.5t-6.5 -51.5q0 -3 13 -4t15 -1q20 -2 46 -4t45 -8l2.5 -1t2.5 -3
q0 -4 -9.5 -6t-20 -2.5t-13.5 -0.5q-22 0 -43.5 0.5t-42.5 0.5q-30 0 -60 -1.5t-60 -1.5zM341 670q-18 0 -41.5 8t-46.5 15.5t-40 7.5q-13 0 -25 -7t-20.5 -14t-12.5 -7q-3 0 -3 5q2 7 12 20.5t26 25.5t33 12t39 -7t46 -14t48 -7q16 0 28 11t16 12q4 0 2 -13
q-9 -16 -24.5 -32t-36.5 -16z" />
    <glyph glyph-name="itilde" unicode="&#x129;" horiz-adv-x="184" 
d="M37 -7q-15 0 -15 16q0 17 6 44.5t14 55.5t12 44q1 4 6 21.5l11 38.5t10.5 37.5t4.5 19.5q0 5 -5.5 9t-5.5 9q0 3 1 6t2 5q3 5 15 13t25.5 14.5t18.5 6.5q3 0 4 -1q1 -2 1 -7q0 -9 -4.5 -27t-11 -39.5t-12.5 -39.5l-9 -27q-5 -15 -14 -43t-16 -56t-7 -44q0 -2 1 -8.5
t5 -6.5q5 0 18.5 8.5t28.5 16.5t23 8q4 0 5 -2q0 -4 -13 -13.5t-27.5 -19t-19.5 -14.5q-10 -9 -24 -17t-28 -8zM194 397q-19 0 -32 8t-26 15.5t-30 7.5q-13 0 -25 -7t-20.5 -14t-12.5 -7q-3 0 -3 5q2 7 12 20.5t26 25.5t33 12t29 -7t26 -14t38 -7q16 0 28 11t16 12
q4 0 2 -13q-9 -16 -24.5 -32t-36.5 -16z" />
    <glyph glyph-name="Imacron" unicode="&#x12a;" horiz-adv-x="368" 
d="M32 -14q-3 0 -14.5 0.5t-21.5 2.5t-10 7t11 7.5t26.5 4t28.5 2t17 0.5q3 0 18.5 1.5t19.5 6.5q3 13 11 49.5t18 87t21 105t21 104.5t17 85.5t9 47.5q6 47 8 60.5t0 20.5q-37 0 -85 -6h-5q-7 0 -16 2t-9 7q0 4 6 5.5t7 2.5q17 6 38.5 9t39.5 5t24 3q9 6 26 11t26 5
t10 -6.5t1 -8.5h26q9 0 30 -1t40.5 -5.5t23.5 -13.5q2 -4 2 -7t-5 -3q-8 0 -17 1t-18 1q-13 0 -27.5 0.5t-28.5 0.5q-7 0 -20.5 -1.5t-15.5 -7.5q-14 -55 -29 -124.5t-29 -140.5t-25.5 -133t-18 -103.5t-6.5 -51.5q0 -3 13 -4t15 -1q20 -2 46 -4t45 -8l2.5 -1t2.5 -3
q0 -4 -9.5 -6t-20 -2.5t-13.5 -0.5q-22 0 -43.5 0.5t-42.5 0.5q-30 0 -60 -1.5t-60 -1.5zM153 671q-6 0 -10 8t-4 15l1 2q11 4 35 5.5t48.5 2.5t36.5 1t31.5 -1t40 -2t32.5 -3q16 -1 16 -7q0 -8 -18 -11q-17 -2 -45.5 -4t-60 -3.5t-59.5 -2t-44 -0.5z" />
    <glyph glyph-name="imacron" unicode="&#x12b;" horiz-adv-x="184" 
d="M37 -7q-15 0 -15 16q0 17 6 44.5t14 55.5t12 44q1 4 6 21.5l11 38.5t10.5 37.5t4.5 19.5q0 5 -5.5 9t-5.5 9q0 3 1 6t2 5q3 5 15 13t25.5 14.5t18.5 6.5q3 0 4 -1q1 -2 1 -7q0 -9 -4.5 -27t-11 -39.5t-12.5 -39.5l-9 -27q-5 -15 -14 -43t-16 -56t-7 -44q0 -2 1 -8.5
t5 -6.5q5 0 18.5 8.5t28.5 16.5t23 8q4 0 5 -2q0 -4 -13 -13.5t-27.5 -19t-19.5 -14.5q-10 -9 -24 -17t-28 -8zM46 398q-6 0 -10 8t-4 15l1 2q11 4 30 5.5t38.5 2.5t31.5 1q17 0 46 -2t48 -4q16 -1 16 -7q0 -8 -18 -11q-22 -3 -56 -5t-67.5 -3.5t-55.5 -1.5z" />
    <glyph glyph-name="Ibreve" unicode="&#x12c;" horiz-adv-x="368" 
d="M32 -14q-3 0 -14.5 0.5t-21.5 2.5t-10 7t11 7.5t26.5 4t28.5 2t17 0.5q3 0 18.5 1.5t19.5 6.5q3 13 11 49.5t18 87t21 105t21 104.5t17 85.5t9 47.5q6 47 8 60.5t0 20.5q-37 0 -85 -6h-5q-7 0 -16 2t-9 7q0 4 6 5.5t7 2.5q17 6 38.5 9t39.5 5t24 3q9 6 26 11t26 5
t10 -6.5t1 -8.5h26q9 0 30 -1t40.5 -5.5t23.5 -13.5q2 -4 2 -7t-5 -3q-8 0 -17 1t-18 1q-13 0 -27.5 0.5t-28.5 0.5q-7 0 -20.5 -1.5t-15.5 -7.5q-14 -55 -29 -124.5t-29 -140.5t-25.5 -133t-18 -103.5t-6.5 -51.5q0 -3 13 -4t15 -1q20 -2 46 -4t45 -8l2.5 -1t2.5 -3
q0 -4 -9.5 -6t-20 -2.5t-13.5 -0.5q-22 0 -43.5 0.5t-42.5 0.5q-30 0 -60 -1.5t-60 -1.5zM272 675q-85 0 -88 60v9.5t1 7.5q2 11 6 14t8 3q6 0 10 -11q4 -17 20 -31.5t52 -14.5q24 0 50.5 8t62.5 39q6 6 15 6q8 0 0 -9q-9 -11 -28 -30.5t-46.5 -35t-62.5 -15.5z" />
    <glyph glyph-name="ibreve" unicode="&#x12d;" horiz-adv-x="184" 
d="M37 -7q-15 0 -15 16q0 17 6 44.5t14 55.5t12 44q1 4 6 21.5l11 38.5t10.5 37.5t4.5 19.5q0 5 -5.5 9t-5.5 9q0 3 1 6t2 5q3 5 15 13t25.5 14.5t18.5 6.5q3 0 4 -1q1 -2 1 -7q0 -9 -4.5 -27t-11 -39.5t-12.5 -39.5l-9 -27q-5 -15 -14 -43t-16 -56t-7 -44q0 -2 1 -8.5
t5 -6.5q5 0 18.5 8.5t28.5 16.5t23 8q4 0 5 -2q0 -4 -13 -13.5t-27.5 -19t-19.5 -14.5q-10 -9 -24 -17t-28 -8zM136 402q-27 0 -46.5 14.5t-21.5 45.5v9.5t1 7.5q2 11 6 14t8 3q6 0 10 -11q4 -17 14 -31.5t38 -14.5q17 0 29.5 2t29.5 12t44 33q6 6 15 6q8 0 0 -9
q-9 -11 -27.5 -30.5t-44 -35t-55.5 -15.5z" />
    <glyph glyph-name="Iogonek" unicode="&#x12e;" horiz-adv-x="368" 
d="M32 -14q-3 0 -14.5 0.5t-21.5 2.5t-10 7t11 7.5t26.5 4t28.5 2t17 0.5q3 0 18.5 1.5t19.5 6.5q3 13 11 49.5t18 87t21 105t21 104.5t17 85.5t9 47.5q6 47 8 60.5t0 20.5q-37 0 -85 -6h-5q-7 0 -16 2t-9 7q0 4 6 5.5t7 2.5q17 6 38.5 9t39.5 5t24 3q9 6 26 11t26 5
t10 -6.5t1 -8.5h26q9 0 30 -1t40.5 -5.5t23.5 -13.5q2 -4 2 -7t-5 -3q-8 0 -17 1t-18 1q-13 0 -27.5 0.5t-28.5 0.5q-7 0 -20.5 -1.5t-15.5 -7.5q-14 -55 -29 -124.5t-29 -140.5t-25.5 -133t-18 -103.5t-6.5 -51.5q0 -3 13 -4t15 -1q20 -2 46 -4t45 -8l2.5 -1t2.5 -3
q0 -4 -9.5 -6t-20 -2.5t-13.5 -0.5q-22 0 -43.5 0.5t-42.5 0.5q-30 0 -60 -1.5t-60 -1.5zM120 -157q-18 0 -38.5 8t-20.5 30q0 11 7 30t18 39.5t23.5 35t24.5 14.5l11 -3q-13 -13 -27 -40t-14 -47q0 -17 11.5 -25.5t25.5 -8.5q18 0 38 4t36 14q1 1 1.5 1h0.5q3 0 5 -3.5
t2 -6.5q0 -9 -18 -19t-42.5 -16.5t-43.5 -6.5z" />
    <glyph glyph-name="iogonek" unicode="&#x12f;" horiz-adv-x="184" 
d="M37 -7q-15 0 -15 16q0 17 6 44.5t14 55.5t12 44q1 4 6 21.5l11 38.5t10.5 37.5t4.5 19.5q0 5 -5.5 9t-5.5 9q0 3 1 6t2 5q3 5 15 13t25.5 14.5t18.5 6.5q3 0 4 -1q1 -2 1 -7q0 -9 -4.5 -27t-11 -39.5t-12.5 -39.5l-9 -27q-5 -15 -14 -43t-16 -56t-7 -44q0 -2 1 -8.5
t5 -6.5q5 0 18.5 8.5t28.5 16.5t23 8q4 0 5 -2q0 -4 -13 -13.5t-27.5 -19t-19.5 -14.5q-10 -9 -24 -17t-28 -8zM136 402q-7 0 -12.5 9.5t-5.5 16.5q0 9 10.5 18t24 15t20.5 6t7 -4q0 -10 -12 -28q-6 -7 -10 -20t-22 -13zM38 -147q-18 0 -38.5 8t-20.5 30q0 11 7 30t18 39.5
t23.5 35t24.5 14.5l11 -3q-13 -13 -27 -40t-14 -47q0 -17 11.5 -25.5t25.5 -8.5q18 0 38 4t36 14q1 1 1.5 1h0.5q3 0 5 -3.5t2 -6.5q0 -9 -18 -19t-42.5 -16.5t-43.5 -6.5z" />
    <glyph glyph-name="Idotaccent" unicode="&#x130;" horiz-adv-x="368" 
d="M32 -14q-3 0 -14.5 0.5t-21.5 2.5t-10 7t11 7.5t26.5 4t28.5 2t17 0.5q3 0 18.5 1.5t19.5 6.5q3 13 11 49.5t18 87t21 105t21 104.5t17 85.5t9 47.5q6 47 8 60.5t0 20.5q-37 0 -85 -6h-5q-7 0 -16 2t-9 7q0 4 6 5.5t7 2.5q17 6 38.5 9t39.5 5t24 3q9 6 26 11t26 5
t10 -6.5t1 -8.5h26q9 0 30 -1t40.5 -5.5t23.5 -13.5q2 -4 2 -7t-5 -3q-8 0 -17 1t-18 1q-13 0 -27.5 0.5t-28.5 0.5q-7 0 -20.5 -1.5t-15.5 -7.5q-14 -55 -29 -124.5t-29 -140.5t-25.5 -133t-18 -103.5t-6.5 -51.5q0 -3 13 -4t15 -1q20 -2 46 -4t45 -8l2.5 -1t2.5 -3
q0 -4 -9.5 -6t-20 -2.5t-13.5 -0.5q-22 0 -43.5 0.5t-42.5 0.5q-30 0 -60 -1.5t-60 -1.5zM260 675q-7 0 -12.5 9.5t-5.5 16.5q0 9 10.5 18t24 15t20.5 6t7 -4q0 -11 -13 -27q-5 -7 -9 -20.5t-22 -13.5z" />
    <glyph glyph-name="dotlessi" unicode="&#x131;" horiz-adv-x="184" 
d="M37 -7q-15 0 -15 16q0 17 6 44.5t14 55.5t12 44q1 4 6 21.5l11 38.5t10.5 37.5t4.5 19.5q0 5 -5.5 9t-5.5 9q0 3 1 6t2 5q3 5 15 13t25.5 14.5t18.5 6.5q3 0 4 -1q1 -2 1 -7q0 -9 -4.5 -27t-11 -39.5t-12.5 -39.5l-9 -27q-5 -15 -14 -43t-16 -56t-7 -44q0 -2 1 -8.5
t5 -6.5q5 0 18.5 8.5t28.5 16.5t23 8q4 0 5 -2q0 -4 -13 -13.5t-27.5 -19t-19.5 -14.5q-10 -9 -24 -17t-28 -8z" />
    <glyph glyph-name="Jcircumflex" unicode="&#x134;" horiz-adv-x="371" 
d="M-65 -205q-52 0 -82 34t-30 90q0 19 9 19q6 0 7 -12q4 -23 16 -49.5t33 -45t51 -18.5q34 0 62 22t51 59t41.5 82.5t31.5 92.5q8 27 17.5 73.5t21 104.5t22.5 119t22 116t20 96q-47 0 -95 -6l-7 -1q-8 0 -14.5 3t-6.5 7t8.5 6.5t9.5 3.5q14 5 34 7.5t38.5 4.5t27.5 3
q6 6 23.5 11t25.5 5q11 0 10.5 -6t3.5 -7q3 -1 12.5 -1.5t20.5 -1.5q6 0 24 -1.5t36.5 -5.5t23.5 -12q4 -3 4 -7q0 -3 -5 -3q-8 0 -26.5 1t-49.5 1q-14 0 -31 -1t-20 -7q-16 -62 -30 -132.5t-27.5 -141t-27 -134.5t-28.5 -113q-20 -66 -50.5 -124.5t-74 -94.5t-102.5 -36z
M139 668l-1 0.5t-1 1.5q2 5 8.5 10t10.5 7q20 14 44.5 29.5t47 31t34.5 25.5q15 15 32 15q16 0 23 -15q8 -16 25.5 -41t30.5 -45q2 -2 5 -7t1 -10q-2 -2 -4 -2q-4 0 -15.5 9.5t-26.5 23t-28 26t-19 19.5q-20 -11 -46.5 -24.5t-52 -25.5t-44.5 -20t-24 -8z" />
    <glyph glyph-name="jcircumflex" unicode="&#x135;" horiz-adv-x="190" 
d="M-174 -332q-43 0 -76 21t-50 61q-7 17 -12 36t-5 38q0 6 2.5 21t10.5 15q6 0 7 -9t1 -13q0 -24 11 -48.5t24 -44.5q15 -23 37 -42t51 -19q43 0 79.5 33.5t66 88t53 120.5t41 132t28 121.5t15.5 89.5q-3 3 -9 3t-6 7q0 1 5 11l11.5 23t11.5 24t6 12q5 8 13.5 10.5
t17.5 2.5q5 0 12.5 -1t7.5 -8l-1 -4q-15 -35 -24.5 -72.5t-17.5 -75.5q-12 -53 -25 -114t-31 -122.5t-45 -117.5t-66 -100t-95 -69q-21 -10 -49 -10zM51 413l-1 0.5t-1 1.5q2 5 8.5 10t10.5 7q12 10 32.5 26t41 33t32.5 27q15 15 32 15q16 0 23 -15l13.5 -27t17.5 -33
t15 -26q2 -2 5 -7t1 -10q-2 -2 -4 -2q-5 0 -20.5 16t-32 34.5t-25.5 27.5q-27 -15 -59 -33t-57 -31.5t-32 -13.5z" />
    <glyph glyph-name="uni0136" unicode="&#x136;" horiz-adv-x="564" 
d="M475 -40q-35 0 -73 19.5t-76 52t-72.5 71t-62.5 78t-47 72.5q-3 -13 -8 -41t-10.5 -61t-10 -62t-7.5 -44q-1 -7 -0.5 -13.5t-1.5 -13.5q-2 -12 -17 -25.5t-29 -13.5q-10 0 -10 9q0 3 5.5 27t9.5 46q1 3 6 28.5t12.5 64t16 80.5t16 79.5t12.5 61l5 23.5q8 37 14.5 74
t13.5 74q1 3 1 8q0 8 -1.5 15.5t-1.5 16.5t10.5 13.5t23.5 5.5t19 1q4 0 8 -2.5t4 -5.5q0 -11 -6 -26q-4 -13 -11 -41t-15 -61q-13 -54 -23.5 -98.5t-18.5 -85.5q14 12 45 41t73 68t86.5 80t85.5 76t70.5 57t39.5 22q6 0 6 -7q0 -13 -10.5 -25.5t-20.5 -19.5q-8 -6 -35 -27
t-61 -49t-65 -56q-56 -50 -103.5 -96.5t-79.5 -79.5q25 -37 52.5 -76t61.5 -74q12 -13 34.5 -36.5t49 -47.5t52 -40.5t44.5 -16.5q8 0 16.5 3t17.5 3q2 0 5.5 -0.5t3.5 -2.5q0 -6 -9 -11t-19 -8t-15 -3zM152 -253q-5 0 -6.5 4t-1.5 7q8 11 14.5 19.5t14.5 20.5q14 19 24 41
t10 37q-1 8 -5 15t-5 14q0 8 8.5 16.5t23.5 8.5q17 0 22.5 -7t5.5 -21q0 -19 -12 -41.5t-29 -44t-32 -37.5q-4 -3 -13 -13.5t-18 -18.5h-1z" />
    <glyph glyph-name="uni0137" unicode="&#x137;" horiz-adv-x="339" 
d="M16 -19q-9 0 -9 7l13 38q5 14 7 28t6 28q7 29 14 57t15 56q-2 5 -10 20t-8 20q0 22 23 22q7 0 11 -3q13 48 29 104t39 110t58 97t85 66q12 5 25 8.5t26 3.5q12 0 28.5 -5t28.5 -14.5t12 -24.5q0 -6 -3 -9q-1 -1 -8 -6.5t-14 -10.5t-9 -6q-2 2 -2 3q0 3 3 6t3 7
q0 10 -11 18.5t-25 14t-23 5.5q-30 0 -56 -23.5t-47.5 -62t-39.5 -84.5t-31.5 -92t-23.5 -84.5t-16 -60.5q2 -7 3.5 -12l1.5 -5q32 41 74.5 82t85.5 71q8 5 20 5q7 0 15.5 -2.5t8.5 -11.5q0 -8 -12 -19t-26.5 -20t-20.5 -13q-34 -23 -71 -51t-66 -56q10 -18 27 -43.5
t36.5 -50t39 -41t35.5 -16.5q15 0 23.5 12t13 27.5t6.5 26.5q1 2 2.5 9.5t5.5 7.5q5 0 6.5 -4t1.5 -8q0 -2 -0.5 -4t-0.5 -4q-2 -19 -4.5 -43t-17.5 -39q-17 -17 -39 -17t-45.5 15.5t-45 40t-38.5 52t-28 50.5q-5 -12 -11.5 -30t-11.5 -35.5t-7 -26.5q4 -7 4 -17
q0 -18 -6 -30.5t-21 -21.5q-6 -4 -13 -7.5t-15 -3.5zM61 -253q-5 0 -6.5 4t-1.5 7q8 11 14.5 19.5t14.5 20.5q14 19 24 41t10 37q-1 8 -5 15t-5 14q0 8 8.5 16.5t23.5 8.5q17 0 22.5 -7t5.5 -21q0 -19 -12 -41.5t-29 -44t-32 -37.5q-4 -3 -13 -13.5t-18 -18.5h-1z" />
    <glyph glyph-name="kgreenlandic" unicode="&#x138;" horiz-adv-x="311" 
d="M16 -19q-9 0 -9 7l13 38q4 14 6.5 28t6.5 28q7 29 14 57t15 56q-2 5 -10 20t-8 20q0 22 23 22q7 0 11 -3q11 41 23.5 87.5t30.5 92.5q12 32 24.5 48.5t19.5 16.5q6 0 6 -13q0 -9 -3 -24t-11 -36q-23 -63 -38.5 -122.5t-23.5 -89.5q3 -13 9 -25q32 41 72.5 86t83.5 75
q8 5 20 5q7 0 15.5 -2.5t8.5 -11.5q0 -13 -16.5 -26t-25.5 -19q-23 -15 -50.5 -37t-53 -45.5t-43.5 -44.5q8 -13 23 -36t34 -46.5t38.5 -39.5t35.5 -16q15 0 23.5 12t13 27.5t6.5 26.5q1 2 2.5 9.5t5.5 7.5q5 0 6.5 -4t1.5 -8q0 -2 -0.5 -4t-0.5 -4q-2 -19 -4.5 -43
t-17.5 -39q-17 -17 -39 -17t-45 15.5t-44 39t-37 48t-24 43.5q-11 -19 -20 -39t-17 -41q4 -7 4 -17q0 -18 -6 -30.5t-21 -21.5q-6 -4 -13 -7.5t-15 -3.5z" />
    <glyph glyph-name="Lacute" unicode="&#x139;" horiz-adv-x="447" 
d="M192 -15q-18 0 -43.5 1t-49 5.5t-35.5 14.5q-6 6 -7.5 16t-1.5 15q0 21 7 62.5t17.5 95t22.5 110t22.5 108.5t17.5 91.5t7 56.5q0 5 -3 6.5t-13 2.5q-9 1 -15.5 1.5t-6.5 7.5q0 14 26 18t56 4q6 0 13 -2t7 -10q0 -5 -2 -9.5t-3 -9.5q-7 -20 -17 -61t-21 -90t-21 -95.5
t-16 -78.5q-10 -45 -18 -92t-8 -85q0 -9 0.5 -17t1.5 -16t15.5 -12.5t34 -6t37.5 -2t26 -0.5q26 0 56 1.5t63 5.5q26 3 48 10t32 10h2q8 0 8 -7q0 -9 -23 -17.5t-60 -16t-78.5 -11.5t-77.5 -4zM115 670q-1 0 -2 1t0 2q1 4 6.5 8t9.5 6q10 8 32.5 21.5t45 28t32.5 22.5
q5 5 11 7.5t13 2.5q10 0 19 -8t7 -16q-1 -7 -20.5 -16.5t-44.5 -20.5q-15 -6 -38.5 -16t-43.5 -16.5t-27 -5.5z" />
    <glyph glyph-name="lacute" unicode="&#x13a;" horiz-adv-x="174" 
d="M37 1q-9 0 -15.5 5t-6.5 15q0 14 2 35t4 36q8 48 18.5 96.5t23.5 95.5q12 46 28 97.5t39 100.5t56.5 88.5t80.5 60.5q12 5 25 8.5t26 3.5q12 0 28.5 -5t28.5 -14.5t12 -24.5q0 -6 -3 -9q-2 -3 -15.5 -12.5t-15.5 -10.5q-2 2 -2 3q0 3 3 6t3 7q0 10 -11 18.5t-25 14
t-23 5.5q-33 0 -60.5 -28t-49.5 -71.5t-39 -92t-29 -91.5t-19 -69q-8 -29 -17 -65t-15.5 -72.5t-6.5 -67.5q0 -9 3.5 -18.5t14.5 -9.5q15 0 31.5 10t32 23.5t27 23.5t15.5 10q2 0 2 -2q0 -7 -4 -14t-9 -12q-13 -13 -37 -30.5t-51 -30.5t-50 -13zM277 710q-3 0 -3 2q0 5 5 10
t8 7q9 10 24 25l31 31t24 26q5 7 11 11.5t15 4.5q8 0 17 -5.5t9 -13.5q0 -7 -16.5 -19t-25.5 -19q-14 -9 -35 -23.5t-39 -25.5t-25 -11z" />
    <glyph glyph-name="uni013B" unicode="&#x13b;" horiz-adv-x="447" 
d="M192 -15q-18 0 -43.5 1t-49 5.5t-35.5 14.5q-6 6 -7.5 16t-1.5 15q0 21 7 62.5t17.5 95t22.5 110t22.5 108.5t17.5 91.5t7 56.5q0 5 -3 6.5t-13 2.5q-9 1 -15.5 1.5t-6.5 7.5q0 14 26 18t56 4q6 0 13 -2t7 -10q0 -5 -2 -9.5t-3 -9.5q-7 -20 -17 -61t-21 -90t-21 -95.5
t-16 -78.5q-10 -45 -18 -92t-8 -85q0 -9 0.5 -17t1.5 -16t15.5 -12.5t34 -6t37.5 -2t26 -0.5q26 0 56 1.5t63 5.5q26 3 48 10t32 10h2q8 0 8 -7q0 -9 -23 -17.5t-60 -16t-78.5 -11.5t-77.5 -4zM139 -253q-5 0 -6.5 4t-1.5 7q8 11 14.5 19.5t14.5 20.5q14 19 24 41t10 37
q-1 8 -5 15t-5 14q0 8 8.5 16.5t23.5 8.5q17 0 22.5 -7t5.5 -21q0 -19 -12 -41.5t-29 -44t-32 -37.5q-4 -3 -13 -13.5t-18 -18.5h-1z" />
    <glyph glyph-name="uni013C" unicode="&#x13c;" horiz-adv-x="174" 
d="M37 1q-9 0 -15.5 5t-6.5 15q0 14 2 35t4 36q8 48 18.5 96.5t23.5 95.5q12 46 28 97.5t39 100.5t56.5 88.5t80.5 60.5q12 5 25 8.5t26 3.5q12 0 28.5 -5t28.5 -14.5t12 -24.5q0 -6 -3 -9q-2 -3 -15.5 -12.5t-15.5 -10.5q-2 2 -2 3q0 3 3 6t3 7q0 10 -11 18.5t-25 14
t-23 5.5q-33 0 -60.5 -28t-49.5 -71.5t-39 -92t-29 -91.5t-19 -69q-8 -29 -17 -65t-15.5 -72.5t-6.5 -67.5q0 -9 3.5 -18.5t14.5 -9.5q15 0 31.5 10t32 23.5t27 23.5t15.5 10q2 0 2 -2q0 -7 -4 -14t-9 -12q-13 -13 -37 -30.5t-51 -30.5t-50 -13zM-39 -253q-5 0 -6.5 4
t-1.5 7q8 11 14.5 19.5t14.5 20.5q14 19 24 41t10 37q-1 8 -5 15t-5 14q0 8 8.5 16.5t23.5 8.5q17 0 22.5 -7t5.5 -21q0 -19 -12 -41.5t-29 -44t-32 -37.5q-4 -3 -13 -13.5t-18 -18.5h-1z" />
    <glyph glyph-name="Lcaron" unicode="&#x13d;" horiz-adv-x="447" 
d="M192 -15q-18 0 -43.5 1t-49 5.5t-35.5 14.5q-6 6 -7.5 16t-1.5 15q0 21 7 62.5t17.5 95t22.5 110t22.5 108.5t17.5 91.5t7 56.5q0 5 -3 6.5t-13 2.5q-9 1 -15.5 1.5t-6.5 7.5q0 14 26 18t56 4q6 0 13 -2t7 -10q0 -5 -2 -9.5t-3 -9.5q-7 -20 -17 -61t-21 -90t-21 -95.5
t-16 -78.5q-10 -45 -18 -92t-8 -85q0 -9 0.5 -17t1.5 -16t15.5 -12.5t34 -6t37.5 -2t26 -0.5q26 0 56 1.5t63 5.5q26 3 48 10t32 10h2q8 0 8 -7q0 -9 -23 -17.5t-60 -16t-78.5 -11.5t-77.5 -4zM294 451q-1 0 -2 2q0 5 7.5 19.5t18 34.5t18 41t7.5 39q0 4 -0.5 7t-0.5 6
q3 3 12 5q6 0 19 -6t13 -14q0 -2 -1 -4q-8 -27 -30.5 -59t-42.5 -53q-1 -3 -7.5 -9.5l-8.5 -8.5h-2z" />
    <glyph glyph-name="lcaron" unicode="&#x13e;" horiz-adv-x="174" 
d="M37 1q-9 0 -15.5 5t-6.5 15q0 14 2 35t4 36q8 48 18.5 96.5t23.5 95.5q12 46 28 97.5t39 100.5t56.5 88.5t80.5 60.5q12 5 25 8.5t26 3.5q12 0 28.5 -5t28.5 -14.5t12 -24.5q0 -6 -3 -9q-2 -3 -15.5 -12.5t-15.5 -10.5q-2 2 -2 3q0 3 3 6t3 7q0 10 -11 18.5t-25 14
t-23 5.5q-33 0 -60.5 -28t-49.5 -71.5t-39 -92t-29 -91.5t-19 -69q-8 -29 -17 -65t-15.5 -72.5t-6.5 -67.5q0 -9 3.5 -18.5t14.5 -9.5q15 0 31.5 10t32 23.5t27 23.5t15.5 10q2 0 2 -2q0 -7 -4 -14t-9 -12q-13 -13 -37 -30.5t-51 -30.5t-50 -13zM401 486q-1 0 -2 2
q0 5 7.5 19.5t18 34.5t18 41t7.5 39q0 4 -0.5 7t-0.5 6q3 3 12 5q6 0 19 -6t13 -14q0 -2 -1 -4q-8 -27 -30.5 -59t-42.5 -53q-1 -3 -7.5 -9.5l-8.5 -8.5h-2z" />
    <glyph glyph-name="Ldot" unicode="&#x13f;" horiz-adv-x="447" 
d="M334 263q-10 0 -18 12t-8 19q0 18 22 25q5 5 19.5 12t30 13t23.5 6q1 0 4 -2q-4 -4 -9.5 -8.5t-9.5 -9.5q-8 -9 -13.5 -25t-14.5 -29t-26 -13zM192 -15q-18 0 -43.5 1t-49 5.5t-35.5 14.5q-6 6 -7.5 16t-1.5 15q0 21 7 62.5t17.5 95t22.5 110t22.5 108.5t17.5 91.5
t7 56.5q0 5 -3 6.5t-13 2.5q-9 1 -15.5 1.5t-6.5 7.5q0 14 26 18t56 4q6 0 13 -2t7 -10q0 -5 -2 -9.5t-3 -9.5q-7 -20 -17 -61t-21 -90t-21 -95.5t-16 -78.5q-10 -45 -18 -92t-8 -85q0 -9 0.5 -17t1.5 -16t15.5 -12.5t34 -6t37.5 -2t26 -0.5q26 0 56 1.5t63 5.5q26 3 48 10
t32 10h2q8 0 8 -7q0 -9 -23 -17.5t-60 -16t-78.5 -11.5t-77.5 -4z" />
    <glyph glyph-name="ldot" unicode="&#x140;" horiz-adv-x="174" 
d="M218 255q-10 0 -18 12t-8 19q0 18 22 25q5 5 19.5 12t30 13t23.5 6q1 0 4 -2q-4 -4 -9.5 -8.5t-9.5 -9.5q-8 -9 -13.5 -25t-14.5 -29t-26 -13zM37 1q-9 0 -15.5 5t-6.5 15q0 14 2 35t4 36q8 48 18.5 96.5t23.5 95.5q12 46 28 97.5t39 100.5t56.5 88.5t80.5 60.5
q12 5 25 8.5t26 3.5q12 0 28.5 -5t28.5 -14.5t12 -24.5q0 -6 -3 -9q-2 -3 -15.5 -12.5t-15.5 -10.5q-2 2 -2 3q0 3 3 6t3 7q0 10 -11 18.5t-25 14t-23 5.5q-33 0 -60.5 -28t-49.5 -71.5t-39 -92t-29 -91.5t-19 -69q-8 -29 -17 -65t-15.5 -72.5t-6.5 -67.5q0 -9 3.5 -18.5
t14.5 -9.5q15 0 31.5 10t32 23.5t27 23.5t15.5 10q2 0 2 -2q0 -7 -4 -14t-9 -12q-13 -13 -37 -30.5t-51 -30.5t-50 -13z" />
    <glyph glyph-name="Lslash" unicode="&#x141;" horiz-adv-x="414" 
d="M211 -7q-7 0 -30 0.5t-52.5 2t-57.5 4t-47 6.5t-21 10q-1 5 -1 10.5v10.5q0 38 7.5 79.5t15.5 78.5l1 9q-10 0 -20.5 -0.5t-21.5 -0.5q-4 0 -8.5 -0.5t-9.5 -0.5q-12 0 -12 10q0 14 13 17.5t23 3.5q2 0 5 -1t3 -3t-2 -4h34q12 54 24.5 108t25.5 109q5 20 9.5 41t8.5 41
q2 11 5 23t3 23q0 4 -6.5 4.5t-8.5 0.5q-3 0 -6.5 -0.5t-6.5 -0.5q-7 0 -7 4q0 9 14 14t30.5 7t23.5 2q6 0 13 -2t7 -10q0 -5 -1.5 -9.5t-3.5 -9.5q-5 -15 -9 -32t-7 -33q-9 -34 -16.5 -68t-14.5 -68q-7 -36 -16 -72t-17 -71h125q2 0 9.5 -1t7.5 -4q0 -4 -8.5 -5t-10.5 -1
q-64 -6 -128 -9l-6 -28q-4 -26 -8.5 -52t-4.5 -52q0 -8 0.5 -16t3.5 -16q6 -13 27.5 -18.5t45 -7t33.5 -1.5q6 0 12 0.5t12 0.5q31 2 61.5 3.5t60.5 6.5q8 1 15 3t13 3q8 2 15.5 5.5t14.5 3.5h3q4 0 7.5 -1t3.5 -6q0 -13 -19 -21t-44.5 -12t-47.5 -6t-29 -2h-27z" />
    <glyph glyph-name="lslash" unicode="&#x142;" horiz-adv-x="181" 
d="M44 1q-9 0 -15.5 5t-6.5 15q0 14 4 35t6 36q8 50 18 99q-14 -4 -28 -8.5t-28 -8.5q-5 -1 -9 -3l-8 -4q-1 0 -2 -0.5t-3 -0.5q-10 0 -10 14q0 12 10.5 18t20.5 9h4.5t3.5 -2q0 -4 -1 -5q14 4 28 7.5t27 7.5q4 17 8.5 34.5t8.5 34.5q12 46 27.5 97.5t38 100.5t56 88.5
t80.5 60.5q12 5 25 8.5t26 3.5q12 0 28.5 -5t28.5 -14.5t12 -24.5q0 -6 -3 -9q-2 -3 -15.5 -12.5t-15.5 -10.5q-2 2 -2 3q0 3 3 6t3 7q0 10 -11 18.5t-25 14t-23 5.5q-33 0 -60.5 -28t-50 -71.5t-40 -92t-29.5 -91.5t-19 -69l-12 -42l67 19l37 10q2 0 9.5 1t8.5 -2
q1 -4 -7.5 -7.5t-10.5 -4.5q-27 -10 -54.5 -20t-55.5 -20q-8 -35 -14.5 -71.5t-6.5 -67.5q0 -9 3.5 -18.5t14.5 -9.5q15 0 31.5 11t32 25t27 25t15.5 11t4 -6q0 -2 -0.5 -9t-5.5 -7q-10 -10 -28.5 -24.5t-40 -28t-42 -23t-34.5 -9.5z" />
    </font>
</defs>
</svg>
